<svg version="1.1" xmlns="http://www.w3.org/2000/svg" width="1080" height="1080">
<path d="M0 0 C356.4 0 712.8 0 1080 0 C1080 356.4 1080 712.8 1080 1080 C723.6 1080 367.2 1080 0 1080 C0 723.6 0 367.2 0 0 Z " fill="#000000" transform="translate(0,0)"/>
<path d="M0 0 C356.4 0 712.8 0 1080 0 C1080 356.4 1080 712.8 1080 1080 C723.6 1080 367.2 1080 0 1080 C0 723.6 0 367.2 0 0 Z M504.83203125 134.65234375 C502.71493193 134.8301398 500.59775699 135.00703738 498.48051453 135.18312073 C493.95760226 135.56079148 489.43518354 135.94375249 484.91308594 136.33105469 C473.86395714 137.27684428 462.81239428 138.19361437 451.76111984 139.11392593 C447.90030577 139.43571708 444.03958163 139.7585721 440.17886353 140.08151245 C414.48199539 142.22731433 388.77471342 144.23305847 363.06544495 146.22377777 C320.81796214 149.49677568 278.58009598 152.87565308 236.35009766 156.3671875 C235.2521991 156.45796066 234.15430054 156.54873383 233.02313232 156.64225769 C231.03414449 156.80680199 229.04516927 156.97149887 227.05621338 157.13642883 C198.04489035 159.53788337 169.02591037 161.76723766 140 164 C140 412.16 140 660.32 140 916 C173.33 918.64 206.66 921.28 241 924 C288.6875 927.9375 288.6875 927.9375 302.07275391 929.0480957 C323.67789224 930.84039451 345.2861197 932.58933125 366.8984375 934.29296875 C368.12102201 934.3893438 369.34360653 934.48571884 370.60323906 934.58501434 C382.91237801 935.55477245 395.22182633 936.5205418 407.53158092 937.48245239 C450.62552568 940.85124788 450.62552568 940.85124788 471.64963341 942.67752075 C474.20105653 942.8991108 476.75258904 943.11939887 479.30415344 943.33935547 C492.15976337 944.44939698 492.15976337 944.44939698 497.64553833 944.95123291 C528.24872081 947.74957487 557.7251876 946.85361879 588.24642563 944.11470413 C592.87088616 943.70278601 597.49659926 943.30549956 602.12231445 942.90795898 C603.06056659 942.82729659 603.99881872 942.7466342 604.96550274 942.66352749 C606.87023457 942.49981062 608.7749711 942.3361485 610.6797123 942.17254066 C613.55066391 941.92545516 616.42148432 941.67689016 619.2922821 941.42802429 C636.64405852 939.92673821 654.00530236 938.56678356 671.37113571 937.23974228 C700.18356579 935.03508872 728.98479187 932.7059128 757.78264999 930.31882477 C767.02170897 929.55299954 776.26084967 928.7881598 785.5 928.0234375 C786.51516378 927.93940548 787.53032757 927.85537346 788.57625389 927.76879501 C809.50073434 926.03720967 830.42675442 924.32501475 851.35455322 922.63400269 C854.94461046 922.34387685 858.53457595 922.05265956 862.12445068 921.76028442 C862.98268873 921.69048402 863.84092678 921.62068361 864.72517204 921.54876804 C866.27763989 921.42246984 867.83008904 921.29594134 869.38250923 921.1690588 C892.91162879 919.25678754 916.44762441 917.64318899 940 916 C940 667.84 940 419.68 940 164 C918.715 162.515 918.715 162.515 897 161 C889.42714396 160.40946968 881.85731427 159.81021243 874.2890625 159.16796875 C872.38844295 159.00916137 870.48779696 158.85067018 868.58712769 158.69245911 C864.62868227 158.36257651 860.67036527 158.03121656 856.7121582 157.69848633 C846.08220916 156.8053199 835.45127782 155.92394308 824.8203125 155.04296875 C823.75382225 154.95452572 822.687332 154.86608269 821.58852386 154.77495956 C801.56410282 153.11558318 781.53393076 151.53965031 761.5 150 C734.5746238 147.92961914 707.65927125 145.75233724 680.74697876 143.51831055 C662.49868943 142.00370247 644.24950393 140.49989536 626 139 C625.04265205 138.92126648 624.08530411 138.84253296 623.09894562 138.76141357 C612.17057374 137.86292998 601.2417248 136.97102429 590.3111515 136.09968567 C586.21243757 135.77294262 582.11398012 135.44366117 578.01611328 135.10644531 C574.23781644 134.79565751 570.45892289 134.4934809 566.67943382 134.19755554 C564.7045525 134.04096486 562.73033684 133.87604299 560.75617981 133.71057129 C542.02580098 132.27050976 523.51884039 133.01979893 504.83203125 134.65234375 Z " fill="#000000" transform="translate(0,0)"/>
<path d="M0 0 C4.24914731 0.34745528 8.49911734 0.6845837 12.7489624 1.02337646 C37.44085127 2.99801342 62.12550297 5.06364624 86.80884647 7.14207458 C109.66634975 9.06593475 132.53144258 10.87351345 155.4020195 12.63448334 C184.66691901 14.88855822 213.91983608 17.27566343 243.1708374 19.70306396 C282.16430413 22.94051086 282.16430413 22.94051086 321.1708374 26.01556396 C322.68654831 26.13221405 322.68654831 26.13221405 324.23287964 26.2512207 C327.01545761 26.46474335 329.79817545 26.67629114 332.58099365 26.88665771 C333.32752197 26.94356277 334.07405029 27.00046783 334.84320068 27.05909729 C342.59483062 27.63736111 350.34836057 28.09306541 358.1083374 28.57806396 C358.1083374 276.73806396 358.1083374 524.89806396 358.1083374 780.57806396 C343.9183374 781.56806396 329.7283374 782.55806396 315.1083374 783.57806396 C307.65273057 784.15735106 300.20005219 784.74475791 292.7489624 785.37493896 C290.87559277 785.53100374 289.00219904 785.68677948 287.12878418 785.84230042 C283.21559017 786.16759113 279.30253207 786.49444714 275.3895874 786.82272339 C265.88768613 787.61962129 256.38494789 788.40646229 246.88230896 789.19450569 C243.6271089 789.46452172 240.3719336 789.7348349 237.11676025 790.00517273 C216.11646086 791.74819481 195.11312007 793.45251669 174.1083374 795.14056396 C173.22656704 795.21148129 172.34479668 795.28239861 171.436306 795.35546494 C150.43410503 797.04457765 129.43043317 798.71414412 108.42474365 800.35931396 C106.521347 800.50847311 104.61795039 800.65763286 102.71455383 800.80679321 C95.16775296 801.39799702 87.62094636 801.9891095 80.07382202 802.57617188 C61.37829606 804.03050218 42.68585386 805.50526848 24.00449562 807.13277626 C21.51093858 807.34977935 19.01726314 807.56536699 16.52354431 807.78050232 C14.9013339 807.92059167 13.27912622 808.06071278 11.65692139 808.2008667 C10.86712481 808.26908977 10.07732824 808.33731283 9.26359844 808.40760326 C5.47297457 808.7361275 1.68290943 809.06953236 -2.10623169 809.4147644 C-33.18346661 812.24379745 -63.13237307 811.47515876 -94.13808823 808.6927681 C-98.76254875 808.28084998 -103.38826186 807.88356353 -108.01397705 807.48602295 C-108.95222919 807.40536056 -109.89048132 807.32469816 -110.85716534 807.24159145 C-112.76189716 807.07787459 -114.6666337 806.91421246 -116.57137489 806.75060463 C-119.44232651 806.50351913 -122.31314692 806.25495412 -125.1839447 806.00608826 C-142.53390233 804.50495954 -159.89332354 803.14507854 -177.25733948 801.8182106 C-206.54065737 799.57769413 -235.81126936 797.1986877 -265.0791626 794.76556396 C-307.78724108 791.21516935 -350.50654978 787.81600641 -393.23028564 784.45965576 C-394.4215229 784.36606655 -395.61276016 784.27247734 -396.84009552 784.17605209 C-402.43594075 783.73650614 -408.03181987 783.29740141 -413.6277771 782.85928345 C-414.6399294 782.77993718 -415.6520817 782.70059092 -416.69490528 782.61884022 C-418.54400168 782.47388814 -420.39311515 782.3291534 -422.2422514 782.1847105 C-428.79410781 781.67077567 -435.34213935 781.12385757 -441.8916626 780.57806396 C-441.8916626 532.41806396 -441.8916626 284.25806396 -441.8916626 28.57806396 C-391.4016626 24.61806396 -391.4016626 24.61806396 -339.8916626 20.57806396 C-315.82252031 18.62468713 -315.82252031 18.62468713 -291.75585938 16.64239502 C-280.57123447 15.71421965 -269.38584094 14.79537476 -258.20025635 13.87884521 C-257.05028923 13.78461651 -255.90032211 13.6903878 -254.71550751 13.59330368 C-222.56071129 10.96168414 -190.39520428 8.46531437 -158.22940826 5.97236252 C-152.32900214 5.51492662 -146.42866368 5.05662501 -140.52838135 4.59759521 C-139.39796669 4.50965195 -138.26755203 4.42170868 -137.10288239 4.33110046 C-123.09688468 3.23967471 -109.09516132 2.10986078 -95.09869385 0.90228271 C-93.65684169 0.77847369 -92.21498788 0.65468376 -90.77313232 0.53091431 C-84.61449651 0.00088003 -78.45709672 -0.54013969 -72.30133057 -1.1026001 C-47.96296648 -3.27955237 -24.28833524 -1.99712301 0 0 Z M-71.1885376 20.93353271 C-72.80810034 21.07745753 -74.42773152 21.22061386 -76.04742432 21.36306763 C-79.47128976 21.66551972 -82.8947003 21.97252968 -86.31781006 22.28341675 C-94.50349171 23.02650025 -102.69133549 23.74522353 -110.87891388 24.46704674 C-113.64182872 24.71089113 -116.40465938 24.95567266 -119.16748047 25.20057678 C-134.98571292 26.60026103 -150.810942 27.88992503 -166.6416626 29.14056396 C-188.96661007 30.91078626 -211.27782757 32.8105127 -233.58665466 34.77095413 C-254.68210842 36.62438353 -275.78135029 38.40025338 -296.8916626 40.07806396 C-327.58550376 42.51815179 -358.25854133 45.18008947 -388.93048096 47.87957764 C-399.25035589 48.78500749 -409.57108987 49.68062286 -419.8916626 50.57806396 C-419.8916626 284.21806396 -419.8916626 517.85806396 -419.8916626 758.57806396 C-392.5016626 760.88806396 -365.1116626 763.19806396 -336.8916626 765.57806396 C-307.8291626 768.14056396 -307.8291626 768.14056396 -294.35650635 769.33197021 C-276.40851206 770.90526729 -258.44806812 772.32909064 -240.48914719 773.77095413 C-218.33083001 775.55005257 -196.18149554 777.40070579 -174.03973389 779.37728882 C-150.19656385 781.50244846 -126.33863796 783.43440584 -102.47686768 785.33748436 C-99.43082262 785.58057225 -96.38484885 785.82454403 -93.33889771 786.06880569 C-91.86922013 786.18651154 -90.39951404 786.30386199 -88.92977905 786.42084885 C-81.25805407 787.03223085 -73.59567714 787.68581826 -65.94075012 788.48527527 C-45.28609723 790.62213933 -25.10532357 788.90411793 -4.48320007 787.15592575 C-1.22137595 786.88068068 2.04091138 786.61115928 5.30321312 786.34164333 C30.15431569 784.28816873 54.99645748 782.12932653 79.83648777 779.94648838 C99.00427102 778.26269425 118.17703356 776.66428835 137.3583374 775.14056396 C161.26320563 773.24035325 185.15566826 771.21657201 209.0458374 769.14056396 C210.76037563 768.99162401 212.4749142 768.84268805 214.18945312 768.6937561 C215.9008586 768.54508513 217.61226404 768.39641367 219.32366943 768.2477417 C222.74798342 767.95026918 226.17230025 767.65282935 229.59661865 767.35540771 C230.86735985 767.24501065 230.86735985 767.24501065 232.16377258 767.13238335 C250.58184344 765.53268718 269.00206688 763.95884729 287.42354202 762.39887619 C289.70481374 762.20548205 291.98603591 762.0115139 294.26724243 761.81735229 C297.83622015 761.51362811 301.40531175 761.21127908 304.97449684 760.91000175 C306.86697468 760.74998374 308.75934923 760.58874559 310.65171814 760.42744446 C319.13489964 759.71402194 327.61069404 759.14457352 336.1083374 758.57806396 C336.1083374 524.93806396 336.1083374 291.29806396 336.1083374 50.57806396 C301.72791246 47.71302855 267.34822914 44.85492015 232.96160889 42.06799316 C203.58253279 39.68597677 174.2067367 37.28666792 144.84823608 34.66156006 C123.81629821 32.78280983 102.77204562 31.07567825 81.72421265 29.3867569 C57.43874304 27.43785834 33.16365754 25.40378191 8.8973999 23.22650146 C2.63536475 22.66539315 -3.62775789 22.11787145 -9.8916626 21.57806396 C-10.99091064 21.48210937 -12.09015869 21.38615479 -13.22271729 21.28729248 C-16.60129552 20.99554151 -19.98065029 20.7151044 -23.3604126 20.43743896 C-24.35150024 20.35068909 -25.34258789 20.26393921 -26.3637085 20.17456055 C-41.38476195 18.9740457 -56.21040245 19.54548661 -71.1885376 20.93353271 Z " fill="#F8D929" transform="translate(581.8916625976563,135.42193603515625)"/>
<path d="M0 0 C0.84810242 -0.01272446 1.69620483 -0.02544891 2.57000732 -0.03855896 C3.49219559 -0.03203308 4.41438385 -0.0255072 5.36451721 -0.01878357 C6.34218048 -0.02739914 7.31984375 -0.03601471 8.32713318 -0.04489136 C11.56064794 -0.06760403 14.79329972 -0.06080227 18.02687073 -0.05174255 C20.27362323 -0.05697597 22.52037354 -0.06325141 24.76712036 -0.07052612 C29.47726271 -0.08094031 34.18710315 -0.07635435 38.89723206 -0.06175232 C44.93469894 -0.04456807 50.97121386 -0.06805085 57.00857449 -0.10324192 C61.64886793 -0.1251983 66.28893301 -0.12377855 70.92926216 -0.11547661 C73.15521857 -0.11465604 75.38119157 -0.12153955 77.60709953 -0.13624763 C80.71954283 -0.15365923 83.83026818 -0.13917785 86.94264221 -0.11643982 C87.86280624 -0.12813202 88.78297028 -0.13982422 89.73101807 -0.15187073 C93.92314432 -0.08953013 96.10385294 0.09310011 99.62562561 2.50942993 C102.24437432 6.27018634 103.60540755 9.88277317 104.97633362 14.22950745 C105.2632457 15.09693069 105.55015778 15.96435394 105.84576416 16.85806274 C106.78780529 19.71824436 107.70818116 22.58490486 108.62843323 25.4521637 C109.28302297 27.45453865 109.93892264 29.45648581 110.59606934 31.45802307 C112.322641 36.72915394 114.03077878 42.00608432 115.73530579 47.28437805 C117.46093542 52.61620992 119.20488973 57.94203752 120.9467926 63.26856995 C131.44084244 95.40318862 131.44084244 95.40318862 134.88623047 106.9209137 C135.71624826 109.50833954 136.67819834 112.00513457 137.71827698 114.5146637 C140.6144194 112.07860402 141.40910658 109.93897043 142.36671448 106.31544495 C142.78727112 104.76156067 142.78727112 104.76156067 143.21632385 103.17628479 C143.50571838 102.07107483 143.79511292 100.96586487 144.09327698 99.8271637 C144.71388522 97.53371048 145.33627864 95.24073957 145.96046448 92.94825745 C146.26178284 91.83563538 146.5631012 90.72301331 146.87355042 89.57667542 C148.4418193 83.89192735 150.25002529 78.28891335 152.03956604 72.67042542 C153.42358036 68.27443749 154.75447865 63.86208537 156.09327698 59.4521637 C156.38903625 58.47980774 156.68479553 57.50745178 156.98951721 56.50563049 C158.50331835 51.52622579 160.01109979 46.54507435 161.51124573 41.5615387 C162.95274041 36.77875764 164.40932125 32.0008724 165.8818512 27.22755432 C166.43354561 25.4381707 166.98211928 23.64782153 167.52735901 21.85646057 C168.28437529 19.38338447 169.06066757 16.91724254 169.84327698 14.4521637 C170.16920837 13.37261414 170.16920837 13.37261414 170.50172424 12.27125549 C170.82934753 11.26059021 170.82934753 11.26059021 171.16358948 10.22950745 C171.4345343 9.36507019 171.4345343 9.36507019 171.71095276 8.48316956 C173.31801979 5.34265053 174.93308523 2.68983899 177.71827698 0.5146637 C181.00982207 -0.36327711 184.21131086 -0.27548126 187.60157776 -0.21409607 C188.59235321 -0.21979111 189.58312866 -0.22548615 190.60392761 -0.23135376 C193.8745425 -0.24245657 197.14315273 -0.21040439 200.41358948 -0.17674255 C202.68611923 -0.17316592 204.95865347 -0.17180793 207.23118591 -0.1725769 C211.99100048 -0.16788616 216.75013689 -0.14304581 221.50978088 -0.10276794 C227.6178718 -0.05173987 233.72521889 -0.04032672 239.833498 -0.04260349 C244.52432892 -0.04178876 249.21499649 -0.02535218 253.90577316 -0.00359917 C256.15847919 0.00596128 258.41120376 0.01186315 260.66392899 0.01408195 C263.80753038 0.02056943 266.95033452 0.04679162 270.09376526 0.07887268 C271.02889954 0.07751312 271.96403381 0.07615356 272.92750549 0.07475281 C274.21021835 0.09394524 274.21021835 0.09394524 275.5188446 0.11352539 C276.63323001 0.12106669 276.63323001 0.12106669 277.77012825 0.12876034 C280.31566077 0.63299779 281.09811888 1.5123268 282.71827698 3.5146637 C283.09432447 5.42154354 283.09432447 5.42154354 283.0958004 7.62080288 C283.10362364 8.46032417 283.11144688 9.29984546 283.11950719 10.16480678 C283.11281503 11.08716737 283.10612286 12.00952796 283.09922791 12.95983887 C283.10390788 13.93963244 283.10858785 14.91942602 283.11340964 15.92891032 C283.12541935 19.22708048 283.11587895 22.52483972 283.10646057 25.82301331 C283.11052364 28.18147017 283.11586402 30.53992513 283.12239075 32.89837646 C283.13610235 39.31566531 283.13074961 45.73280996 283.12125349 52.15010142 C283.11592847 56.15581134 283.11692283 60.16151131 283.11972427 64.16722298 C283.12018397 64.83174831 283.12064367 65.49627365 283.1211173 66.18093612 C283.12207646 67.5308286 283.1230491 68.88072107 283.12403508 70.23061354 C283.1325948 82.89609765 283.12274607 95.56151667 283.10663398 108.22699011 C283.09323334 119.09757213 283.09555563 129.96805803 283.10939026 140.83863831 C283.12544113 153.4565788 283.13176752 166.0744622 283.12255347 178.69241148 C283.1215978 180.03770386 283.12065469 181.38299625 283.11972427 182.72828865 C283.11926145 183.3902273 283.11879862 184.05216596 283.11832177 184.73416336 C283.11573016 189.40160256 283.1202528 194.0689857 283.12716293 198.73641777 C283.13581246 205.01793462 283.12984743 211.29926953 283.11248016 217.58076668 C283.10850439 219.8898806 283.1096679 222.19900976 283.11626816 224.50811768 C283.12443061 227.65312199 283.11422592 230.79753833 283.09922791 233.94250488 C283.10592007 234.86263475 283.11261224 235.78276461 283.11950719 236.7307772 C283.06226352 242.89274446 283.06226352 242.89274446 281.3067112 246.06674004 C277.91604652 249.15747149 273.84319287 248.652937 269.45265198 248.69166565 C267.55047913 248.7109185 267.55047913 248.7109185 265.60987854 248.7305603 C264.22934867 248.7387258 262.84881437 248.7461699 261.46827698 248.75294495 C260.77085388 248.75702047 260.07343079 248.761096 259.35487366 248.76529503 C255.6674174 248.78610909 251.97999791 248.8004341 248.29249573 248.80982971 C244.48581681 248.8209193 240.67971839 248.85536077 236.87324524 248.89500141 C233.9427125 248.92113439 231.01231932 248.92951824 228.0816803 248.93311119 C226.67823846 248.9379813 225.27480302 248.94960755 223.87147522 248.96814919 C221.90909392 248.99247797 219.94642886 248.98916199 217.98390198 248.9846344 C216.86789612 248.99050064 215.75189026 248.99636688 214.60206604 249.00241089 C210.94739885 248.38428188 209.98369075 247.41306224 207.71827698 244.5146637 C207.21046829 241.58616257 207.21046829 241.58616257 207.19929504 238.11128235 C207.18538223 236.79317566 207.17146942 235.47506897 207.15713501 234.11701965 C207.16184801 232.65809508 207.16694196 231.19917169 207.17237854 229.74024963 C207.16364376 228.20272271 207.15315831 226.66520488 207.14105225 225.12770081 C207.11315958 220.9544449 207.10978827 216.78148512 207.11077213 212.60814953 C207.10764582 208.24653659 207.08203352 203.88505758 207.05879211 199.52351379 C207.01820692 191.26464522 206.9978855 183.00585565 206.98481822 174.7469027 C206.96895669 165.34425768 206.93054466 155.94174728 206.89022493 146.53918028 C206.80779153 127.19771729 206.75372094 107.85626699 206.71827698 88.5146637 C206.05827698 88.5146637 205.39827698 88.5146637 204.71827698 88.5146637 C203.22292036 92.97565662 201.72970078 97.43735762 200.23829651 101.89967346 C199.73267127 103.41157949 199.22650366 104.92330427 198.71974182 106.43482971 C195.94467588 114.71331851 193.22774515 122.99932757 190.68800354 131.35377502 C188.5634333 138.27895401 186.3026592 145.16159101 184.07374573 152.0537262 C183.69862854 153.21646057 183.32351135 154.37919495 182.93702698 155.5771637 C182.60638245 156.59939026 182.27573792 157.62161682 181.93507385 158.67481995 C180.88822236 161.94979258 179.87938946 165.23600375 178.87086487 168.52296448 C175.33211292 180.04714297 171.67643476 191.53486591 168.03639221 203.02735901 C167.11228088 205.94570439 166.19018592 208.8646755 165.26979065 211.78419495 C164.14661279 215.34688574 163.01993794 218.90845287 161.89079475 222.46925735 C161.46501135 223.81396996 161.04042903 225.15906355 160.61712456 226.50455856 C159.35314842 230.52029578 158.05857504 234.52374345 156.71827698 238.5146637 C156.46361664 239.2790979 156.2089563 240.0435321 155.94657898 240.83113098 C154.89704965 243.6421296 153.83843648 245.40668887 151.59718323 247.42066956 C147.58121107 248.9467526 143.92173891 249.00148239 139.65577698 249.01856995 C138.78686829 249.02855515 137.91795959 249.03854034 137.02272034 249.04882812 C135.19049323 249.0639767 133.35818383 249.07105493 131.52589417 249.0705719 C128.72665785 249.07714402 125.93095027 249.13168347 123.13233948 249.18849182 C121.3484974 249.19729288 119.56463853 249.20324777 117.78077698 249.20606995 C116.9473175 249.2276265 116.11385803 249.24918304 115.25514221 249.27139282 C110.99587409 249.22126931 109.25098773 248.95884992 105.89015198 246.1565094 C102.85350458 241.75020953 101.45055318 236.6240234 99.90577698 231.5537262 C99.56957336 230.49036041 99.23336975 229.42699463 98.88697815 228.33140564 C97.81750426 224.93814774 96.76762731 221.53919194 95.71827698 218.1396637 C95.01383632 215.8931655 94.30811883 213.64706726 93.60108948 211.40138245 C91.38374076 204.34466154 89.19190066 197.28014705 87.00666809 190.21342468 C83.50300032 178.88784647 79.82730194 167.6225664 76.12944031 156.35917664 C70.26560035 138.49305641 64.47986184 120.60683372 58.9052887 102.64820862 C58.69350479 101.96759369 58.48172089 101.28697876 58.26351929 100.58573914 C57.70314977 98.78337509 57.14529959 96.98022829 56.58766174 95.17701721 C55.811344 92.57790037 55.811344 92.57790037 54.71827698 90.5146637 C54.05827698 90.5146637 53.39827698 90.5146637 52.71827698 90.5146637 C52.71404504 91.31164862 52.7098131 92.10863354 52.70545292 92.92976952 C52.60226109 112.29971729 52.49364071 131.6696276 52.37893772 151.03951073 C52.32360047 160.40654109 52.27011765 169.77357525 52.22096252 179.14064026 C52.17812683 187.30257689 52.13185041 195.46448542 52.08139843 203.62637866 C52.05479253 207.95018866 52.02993934 212.27399307 52.00920296 216.59783554 C51.98964809 220.66399897 51.96550779 224.73010889 51.9377861 228.79622459 C51.92840956 230.29182783 51.92073646 231.78744282 51.91485786 233.28306389 C51.90660703 235.31865112 51.89174132 237.35420839 51.87649536 239.38975525 C51.87004281 240.53093496 51.86359026 241.67211468 51.85694218 242.8478756 C51.71827698 245.5146637 51.71827698 245.5146637 50.71827698 247.5146637 C47.82369676 248.47952377 45.96932307 248.64640758 42.95899963 248.65992737 C41.99434784 248.66630722 41.02969604 248.67268707 40.03581238 248.67926025 C38.99516632 248.68037308 37.95452026 248.6814859 36.88233948 248.68263245 C35.81083649 248.68596085 34.7393335 248.68928925 33.63536072 248.69271851 C31.36743092 248.69778366 29.09949367 248.70012696 26.83155823 248.69996643 C23.36398509 248.70215065 19.89673121 248.7203047 16.42921448 248.73927307 C14.22609057 248.74220753 12.02296514 248.74419197 9.81983948 248.74513245 C8.26494308 248.75591072 8.26494308 248.75591072 6.67863464 248.76690674 C5.22220047 248.76229179 5.22220047 248.76229179 3.73634338 248.75758362 C2.88601532 248.75900864 2.03568726 248.76043365 1.15959167 248.76190186 C-1.70043321 248.47225985 -3.74306047 247.87090861 -6.28172302 246.5146637 C-8.02043557 243.71824867 -8.5325926 241.58394249 -8.53899193 238.31671143 C-8.54544082 237.48216588 -8.55188971 236.64762033 -8.55853403 235.78778553 C-8.55543682 234.87611968 -8.55233962 233.96445383 -8.54914856 233.02516174 C-8.55367967 232.05268085 -8.55821079 231.08019995 -8.5628792 230.07824993 C-8.57556665 226.81091283 -8.57390004 223.54374149 -8.57225037 220.27638245 C-8.5782328 217.93748255 -8.58503768 215.59858463 -8.59260559 213.25968933 C-8.61029935 206.90034577 -8.61496233 200.54105601 -8.61623716 194.18169022 C-8.61789516 189.54615771 -8.623691 184.91063725 -8.62991012 180.27510899 C-8.64652028 167.81416057 -8.65399444 155.35324074 -8.65257065 142.89228165 C-8.65249074 142.18468921 -8.65241083 141.47709677 -8.65232849 140.74806213 C-8.65224673 140.03960707 -8.65216497 139.331152 -8.65208073 138.60122859 C-8.65126738 127.11311136 -8.6704178 115.62512508 -8.69860522 104.13704574 C-8.72731276 92.34408102 -8.74114677 80.55118023 -8.73941767 68.75817966 C-8.73875314 62.13605436 -8.74466061 55.51404988 -8.76577377 48.89195251 C-8.78507857 42.66702952 -8.78533384 36.44239745 -8.77074051 30.21746445 C-8.76864182 27.92930555 -8.77341588 25.6411288 -8.78546143 23.35300064 C-8.80080953 20.23637581 -8.79167475 17.12076729 -8.77619934 14.00416565 C-8.78648647 13.0924998 -8.79677359 12.18083395 -8.80737245 11.24154186 C-8.74057968 5.18108491 -8.74057968 5.18108491 -6.51842594 1.95373631 C-4.07792262 0.38354053 -2.8724607 0.01097532 0 0 Z " fill="#FEDE2A" transform="translate(216.28172302246094,264.48533630371094)"/>
<path d="M0 0 C33 0 66 0 100 0 C108.11619396 23.76885374 116.22107007 47.51579151 123.99938965 71.39306641 C125.28568871 75.33955741 126.57583804 79.28479142 127.86543846 83.23020458 C128.86345385 86.28371638 129.86078383 89.33744733 130.8565979 92.39167786 C131.55945996 94.54630318 132.2651214 96.70001787 132.97393799 98.85269165 C133.68096326 101.02139737 134.37171943 103.19545201 135.04901123 105.37362671 C135.38910217 106.44811066 135.72919312 107.5225946 136.07958984 108.62963867 C136.37747406 109.59060959 136.67535828 110.55158051 136.98226929 111.54167175 C138.0276172 114.06670935 138.81617645 115.37750418 141 117 C145.48764409 117.57894751 145.48764409 117.57894751 149.546875 115.9609375 C151.72934308 113.01577896 152.66371189 109.70711938 153.75 106.25 C154.00458984 105.46286621 154.25917969 104.67573242 154.52148438 103.86474609 C157.81058821 93.61715686 160.90851321 83.30853408 164 73 C164.38671875 71.71174316 164.38671875 71.71174316 164.78125 70.39746094 C165.76604314 67.11609943 166.75017826 63.8345428 167.73266602 60.55249023 C169.905277 53.29922379 172.1040996 46.0540526 174.31542969 38.8125 C175.8548322 33.77074416 177.38382315 28.72621733 178.89453125 23.67578125 C179.20527588 22.64171143 179.51602051 21.6076416 179.83618164 20.54223633 C180.42847765 18.57039542 181.01770139 16.59762802 181.60327148 14.6237793 C181.87341064 13.72699463 182.1435498 12.83020996 182.421875 11.90625 C182.65487305 11.12572266 182.88787109 10.34519531 183.12792969 9.54101562 C184.24208507 6.29461886 185.64796509 3.15474813 187 0 C220 0 253 0 287 0 C287 80.19 287 160.38 287 243 C265.55 243 244.1 243 222 243 C221.97494385 238.10824951 221.9498877 233.21649902 221.92407227 228.17651367 C221.84074333 212.04728532 221.75208886 195.91808953 221.66066074 179.78890514 C221.60533744 170.00601083 221.55185689 160.22311287 221.50268555 150.44018555 C221.45983279 141.91530241 221.41355201 133.39044603 221.36312145 124.86560422 C221.33652933 120.35005459 221.31167645 115.83451024 221.29092598 111.31892967 C221.27135307 107.0713733 221.24720728 102.82386781 221.21950912 98.57635689 C221.21014217 97.01505837 221.2024656 95.45374869 221.19658089 93.89243317 C221.18831368 91.76520278 221.1740353 89.6380957 221.15821838 87.51091003 C221.15176583 86.31903171 221.14531328 85.12715338 221.1386652 83.89915752 C221.12779413 80.93247662 221.12779413 80.93247662 220 78 C218.4201072 77.83718662 216.83534259 77.72122021 215.25 77.625 C214.36828125 77.55539062 213.4865625 77.48578125 212.578125 77.4140625 C209.78888045 77.77148789 209.78888045 77.77148789 208.07861328 80.33325195 C205.19048169 84.93588379 203.77482013 90.10212281 202.1640625 95.25390625 C201.80838196 96.36562698 201.45270142 97.47734772 201.08624268 98.62275696 C199.92324425 102.26646665 198.77397308 105.91434583 197.625 109.5625 C196.81464793 112.11171124 196.003607 114.66069515 195.19189453 117.20947266 C189.78940204 134.19530049 184.48562997 151.21213818 179.21411133 168.23901367 C174.9986309 181.84650669 170.71706333 195.43232677 166.38751221 209.00396729 C165.67776026 211.22961367 164.96919932 213.45564025 164.26190186 215.68206787 C163.27844909 218.77618281 162.29032291 221.86876529 161.30078125 224.9609375 C161.01077744 225.87548706 160.72077362 226.79003662 160.42198181 227.7322998 C156.23204979 240.76795021 156.23204979 240.76795021 154 243 C151.1883662 243.08861992 148.40141745 243.11522355 145.58984375 243.09765625 C144.74780899 243.0962413 143.90577423 243.09482635 143.03822327 243.09336853 C140.33794665 243.08775263 137.63775172 243.07519748 134.9375 243.0625 C133.11132932 243.05748705 131.28515734 243.05292379 129.45898438 243.04882812 C124.97262458 243.03777804 120.48632616 243.02050279 116 243 C105.86486028 213.00478265 96.17903836 182.86537641 86.48583984 152.7253418 C83.47768702 143.37268178 80.46154963 134.02259659 77.44293213 124.67330933 C75.49804033 118.6486035 73.55711444 112.62273887 71.63064575 106.59211731 C70.63850851 103.49574461 69.63087212 100.40443338 68.625 97.3125 C68.22667969 96.05501953 67.82835937 94.79753906 67.41796875 93.50195312 C67.02480469 92.30119141 66.63164063 91.10042969 66.2265625 89.86328125 C65.89221191 88.82469971 65.55786133 87.78611816 65.21337891 86.71606445 C63.87668798 83.7239746 62.53953744 82.05525496 60 80 C56.95746492 79.41654524 56.95746492 79.41654524 54 80 C51.96332385 81.54506466 51.13926922 82.72146156 50 85 C49.89383817 87.07755802 49.85332017 89.15856339 49.84178162 91.23880005 C49.83684364 91.88571017 49.83190566 92.53262029 49.82681805 93.19913375 C49.81140586 95.37640552 49.80307242 97.55364772 49.79467773 99.73095703 C49.78510213 101.28788515 49.77509224 102.84481065 49.76467896 104.4017334 C49.73758939 108.63700038 49.71660181 112.87227854 49.69667697 117.10758448 C49.67484236 121.53055529 49.64744134 125.95349145 49.62062073 130.37643433 C49.57065963 138.75576665 49.5257335 147.13511816 49.48259836 155.5144881 C49.43325516 165.05246534 49.37832623 174.59040781 49.32291877 184.12835145 C49.20904627 203.7522035 49.10295619 223.37608743 49 243 C32.83 243 16.66 243 0 243 C0 162.81 0 82.62 0 0 Z " fill="#000000" transform="translate(587,553)"/>
<path d="M0 0 C1.57390755 -0.01475121 1.57390755 -0.01475121 3.17961121 -0.02980042 C4.3259906 -0.02013245 5.47237 -0.01046448 6.65348816 -0.00050354 C7.86558456 -0.00590652 9.07768097 -0.01130951 10.32650757 -0.01687622 C13.65451487 -0.02725121 16.98152986 -0.0196361 20.30945039 -0.00316501 C23.81408182 0.01073407 27.31868465 0.00421765 30.82333374 0.0007019 C36.72904183 -0.00200318 42.63454715 0.0114776 48.54020691 0.03465271 C55.30753179 0.06103051 62.0745127 0.06308605 68.84187108 0.05126435 C75.39750998 0.04034959 81.95302797 0.04679414 88.50865746 0.06081963 C91.27239122 0.06648617 94.03603371 0.06657173 96.79976845 0.06175423 C131.898011 0.03506528 168.41197531 2.60389334 194.81437683 28.50120544 C195.38027527 29.04261169 195.94617371 29.58401794 196.52922058 30.14183044 C207.15098683 41.29891117 211.32329413 57.40491353 211.16838074 72.40989685 C210.5021111 92.11919218 202.84582818 109.67594567 189.47453308 124.07933044 C182.49218513 130.43624047 173.98468084 134.86512963 165.81437683 139.50120544 C166.39737425 144.21728626 167.78554425 148.19576285 169.74406433 152.48558044 C170.19740143 153.50067184 170.19740143 153.50067184 170.65989685 154.53627014 C171.66302275 156.77765628 172.67613885 159.01437459 173.68937683 161.25120544 C174.39942317 162.83249094 175.10888374 164.41403957 175.8177948 165.99583435 C178.13955038 171.16902432 180.47618529 176.33542802 182.81437683 181.50120544 C183.6549045 183.35958901 184.49539887 185.21798764 185.33586121 187.07640076 C186.18803532 188.96020766 187.04024895 190.84399668 187.89250183 192.72776794 C188.31399506 193.65943787 188.73548828 194.59110779 189.16975403 195.55101013 C191.22339943 200.08907352 193.27951453 204.625983 195.3412323 209.16038513 C197.51091359 213.93531417 199.66936951 218.71514092 201.81437683 223.50120544 C202.12974396 224.20399628 202.44511108 224.90678711 202.77003479 225.63087463 C203.63246065 227.5621893 204.48520553 229.4974215 205.33390808 231.43479919 C205.80417419 232.50270691 206.27444031 233.57061462 206.75895691 234.67088318 C208.24212734 238.64830507 208.52428066 241.32066069 207.81437683 245.50120544 C206.70289612 247.1829834 206.70289612 247.1829834 204.81437683 248.50120544 C201.79182434 248.8888855 201.79182434 248.8888855 198.03556824 248.90525818 C197.35065811 248.91212143 196.66574799 248.91898468 195.96008301 248.92605591 C193.69515771 248.94436192 191.43092277 248.94048062 189.16593933 248.93479919 C187.59036534 248.93935992 186.01479334 248.94466517 184.43922424 248.95068359 C181.13548203 248.95962267 177.83198142 248.95718351 174.52824402 248.94725037 C170.29896347 248.93577239 166.0705193 248.95594932 161.84134865 248.9851675 C158.58646869 249.00353669 155.33178876 249.00323545 152.07686996 248.99752998 C150.51798201 248.99737679 148.95908048 249.00341992 147.40024185 249.01582146 C145.21695714 249.0307404 143.03521182 249.02004944 140.85197449 249.00291443 C139.61081879 249.00274826 138.36966309 249.00258209 137.09089661 249.00241089 C133.1733369 248.40314631 131.56926004 247.30919632 128.81437683 244.50120544 C127.6686554 242.54974365 127.6686554 242.54974365 126.92424011 240.4750824 C126.63214661 239.68532013 126.3400531 238.89555786 126.03910828 238.0818634 C125.5914209 236.79863693 125.5914209 236.79863693 125.13468933 235.48948669 C124.80481018 234.58437347 124.47493103 233.67926025 124.13505554 232.74671936 C123.05537108 229.774055 121.99758685 226.79407401 120.93937683 223.81370544 C120.19404398 221.75201895 119.44711817 219.69090768 118.69865417 217.63035583 C117.15744075 213.38024002 115.62467113 209.12723341 114.09953308 204.87132263 C110.90009566 195.94437554 107.66319042 187.03117317 104.41490173 178.12190247 C103.45411257 175.47923632 102.5011349 172.8338539 101.54924011 170.18797302 C100.96335038 168.57225539 100.37726138 166.95661 99.79093933 165.34104919 C99.53228088 164.61600189 99.27362244 163.89095459 99.00712585 163.14393616 C96.78019735 156.25275962 96.78019735 156.25275962 91.81437683 151.50120544 C90.00095841 151.4164918 88.18443523 151.39399461 86.36906433 151.40354919 C84.75451355 151.40838318 84.75451355 151.40838318 83.10734558 151.41331482 C81.97941589 151.42169373 80.85148621 151.43007263 79.68937683 151.43870544 C78.55371277 151.44321716 77.41804871 151.44772888 76.24797058 151.45237732 C73.43672045 151.46418929 70.62557453 151.48066037 67.81437683 151.50120544 C67.8107312 152.63015732 67.80708557 153.75910919 67.80332947 154.92227173 C67.76639111 165.56065947 67.70863103 176.19875743 67.63047409 186.83692455 C67.59096193 192.30616648 67.55879172 197.77524649 67.54338074 203.24461365 C67.5282389 208.52270896 67.49383708 213.80035926 67.44606781 219.07825661 C67.43122852 221.09204046 67.42333436 223.10588783 67.42249298 225.11972618 C67.42012926 227.94032127 67.39309755 230.75968058 67.36027527 233.58006287 C67.36782082 234.82947411 67.36782082 234.82947411 67.3755188 236.10412598 C67.30518755 240.00953404 67.07079349 242.07074854 65.03025818 245.49627686 C61.15287074 249.00453552 57.6397861 248.63540946 52.54875183 248.69407654 C51.2806366 248.71013947 50.01252136 248.72620239 48.70597839 248.74275208 C47.32545138 248.75423604 45.94491684 248.76484516 44.56437683 248.77464294 C43.51824219 248.78262846 43.51824219 248.78262846 42.45097351 248.7907753 C38.76352541 248.81744111 35.07611048 248.83684183 31.38859558 248.8513031 C28.33881324 248.86467076 25.28969551 248.89258257 22.24015808 248.93333435 C18.55260215 248.98260356 14.86565117 249.00741542 11.17778015 249.01453018 C9.77431116 249.02124587 8.37085586 249.0364766 6.96757507 249.06042099 C5.00528821 249.09200973 3.04253798 249.08911226 1.08000183 249.08470154 C-0.03600403 249.09278839 -1.15200989 249.10087524 -2.30183411 249.10920715 C-5.18562317 248.50120544 -5.18562317 248.50120544 -7.33411407 246.56618786 C-9.92471561 242.27771411 -9.74168233 238.77572816 -9.69355774 233.85348511 C-9.6997977 232.87606623 -9.70603766 231.89864736 -9.71246672 230.89160973 C-9.72843354 227.61336244 -9.7157777 224.33585486 -9.70320129 221.05760193 C-9.70862071 218.70870021 -9.71574236 216.35980189 -9.72444153 214.01091003 C-9.742698 207.62882512 -9.73559784 201.24699845 -9.72292519 194.86490893 C-9.71383558 188.868356 -9.72076753 182.87182691 -9.72663397 176.87527467 C-9.73803904 164.27604992 -9.72492679 151.67694162 -9.7034325 139.07773597 C-9.6855574 128.26513952 -9.68866908 117.45271482 -9.70710754 106.64012146 C-9.72850846 94.08441355 -9.73694477 81.52880763 -9.72465849 68.97308403 C-9.71833118 62.32639733 -9.71761295 55.67980643 -9.73080444 49.03312492 C-9.74233661 42.78600121 -9.73438509 36.53920274 -9.71122742 30.29211426 C-9.7059265 27.99590152 -9.70747757 25.69966154 -9.71627808 23.40345955 C-9.72716211 20.27591424 -9.71355586 17.14941995 -9.69355774 14.02194214 C-9.70248063 13.10706746 -9.71140351 12.19219278 -9.72059679 11.24959463 C-9.67268858 7.4034666 -9.64431201 5.18984415 -7.47797871 1.93748474 C-4.74743843 0.22666004 -3.21024015 0.00073801 0 0 Z " fill="#FDDE2A" transform="translate(543.1856231689453,264.49879455566406)"/>
<path d="M0 0 C0.72392441 -0.00511093 1.44784882 -0.01022186 2.19371033 -0.01548767 C4.58837132 -0.02939474 6.98274481 -0.02842588 9.37744141 -0.02612305 C11.04269518 -0.03000984 12.70794797 -0.03434447 14.37319946 -0.03910828 C17.86520601 -0.04657321 21.35711147 -0.04627759 24.84912109 -0.04101562 C29.320384 -0.03522554 33.79123205 -0.0521393 38.26242638 -0.0753603 C41.70256971 -0.09010634 45.1426134 -0.09096808 48.58278275 -0.08785057 C50.23098191 -0.08836351 51.87918669 -0.09359613 53.52735519 -0.10366249 C55.83491539 -0.11602448 58.14167105 -0.10923688 60.44921875 -0.09765625 C61.76143402 -0.09828568 63.07364929 -0.0989151 64.42562866 -0.0995636 C68.98505807 0.3981176 71.60431829 1.84644607 74.60400391 5.2746582 C76.53715527 8.36770038 76.97944728 10.90209817 76.98543167 14.46612167 C76.98927282 15.32469324 76.99311396 16.1832648 76.9970715 17.06785369 C76.99620502 18.01151361 76.99533854 18.95517353 76.9944458 19.9274292 C76.99741692 20.92960739 77.00038805 21.93178559 77.0034492 22.96433282 C77.0121534 26.33829078 77.01364591 29.71221333 77.01513672 33.08618164 C77.01976368 35.4988818 77.02478818 37.91158122 77.03018188 40.32427979 C77.0433198 46.8904776 77.04979018 53.45666804 77.05419254 60.02287579 C77.05695504 64.12308316 77.06119243 68.22328818 77.06569672 72.32349396 C77.07788993 83.67620063 77.08818886 95.02890542 77.09157181 106.3816185 C77.09190116 107.47161761 77.09190116 107.47161761 77.09223716 108.58363689 C77.09256458 109.67624393 77.09256458 109.67624393 77.09289861 110.79092383 C77.09334207 112.26694727 77.09378864 113.74297071 77.09423828 115.21899414 C77.09445971 115.9511527 77.09468114 116.68331125 77.09490928 117.43765643 C77.09885652 129.2988412 77.11630804 141.1599645 77.1395978 153.02112553 C77.16331714 165.19940039 77.17577394 177.37764443 77.17693973 189.55594277 C77.17785621 196.39334475 77.1836016 203.23066666 77.20175934 210.06804657 C77.21877949 216.49973883 77.22040855 222.93131967 77.21162033 229.36302948 C77.21084851 231.72410488 77.21521174 234.08518837 77.22507858 236.44624329 C77.23775687 239.66899501 77.23194329 242.89120486 77.22149658 246.11395264 C77.23358119 247.51605818 77.23358119 247.51605818 77.24590993 248.9464891 C77.19574684 255.56149435 76.41245467 260.71620744 71.54150391 265.5871582 C66.57777849 268.70391602 62.04702744 269.52618991 56.24121094 269.56518555 C54.94611603 269.57794525 53.65102112 269.59070496 52.31668091 269.60385132 C50.91506094 269.60690923 49.51343895 269.60913685 48.11181641 269.6105957 C46.65981925 269.61703083 45.20782336 269.62375972 43.75582886 269.63076782 C40.71804805 269.64271334 37.68038074 269.64645144 34.64257812 269.64526367 C30.76680828 269.64506056 26.89177232 269.6723659 23.01617622 269.70680809 C20.01855178 269.72914082 17.02110225 269.73309929 14.02340317 269.73204422 C12.59537094 269.73439047 11.16733318 269.74315861 9.7393837 269.75870895 C-6.29115647 269.9169522 -6.29115647 269.9169522 -11.14599609 265.2746582 C-15.21801031 259.45059881 -15.72215999 255.08016263 -15.66065979 248.07167053 C-15.66760532 247.0586131 -15.67455085 246.04555567 -15.68170685 245.00179952 C-15.69997063 241.61474382 -15.68971386 238.228389 -15.67944336 234.84130859 C-15.6865021 232.40993221 -15.69524693 229.97856023 -15.70555115 227.54719543 C-15.72572265 221.63315491 -15.72707136 215.71929182 -15.7189256 209.80523903 C-15.7126188 204.99710313 -15.71376885 200.1890233 -15.72019768 195.38088799 C-15.72109933 194.69585661 -15.72200099 194.01082524 -15.72292997 193.30503533 C-15.72478122 191.91327591 -15.72664378 190.5215165 -15.72851752 189.1297571 C-15.74508647 176.08642185 -15.73638461 163.04319485 -15.71953195 149.99986612 C-15.70483662 138.07487954 -15.7194625 126.15014496 -15.74830211 114.22519083 C-15.77771641 101.97104862 -15.78866243 89.71702265 -15.77911991 77.4628467 C-15.77809739 76.07597921 -15.77710278 74.68911171 -15.7761364 73.30224419 C-15.77566001 72.61993545 -15.77518362 71.93762672 -15.77469279 71.23464196 C-15.77253129 66.43475992 -15.78231864 61.63498826 -15.79690742 56.83513069 C-15.81628517 50.36963873 -15.80931649 43.9045007 -15.78470802 37.43902397 C-15.77969731 35.06708383 -15.78319654 32.69510806 -15.79585648 30.32319641 C-15.81178113 27.08313526 -15.79683976 23.84461791 -15.77418518 20.60462952 C-15.78602091 19.66775191 -15.79785664 18.7308743 -15.81005102 17.76560646 C-15.72090654 11.48278683 -14.29524416 7.08527456 -10.14599609 2.2746582 C-6.41165399 -0.2149032 -4.46367482 0.01569168 0 0 Z " fill="#020200" transform="translate(474.14599609375,539.725341796875)"/>
<path d="M0 0 C1.044478 -0.00686325 2.08895599 -0.0137265 3.16508484 -0.02079773 C6.61548481 -0.03908931 10.06543112 -0.03522472 13.51586914 -0.02954102 C15.91573739 -0.03410166 18.31560433 -0.03940689 20.71546936 -0.04542542 C25.74493719 -0.05436118 30.77424628 -0.05192797 35.80371094 -0.04199219 C42.24782849 -0.03050208 48.69139812 -0.05071291 55.13544369 -0.07990932 C60.09143045 -0.0982583 65.0472856 -0.09798141 70.00329781 -0.0922718 C72.37914359 -0.09211843 74.7549982 -0.0981759 77.13081169 -0.11056328 C80.45344254 -0.12544622 83.77505713 -0.11481495 87.09765625 -0.09765625 C88.07810913 -0.10732422 89.05856201 -0.11699219 90.06872559 -0.12695312 C95.75536883 -0.0654822 99.14089113 0.53570886 103.61352539 4.40405273 C106.68257627 8.32754191 108.42499791 12.11071139 109.96118164 16.82592773 C110.17046799 17.45954224 110.37975433 18.09315674 110.59538269 18.74597168 C111.29760599 20.87926156 111.98671928 23.0165574 112.67602539 25.15405273 C113.17682211 26.68394736 113.67847872 28.21356073 114.1809082 29.74291992 C115.3258524 33.23377864 116.46482568 36.72652237 117.6003418 40.22045898 C119.7114486 46.71223567 121.83937434 53.19847244 123.96842766 59.68437958 C128.86049395 74.58755115 133.74004914 89.49479099 138.61352539 104.40405273 C140.51022952 100.9474596 141.6210702 97.40902503 142.76489258 93.64208984 C142.97012543 92.96976822 143.17535828 92.29744659 143.3868103 91.60475159 C144.06466685 89.3812973 144.73750108 87.15635553 145.41040039 84.93139648 C145.88607424 83.3682693 146.36209334 81.80524714 146.83843994 80.24232483 C148.09520311 76.11595243 149.34786045 71.98834545 150.5994873 67.8604126 C151.85220627 63.73048299 153.10778824 59.60142484 154.36352539 55.47241211 C154.72925219 54.26962427 154.72925219 54.26962427 155.1023674 53.04253769 C156.98742623 46.84456308 158.87735431 40.64808131 160.7703743 34.45253372 C162.03291058 30.31776346 163.28227681 26.17931258 164.52270508 22.0378418 C165.04210686 20.33034656 165.56191182 18.62297386 166.08227539 16.91577148 C166.2939032 16.19405258 166.50553101 15.47233368 166.72357178 14.72874451 C168.42383776 9.21801671 171.04387699 4.96084092 175.61352539 1.40405273 C177.95439976 0.23361555 179.34274459 0.27092084 181.95172119 0.25688171 C182.86294235 0.24972641 183.77416351 0.24257111 184.71299744 0.23519897 C185.71561111 0.23251007 186.71822479 0.22982117 187.7512207 0.22705078 C188.80501419 0.22047958 189.85880768 0.21390839 190.9445343 0.20713806 C194.44357366 0.18737334 197.94257004 0.17573524 201.44165039 0.16577148 C202.63487663 0.16169596 203.82810287 0.15762043 205.05748749 0.1534214 C211.3732028 0.13254691 217.6888963 0.11825127 224.00463867 0.10888672 C230.53286476 0.09782072 237.06075014 0.06342212 243.58885574 0.02371502 C248.60401041 -0.0024142 253.61908348 -0.01080187 258.63430023 -0.01439476 C261.04086355 -0.01927042 263.44742299 -0.03091208 265.85391998 -0.04943275 C269.22230613 -0.07374424 272.58980518 -0.07287331 275.95825195 -0.06591797 C276.95276871 -0.07872803 277.94728546 -0.09153809 278.97193909 -0.10473633 C284.64814517 -0.06201056 288.27085704 0.36435575 292.61352539 4.40405273 C296.05027396 9.70883199 296.04049048 14.30414441 296.00120544 20.41085815 C296.00928375 21.91691201 296.00928375 21.91691201 296.01752526 23.45339119 C296.03182609 26.81581342 296.02469568 30.17784314 296.01757812 33.5402832 C296.02328059 35.95180579 296.03024437 38.36332568 296.03837585 40.77484131 C296.05447123 46.64420857 296.05640489 52.51347697 296.05116295 58.38285457 C296.04711871 63.15477465 296.04856782 67.92666312 296.05391121 72.6985817 C296.05465963 73.37819784 296.05540805 74.05781398 296.05617915 74.75802455 C296.05771066 76.1387515 296.05924901 77.51947845 296.06079412 78.90020539 C296.07451752 91.84432483 296.06908282 104.78838382 296.05760891 117.73250188 C296.04767873 129.56698602 296.06061369 141.40131377 296.0845431 153.23577379 C296.10894334 165.39495207 296.11853958 177.55405754 296.11189038 189.71325982 C296.10839993 196.53668841 296.11061846 203.35999677 296.1281414 210.18340683 C296.14441656 216.60041348 296.13966726 223.01719515 296.12083626 229.43419647 C296.11714715 231.78839943 296.12026816 234.14262446 296.13072205 236.4968071 C296.14391106 239.71264289 296.13240186 242.92748682 296.11473083 246.14328003 C296.12433584 247.07305786 296.13394085 248.00283569 296.14383692 248.96078861 C296.07716117 254.86552395 295.06878173 259.51617446 291.61352539 264.40405273 C286.16020319 268.83487702 282.07720387 269.52415557 275.21191406 269.56518555 C273.9134404 269.57479309 272.61496674 269.58440063 271.27714539 269.59429932 C269.8619301 269.59914786 268.44671276 269.60342655 267.03149414 269.60717773 C265.57424418 269.61293426 264.11699422 269.61869192 262.65974426 269.62445068 C259.60584156 269.63494448 256.55196506 269.64079763 253.49804688 269.64428711 C249.59760825 269.64976625 245.69751968 269.6737884 241.79719067 269.70225906 C238.78675852 269.72094502 235.77640968 269.72609421 232.76592445 269.72762299 C231.32869874 269.73063699 229.89147405 269.73862296 228.45430565 269.75180817 C213.41356243 269.87994162 213.41356243 269.87994162 206.80102539 265.09155273 C202.66679333 259.21659138 203.30768789 252.19343584 203.29467773 245.34008789 C203.2796093 243.52460953 203.2796093 243.52460953 203.26423645 241.67245483 C203.23870408 238.36709314 203.22181287 235.0619019 203.20880842 231.75648165 C203.19314001 228.29710833 203.16636169 224.83782115 203.14077759 221.37850952 C203.09405531 214.83387108 203.0572796 208.28921631 203.02410471 201.7444967 C202.98583692 194.29099988 202.93643902 186.8375897 202.88612056 179.384166 C202.7828982 164.05752428 202.6936064 148.7308339 202.61352539 133.40405273 C201.32257282 137.43120824 200.03243084 141.458623 198.74243164 145.48608398 C198.37815063 146.62243286 198.01386963 147.75878174 197.6385498 148.92956543 C195.9159237 154.30897712 194.19813003 159.68850631 192.55102539 165.09155273 C188.99898295 176.74039059 185.24233005 188.32711401 181.52368164 199.92358398 C177.47943904 212.48933909 177.47943904 212.48933909 173.55102539 225.09155273 C171.76515693 230.93332689 169.94769055 236.76478498 168.11352539 242.59155273 C167.82856201 243.50702881 167.54359863 244.42250488 167.25 245.36572266 C161.3460242 264.04844367 161.3460242 264.04844367 155.61352539 267.40405273 C150.8724047 269.8677792 146.36556572 269.71027372 141.14868164 269.70483398 C140.23775253 269.70911911 139.32682343 269.71340424 138.38829041 269.71781921 C136.46606272 269.72354971 134.54381335 269.72407222 132.62158203 269.71972656 C129.68948176 269.71656723 126.75839164 269.74003946 123.82641602 269.76538086 C121.95467249 269.76765413 120.08292627 269.76835722 118.21118164 269.76733398 C116.90311302 269.78114861 116.90311302 269.78114861 115.56861877 269.79524231 C110.4967939 269.75691633 107.0090066 269.21335692 102.61352539 266.40405273 C95.42542566 258.87486567 93.21395557 247.35556926 90.41845703 237.56323242 C89.28615805 233.61420069 88.06870446 229.7494657 86.61352539 225.90405273 C84.98849991 221.58354849 83.63940559 217.21269747 82.36352539 212.77905273 C76.85120615 193.71021218 70.47551362 174.89250357 64.32836914 156.02124023 C63.67466716 154.01400243 63.02098053 152.00675963 62.36730957 149.99951172 C60.78289152 145.13430116 59.19826667 140.26915801 57.61352539 135.40405273 C57.61205883 136.04273851 57.61059227 136.68142429 57.60908127 137.33946419 C57.57201 152.88882784 57.5129913 168.43793048 57.42962265 183.98710823 C57.38983374 191.50662717 57.35744056 199.02604148 57.3425293 206.5456543 C57.32951193 213.10069029 57.30254538 219.65549605 57.25891232 226.21040237 C57.23629904 229.68039683 57.2206146 233.15010735 57.22164154 236.62018204 C57.22252709 240.49645548 57.19226638 244.37214943 57.15942383 248.24829102 C57.16696938 249.96919701 57.16696938 249.96919701 57.17466736 251.72486877 C57.09348902 257.90984738 56.82158116 261.73199289 52.61352539 266.40405273 C47.16840363 270.43589608 40.99375707 269.87163958 34.49633789 269.87280273 C33.32521454 269.88041626 32.15409119 269.88802979 30.94747925 269.89587402 C28.47469205 269.90666045 26.00185935 269.90953408 23.52905273 269.9050293 C19.75825496 269.90405782 15.98949796 269.94568349 12.21899414 269.98999023 C9.81144628 269.99519821 7.40389138 269.99788541 4.99633789 269.99780273 C3.87526642 270.014198 2.75419495 270.03059326 1.59915161 270.04748535 C-4.30934456 269.99567267 -8.6377626 269.41608556 -13.68118286 266.25817871 C-19.13697941 260.32621187 -19.96951534 253.97663991 -19.89440918 246.19470215 C-19.90064914 245.19304095 -19.9068891 244.19137975 -19.91331816 243.15936518 C-19.9292201 239.81685718 -19.91665441 236.47508124 -19.90405273 233.13256836 C-19.90947507 230.73060176 -19.91659835 228.3286385 -19.92529297 225.92668152 C-19.94162472 220.08829101 -19.93925405 214.25013149 -19.92764241 208.41173398 C-19.91859444 203.6651226 -19.91738996 198.91856883 -19.92173767 194.17195129 C-19.92265707 193.15709659 -19.92265707 193.15709659 -19.92359504 192.12173977 C-19.92487399 190.74713288 -19.92617085 189.372526 -19.92748541 187.99791914 C-19.9388809 175.12005535 -19.92579374 162.24230561 -19.90428394 149.36446053 C-19.88641386 138.32405266 -19.88951826 127.28381304 -19.90795898 116.2434082 C-19.92938397 103.41040132 -19.93778236 90.5774943 -19.92550993 77.74447203 C-19.92423579 76.37503276 -19.9229783 75.00559347 -19.92173767 73.63615417 C-19.92112057 72.96243276 -19.92050347 72.28871134 -19.91986766 71.59457412 C-19.91641964 66.85581568 -19.92223127 62.11712079 -19.93165588 57.37837219 C-19.94321742 50.99577114 -19.93518251 44.61348758 -19.91207886 38.23092079 C-19.90679348 35.88962137 -19.90830257 33.5482952 -19.91712952 31.20700645 C-19.92807479 28.00877902 -19.9143325 24.81156627 -19.89440918 21.61340332 C-19.90333207 20.68888068 -19.91225495 19.76435803 -19.92144823 18.81181955 C-19.84966582 12.86313783 -18.72793696 8.38626496 -15.38647461 3.40405273 C-11.04180439 -0.67983818 -5.63363743 -0.02581297 0 0 Z M-5.38647461 13.40405273 C-5.38647461 93.59405273 -5.38647461 173.78405273 -5.38647461 256.40405273 C10.78352539 256.40405273 26.95352539 256.40405273 43.61352539 256.40405273 C43.63334473 251.63871094 43.65316406 246.87336914 43.67358398 241.96362305 C43.74039334 226.24549236 43.81793363 210.52742827 43.90105247 194.80937576 C43.95119991 185.27649799 43.99764258 175.74362892 44.03540039 166.21069336 C44.06831484 157.90295313 44.10814302 149.59527992 44.15631545 141.28761363 C44.18158588 136.88772156 44.20336556 132.48787399 44.21686935 128.08792877 C44.22968476 123.94784419 44.25173353 119.80791216 44.28090858 115.66791153 C44.28998843 114.14735436 44.29567555 112.62677261 44.29773903 111.10618973 C44.30105873 109.03173993 44.31652769 106.95772345 44.33505249 104.88336182 C44.34334863 103.14117308 44.34334863 103.14117308 44.35181236 101.3637886 C44.60764704 98.47053155 45.01132875 96.80177849 46.61352539 94.40405273 C49.4543618 92.98363453 51.46829817 93.08953001 54.61352539 93.40405273 C58.24714245 96.30636219 59.50875723 99.13058362 60.91821289 103.50170898 C61.32861816 104.75338867 61.73902344 106.00506836 62.16186523 107.29467773 C62.60426231 108.68524643 63.04647556 110.07587362 63.48852539 111.46655273 C63.96999748 112.94998721 64.4526142 114.43305058 64.9362793 115.91577148 C65.97325695 119.10135977 67.00305061 122.28914912 68.02758789 125.47875977 C69.57119636 130.280847 71.13667596 135.07558026 72.70727539 139.86889648 C78.16931984 156.55554751 83.57007382 173.26204151 88.96508789 189.97045898 C89.1974754 190.69009701 89.4298629 191.40973503 89.66929245 192.15118027 C92.0014488 199.37327317 94.33301549 206.59555423 96.66139793 213.81886482 C101.2448236 228.03651777 105.84048267 242.24863411 110.61352539 256.40405273 C115.9702917 256.52758563 121.32623065 256.61835846 126.68408203 256.67871094 C128.50682006 256.7038667 130.32945711 256.73799558 132.15185547 256.78125 C134.77084232 256.84185819 137.38849692 256.87025035 140.00805664 256.89233398 C140.8237764 256.91814041 141.63949615 256.94394684 142.47993469 256.97053528 C145.04981575 257.02833038 145.04981575 257.02833038 148.61352539 256.40405273 C152.20428998 252.64314145 153.33872591 246.56507922 154.87133789 241.65405273 C155.17528976 240.69761368 155.47924164 239.74117462 155.79240417 238.75575256 C156.78064251 235.64044255 157.75966209 232.52231985 158.73852539 229.40405273 C159.42577325 227.23128828 160.11352049 225.05868171 160.80175781 222.88623047 C164.5518311 211.03242405 168.24933235 199.16297317 171.90673828 187.28027344 C176.06080798 173.85160342 180.37692689 160.47432361 184.67602539 147.09155273 C185.05779938 145.90175812 185.43957336 144.7119635 185.83291626 143.4861145 C188.04922474 136.5817384 190.27592014 129.6808493 192.5166626 122.78436279 C193.2582056 120.4990767 193.99719261 118.21295989 194.73382568 115.92608643 C195.80984311 112.58940033 196.89592817 109.25615321 197.98461914 105.92358398 C198.30656754 104.91913742 198.62851593 103.91469086 198.96022034 102.87980652 C199.26532028 101.95299576 199.57042023 101.026185 199.88476562 100.07128906 C200.14732651 99.26299149 200.40988739 98.45469391 200.68040466 97.62190247 C201.70629908 95.18354741 202.85233528 93.37669059 204.61352539 91.40405273 C207.09399414 91.01342773 207.09399414 91.01342773 209.80102539 91.15405273 C210.70208008 91.19014648 211.60313477 91.22624023 212.53149414 91.26342773 C213.21856445 91.30983398 213.90563477 91.35624023 214.61352539 91.40405273 C215.73891076 94.78020883 215.75247005 97.35483107 215.77174377 100.91496277 C215.77668175 101.57906153 215.78161973 102.24316028 215.78670734 102.92738324 C215.80208837 105.15682718 215.81044458 107.3862423 215.81884766 109.61572266 C215.82842571 111.21220656 215.83843575 112.80868793 215.84884644 114.40516663 C215.87590948 118.74367735 215.89691147 123.08219898 215.91684842 127.42074752 C215.93869933 131.95315145 215.9660924 136.48552175 215.99290466 141.01789856 C216.04284365 149.60261073 216.08777801 158.18734156 216.13092703 166.77209026 C216.18028909 176.54466839 216.23521104 186.31721277 216.29060662 196.08975828 C216.40444519 216.19449318 216.51054615 236.29925907 216.61352539 256.40405273 C238.06352539 256.40405273 259.51352539 256.40405273 281.61352539 256.40405273 C281.61352539 176.21405273 281.61352539 96.02405273 281.61352539 13.40405273 C248.61352539 13.40405273 215.61352539 13.40405273 181.61352539 13.40405273 C179.57597943 18.15832664 177.86133108 22.50981444 176.36352539 27.40405273 C176.15663086 28.07702393 175.94973633 28.74999512 175.73657227 29.44335938 C175.02500971 31.76242059 174.31943371 34.08326455 173.61352539 36.40405273 C173.04606067 38.25699194 172.47834053 40.10985294 171.91040039 41.96264648 C169.26851441 50.59724425 166.64607043 59.23669927 164.11352539 67.90405273 C161.3493342 77.3617551 158.47416815 86.78505433 155.59008789 96.20678711 C154.54117277 99.64093521 153.49914014 103.07713454 152.45727539 106.51342773 C151.73869825 108.87285539 151.01995173 111.23223146 150.30102539 113.59155273 C149.96353271 114.70844482 149.62604004 115.82533691 149.27832031 116.97607422 C148.80036011 118.53950562 148.80036011 118.53950562 148.31274414 120.13452148 C148.03261475 121.05644287 147.75248535 121.97836426 147.46386719 122.92822266 C145.36952277 129.02605404 145.36952277 129.02605404 142.61352539 130.40405273 C139.23852539 130.77905273 139.23852539 130.77905273 135.61352539 130.40405273 C131.46257221 126.39706325 130.09692356 121.69887653 128.42602539 116.34155273 C128.13055313 115.42567886 127.83508087 114.50980499 127.53065491 113.56617737 C126.5485551 110.51516252 125.58131181 107.4596348 124.61352539 104.40405273 C123.92522564 102.2590435 123.23566389 100.11443886 122.54492188 97.97021484 C121.43710891 94.53024327 120.33031864 91.08996712 119.22740173 87.64842224 C114.8885595 74.1103867 110.4610621 60.60159232 106.02929688 47.09375 C104.9034029 43.66138643 103.78021468 40.22814459 102.65796757 36.79458714 C101.61444008 33.60280666 100.5689003 30.41168604 99.52368164 27.22045898 C98.95134544 25.46760338 98.95134544 25.46760338 98.3674469 23.67933655 C97.84355629 22.08236183 97.84355629 22.08236183 97.30908203 20.453125 C96.85185509 19.05599022 96.85185509 19.05599022 96.38539124 17.63063049 C95.66710769 15.40322918 95.66710769 15.40322918 94.61352539 13.40405273 C61.61352539 13.40405273 28.61352539 13.40405273 -5.38647461 13.40405273 Z " fill="#F6D729" transform="translate(592.386474609375,539.595947265625)"/>
<path d="M0 0 C9.37914427 -0.30191938 18.75660492 -0.5325298 28.13955688 -0.67355824 C32.49729613 -0.74126814 36.85170042 -0.83298339 41.20751953 -0.98071289 C45.41590744 -1.1225401 49.6211017 -1.1997985 53.83169556 -1.23340416 C55.43326128 -1.25732998 57.03466175 -1.30406485 58.63485718 -1.37449074 C63.70601579 -1.58868952 68.13665089 -1.56278062 73 0 C76.82796265 3.91740827 78.80001253 7.97066982 81 13 C81.70460741 14.26311548 82.4233398 15.51875324 83.1706543 16.75708008 C83.71633057 17.75118896 84.26200684 18.74529785 84.82421875 19.76953125 C85.45376465 20.91325195 86.08331055 22.05697266 86.73193359 23.23535156 C87.38385136 24.42770031 88.0357054 25.62008391 88.6875 26.8125 C89.38338604 28.07923358 90.07951685 29.34583273 90.77587891 30.61230469 C94.63352187 37.63629619 98.45235494 44.68062188 102.25170898 51.73632812 C106.60717781 59.82234215 110.99536357 67.87941612 115.625 75.8125 C116.22803955 76.85325684 116.22803955 76.85325684 116.84326172 77.91503906 C119.41312999 82.38231013 119.41312999 82.38231013 123 86 C125.91440699 86.66721536 125.91440699 86.66721536 129 86 C132.89538896 82.61944748 135.37604284 79.04714304 137.875 74.5625 C138.21958252 73.94689209 138.56416504 73.33128418 138.91918945 72.69702148 C141.12876762 68.70839488 143.18396919 64.65904934 145.1875 60.5625 C148.78323786 53.24027018 152.82096407 46.19767766 156.87182617 39.11938477 C161.45611188 31.06647846 165.77209601 22.89396632 169.95385742 14.62524414 C170.41252197 13.72797607 170.87118652 12.83070801 171.34375 11.90625 C171.73755859 11.12572266 172.13136719 10.34519531 172.53710938 9.54101562 C173.01986328 8.70248047 173.50261719 7.86394531 174 7 C174.27668015 6.39328964 174.55336029 5.78657928 174.83842468 5.16148376 C176.03462972 2.95774411 177.03417956 1.5718192 179 0 C183.17510083 -0.98475202 187.25065707 -0.81460242 191.51953125 -0.68359375 C193.34009285 -0.6687368 193.34009285 -0.6687368 195.19743347 -0.65357971 C199.07035629 -0.61442434 202.94043523 -0.52658751 206.8125 -0.4375 C209.43941217 -0.40238821 212.06636881 -0.370449 214.69335938 -0.34179688 C221.12987499 -0.26465774 227.56473435 -0.14755201 234 0 C232.65675957 3.43904023 231.19933389 6.52501044 229.26953125 9.67578125 C228.72184082 10.57337158 228.17415039 11.47096191 227.60986328 12.39575195 C227.0167334 13.35827881 226.42360352 14.32080566 225.8125 15.3125 C225.19101074 16.32723389 224.56952148 17.34196777 223.92919922 18.38745117 C218.91596187 26.55547318 213.84048592 34.6843796 208.74926758 42.80395508 C204.12729885 50.17900695 199.55361847 57.5825781 195 65 C189.86927666 73.35619258 184.7057205 81.69032835 179.5 90 C177.65107668 92.95837591 175.80277644 95.91714035 173.95458984 98.87597656 C172.59023015 101.0566344 171.22364542 103.23575436 169.85400391 105.41308594 C168.01979597 108.32967316 166.19399725 111.25138858 164.37304688 114.17626953 C163.34670348 115.82021459 162.31216013 117.45903147 161.27734375 119.09765625 C160.64570313 120.11472656 160.0140625 121.13179687 159.36328125 122.1796875 C158.80938721 123.06382324 158.25549316 123.94795898 157.68481445 124.85888672 C153.39869558 132.84978736 151.40587266 139.58809868 151.4699707 148.66625977 C151.46123932 149.68048508 151.45250793 150.69471039 151.44351196 151.7396698 C151.41931743 155.05710004 151.42253406 158.37389962 151.42578125 161.69140625 C151.41332795 164.00643467 151.39899147 166.32145365 151.38285828 168.63645935 C151.34495163 174.70392837 151.32966215 180.77123428 151.32006836 186.83880615 C151.30026582 196.58181557 151.24362389 206.32470155 151.19130516 216.06757927 C151.17591643 219.47398331 151.16876229 222.8803257 151.16316223 226.28675842 C151.15615118 228.35726961 151.14905068 230.4277805 151.1418457 232.49829102 C151.14237442 233.4514621 151.14290314 234.40463318 151.14344788 235.38668823 C151.1394397 236.24868332 151.13543152 237.11067841 151.13130188 237.99879456 C151.1300446 238.75181634 151.12878733 239.50483812 151.12749195 240.28067875 C151 242 151 242 150 243 C148.0056827 243.09405142 146.00800457 243.11743249 144.01147461 243.11352539 C142.73022202 243.11344986 141.44896942 243.11337433 140.12889099 243.11329651 C138.72004152 243.10818909 137.31119244 243.10297309 135.90234375 243.09765625 C134.46887766 243.09579202 133.03541093 243.09436814 131.60194397 243.09336853 C127.82240043 243.08954372 124.0428951 243.07971377 120.2633667 243.06866455 C116.40930702 243.05844963 112.55524118 243.05387074 108.70117188 243.04882812 C101.13409713 243.03809146 93.56705391 243.02101549 86 243 C85.99453156 241.17288986 85.99453156 241.17288986 85.98895264 239.30886841 C85.95193745 227.80379945 85.89409329 216.29899654 85.81609726 204.79413033 C85.77666589 198.87999522 85.74445597 192.96600804 85.72900391 187.05175781 C85.71380898 181.33923946 85.67931247 175.62712792 85.63169098 169.91479111 C85.61690652 167.74046244 85.60896068 165.56607569 85.60811615 163.39169693 C85.60573595 160.33507671 85.5785709 157.2795712 85.54589844 154.22314453 C85.5509288 153.33337418 85.55595917 152.44360382 85.56114197 151.52687073 C85.41465959 142.61180396 82.0927531 135.33128496 77.453125 127.8125 C76.78152344 126.71550781 76.10992187 125.61851562 75.41796875 124.48828125 C74.69544262 123.32543997 73.97278282 122.16268174 73.25 121 C72.49017925 119.76475701 71.73107831 118.529071 70.97265625 117.29296875 C69.03064486 114.13161183 67.07994215 110.97572158 65.12670898 107.82128906 C63.3868585 105.00887636 61.65444092 102.19190444 59.921875 99.375 C57.95678018 96.18013616 55.99113732 92.98562713 54.02246094 89.79296875 C49.14679844 81.8828699 44.31513769 73.94699921 39.5 66 C33.97098243 56.87498372 28.4112044 47.77002386 22.8125 38.6875 C17.55387667 30.15111219 12.29540342 21.61468668 7.0625 13.0625 C6.46477783 12.09078857 5.86705566 11.11907715 5.2512207 10.11791992 C4.70554443 9.22435791 4.15986816 8.3307959 3.59765625 7.41015625 C3.11820557 6.62777588 2.63875488 5.84539551 2.14477539 5.03930664 C1 3 1 3 0 0 Z " fill="#000000" transform="translate(197,553)"/>
<path d="M0 0 C0 3.3 0 6.6 0 10 C-78.75304075 16.6684152 -157.50819833 23.31122095 -236.26953709 29.88097835 C-242.55538564 30.40534491 -248.84118053 30.93035125 -255.12695312 31.45562744 C-319.30543475 36.81797777 -319.30543475 36.81797777 -348.53676033 39.13917351 C-350.70752736 39.31171934 -352.87821914 39.48521505 -355.04882622 39.65976143 C-357.96207435 39.89352245 -360.87561813 40.12312096 -363.78930664 40.35131836 C-364.61693827 40.41834143 -365.44456989 40.48536449 -366.29728127 40.55441856 C-367.07071058 40.61400057 -367.8441399 40.67358257 -368.64100647 40.73497009 C-369.62245683 40.81243422 -369.62245683 40.81243422 -370.62373447 40.89146328 C-374.07907641 41.04928717 -377.54105561 41 -381 41 C-381 278.6 -381 516.2 -381 761 C-377.37 761 -373.74 761 -370 761 C-367.68200989 761.12099986 -365.36523629 761.27242095 -363.05215359 761.46572781 C-361.14751816 761.62155556 -361.14751816 761.62155556 -359.20440525 761.78053135 C-357.82876293 761.89766726 -356.45312789 762.0148888 -355.07749939 762.13218689 C-353.59023666 762.25560547 -352.10294071 762.37862417 -350.61561495 762.50128084 C-346.55485938 762.83731748 -342.49459518 763.178989 -338.43439233 763.52163064 C-334.04539879 763.89101041 -329.65596614 764.25510242 -325.2665863 764.61985779 C-316.6784447 765.33435276 -308.09071225 766.05365514 -299.50310533 766.77454489 C-289.49662174 767.61433232 -279.48972044 768.44908975 -269.48279435 769.28358514 C-251.62518815 770.77291127 -233.76793422 772.26641901 -215.91088867 773.76245117 C-198.59371859 775.21324666 -181.27635277 776.66167289 -163.95874023 778.10717773 C-162.89196582 778.1962222 -161.8251914 778.28526666 -160.72609048 778.37700944 C-156.43775203 778.73495388 -152.14941293 779.09289045 -147.86107277 779.45081448 C-129.34920139 780.9959528 -110.83748448 782.54294059 -92.32579604 784.090269 C-89.33258804 784.3404502 -86.33937699 784.59059486 -83.34616542 784.84073329 C-72.86378232 785.71678106 -62.38144897 786.59341833 -51.89924376 787.47159236 C-47.5659157 787.83462797 -43.23256832 788.19742822 -38.89916229 788.55953217 C-34.92862708 788.89132949 -30.95815699 789.22389522 -26.98773689 789.5570671 C-25.55521537 789.67714791 -24.12267138 789.79696109 -22.69010221 789.91647207 C-15.11937818 790.54823273 -7.55683772 791.21877527 0 792 C0 795.3 0 798.6 0 802 C-25.5393204 800.38477861 -51.05475851 798.48813955 -76.5625 796.4375 C-77.32227268 796.37643948 -78.08204536 796.31537895 -78.86484146 796.25246811 C-100.39011516 794.52155112 -121.91314844 792.762992 -143.43633652 791.00637436 C-153.64559744 790.17323501 -163.85491299 789.3407656 -174.0642395 788.50843048 C-178.0005197 788.18745762 -181.93678372 787.86628682 -185.87304688 787.54510498 C-215.34048128 785.1414842 -244.80972957 782.76462983 -274.28515625 780.4609375 C-275.59205791 780.35879 -276.89895958 780.25664249 -278.24546432 780.15139961 C-290.78508076 779.17187908 -303.32499049 778.19619863 -315.86539555 777.22682571 C-320.45103299 776.87212602 -325.03657055 776.51614469 -329.62209892 776.16003799 C-332.66625928 775.92420895 -335.71056918 775.69039785 -338.75489807 775.45675659 C-356.18450658 774.10381803 -373.5819027 772.53689094 -391 771 C-391 526.8 -391 282.6 -391 31 C-355.81559766 28.01827099 -320.64006802 25.06316595 -285.4357605 22.34832764 C-273.07253895 21.39385628 -260.71002118 20.43033956 -248.34765625 19.46484375 C-246.42862582 19.31499401 -246.42862582 19.31499401 -244.4708271 19.162117 C-215.58689143 16.90453161 -186.7106418 14.55431983 -157.83498001 12.19362259 C-120.06685033 9.10604312 -82.29715036 6.04452015 -44.51716995 3.10501862 C-41.58480775 2.87673664 -38.65249161 2.64787061 -35.72018433 2.41888428 C-31.22123706 2.06776443 -26.72215543 1.71842451 -22.22294235 1.37072754 C-20.59804034 1.24500182 -18.97317402 1.11881395 -17.34834671 0.99212646 C-15.15364943 0.82120878 -12.95881034 0.65225229 -10.76391602 0.48388672 C-8.93546898 0.34259842 -8.93546898 0.34259842 -7.07008362 0.19845581 C-4.71737118 0.04637218 -2.35762279 0 0 0 Z " fill="#090801" transform="translate(537,139)"/>
<path d="M0 0 C2.29406548 0.18440895 2.29406548 0.18440895 4.63447571 0.37254333 C18.2861487 1.46830045 31.9391024 2.54585437 45.59370995 3.60437202 C95.40435152 7.46764112 145.20862855 11.39536073 195 15.5 C234.24319197 18.73484626 273.49306602 21.87420163 312.75 24.9375 C313.98576782 25.03394806 315.22153564 25.13039612 316.49475098 25.22976685 C341.32873854 27.16757601 366.16388425 29.08952956 391 31 C391 275.2 391 519.4 391 771 C369.22 772.65 347.44 774.3 325 776 C309.86225189 777.22442597 294.72511214 778.45066518 279.59017944 779.70852661 C267.87060954 780.68138375 256.15024047 781.64453591 244.4296875 782.60546875 C243.22143248 782.70454466 242.01317745 782.80362057 240.76830864 782.90569878 C211.54988855 785.29901257 182.32223736 787.57209259 153.0939827 789.8415184 C113.70815362 792.9000773 74.3329203 796.0715657 34.96541882 799.35777473 C31.04685993 799.68482345 27.12824324 800.01117709 23.20963097 800.33758545 C20.53751639 800.56066533 17.86553212 800.78525787 15.19355774 801.01000977 C13.60235024 801.1428756 12.01113855 801.27569133 10.41992188 801.40844727 C9.34613297 801.49948148 9.34613297 801.49948148 8.25065136 801.59235477 C5.48850601 801.82168718 2.7733476 802 0 802 C0 798.7 0 795.4 0 792 C16.38856043 789.99873713 32.83993581 788.68651344 49.2902559 787.31612206 C53.517407 786.96344284 57.74431961 786.60792532 61.9712677 786.25282288 C71.18143641 785.47963404 80.39190669 784.71008146 89.60244155 783.94126844 C95.36269445 783.46042949 101.12287951 782.97878139 106.88305092 782.49696732 C122.86252415 781.16046003 138.84206145 779.82472611 154.82187939 778.49234581 C155.8412025 778.40735532 156.86052561 778.32236484 157.91073729 778.23479889 C159.97663672 778.06254905 162.04253619 777.89029983 164.10843571 777.71805124 C165.64647024 777.58981314 165.64647024 777.58981314 167.21557617 777.45898438 C168.75550656 777.33058914 168.75550656 777.33058914 170.32654665 777.19960006 C186.97990634 775.81093369 203.6327716 774.41643021 220.2854292 773.01937215 C237.42231949 771.58176736 254.55959476 770.1488301 271.69727021 768.72061503 C281.30378169 767.91992658 290.91012168 767.11729533 300.51604271 766.30955124 C308.68890762 765.62233786 316.86211889 764.93943795 325.03580423 764.26204966 C329.19998102 763.91682113 333.36396924 763.56963963 337.52752304 763.21697044 C341.34827923 762.89338788 345.16947951 762.57567945 348.9910932 762.26239164 C351.00755952 762.09562529 353.02352331 761.9228153 355.03945416 761.74969614 C363.7805818 761.04113122 372.16355178 761 381 761 C381 523.73 381 286.46 381 42 C360.21 40.35 339.42 38.7 318 37 C306.79878636 36.0858859 295.59791479 35.17052311 284.39840734 34.23621321 C280.62643191 33.92182791 276.8543358 33.6088953 273.08226013 33.29571533 C265.81561258 32.6921726 258.54906996 32.08737659 251.28257679 31.48197815 C245.3802733 30.99024081 239.47793651 30.49890498 233.57557869 30.00782013 C216.71278428 28.60476475 199.85007278 27.20071909 182.9874742 25.79531214 C182.09272832 25.72073999 181.19798244 25.64616785 180.27612305 25.56933594 C179.3802517 25.49466977 178.48438035 25.42000361 177.56136138 25.34307483 C162.88410666 24.11986757 148.20664425 22.89917127 133.52909242 21.67953464 C118.332766 20.41676116 103.13659394 19.15214445 87.94058186 17.88559365 C79.45711722 17.17855552 70.97359136 16.47227196 62.48989677 15.76799774 C55.31534086 15.17238831 48.14092938 14.57507485 40.96670198 13.97552082 C37.314068 13.6703176 33.66137189 13.36591607 30.00849152 13.06367493 C26.05287437 12.7363615 22.09758408 12.40520841 18.14231873 12.07366943 C16.98879345 11.97882822 15.83526817 11.883987 14.64678758 11.78627181 C13.5868739 11.69679597 12.52696022 11.60732013 11.43492794 11.5151329 C10.5235749 11.43924116 9.61222185 11.36334941 8.67325205 11.28515792 C5.75707466 10.97408696 2.88785666 10.50781597 0 10 C0 6.7 0 3.4 0 0 Z " fill="#090801" transform="translate(543,139)"/>
<path d="M0 0 C1.17147835 -0.0076664 1.17147835 -0.0076664 2.36662292 -0.01548767 C4.9458281 -0.02937622 7.5247658 -0.0284273 10.10400391 -0.02612305 C11.89995421 -0.03001074 13.69590361 -0.03434556 15.49185181 -0.03910828 C19.25615417 -0.04656916 23.02036276 -0.04628042 26.78466797 -0.04101562 C31.60218187 -0.03522498 36.41931082 -0.05214278 41.23676109 -0.0753603 C44.94630162 -0.09011289 48.65574981 -0.0909672 52.36531448 -0.08785057 C54.14107652 -0.08836314 55.91684382 -0.09358882 57.69257736 -0.10366249 C60.1794183 -0.11603754 62.6655142 -0.10922884 65.15234375 -0.09765625 C65.88189774 -0.10529999 66.61145172 -0.11294373 67.3631134 -0.12081909 C72.75671996 -0.06550962 76.76461924 1.19262185 80.89086914 4.7121582 C85.16889862 9.81169046 88.20062458 15.38714889 91.26806641 21.2746582 C92.41332165 23.43190742 93.56050667 25.58813307 94.70947266 27.7434082 C95.28971191 28.83395508 95.86995117 29.92450195 96.46777344 31.0480957 C99.13569406 36.00162744 101.91682885 40.888434 104.70556641 45.7746582 C111.38704525 57.51020731 117.81699117 69.37765524 124.20556641 81.2746582 C129.70919769 71.43520905 135.15274149 61.56527075 140.51806641 51.6496582 C141.06052002 50.64781494 141.60297363 49.64597168 142.16186523 48.61376953 C145.01143553 43.34630603 147.85067029 38.07350541 150.67822266 32.79418945 C151.24822998 31.73345215 151.8182373 30.67271484 152.40551758 29.57983398 C153.48342422 27.57358594 154.55807262 25.56558212 155.62866211 23.55541992 C157.12368345 20.77663289 158.65127084 18.02071014 160.20556641 15.2746582 C160.76405273 14.2841748 161.32253906 13.29369141 161.89794922 12.27319336 C162.76564941 10.81405518 162.76564941 10.81405518 163.65087891 9.32543945 C164.16408691 8.45185791 164.67729492 7.57827637 165.20605469 6.67822266 C168.78663006 2.3741 171.83462131 0.55112218 177.3381958 -0.09062195 C181.26739134 -0.25568071 185.18437563 -0.28229868 189.11572266 -0.2565918 C190.57108316 -0.25929026 192.02644189 -0.26317562 193.48179626 -0.26818848 C196.52213823 -0.27406515 199.5620081 -0.26557935 202.60229492 -0.24682617 C206.48840103 -0.22401644 210.37340319 -0.2371828 214.25946903 -0.26111603 C217.2613499 -0.27560681 220.26297124 -0.27095355 223.26486015 -0.26060486 C224.69731212 -0.25794764 226.12978809 -0.26117181 227.56221199 -0.27052307 C229.56710449 -0.28074312 231.57208029 -0.26238974 233.5769043 -0.24291992 C234.7149501 -0.23973755 235.85299591 -0.23655518 237.02552795 -0.23327637 C240.92812937 0.39007024 243.12733963 1.84220049 246.20556641 4.2746582 C247.84143397 7.54639333 247.73304624 10.7392079 247.20556641 14.2746582 C244.50684912 20.94832307 240.60716973 27.06425034 236.70556641 33.0871582 C235.64088325 34.75195964 234.57711377 36.41734569 233.51416016 38.08325195 C232.96872559 38.9364502 232.42329102 39.78964844 231.86132812 40.66870117 C229.1265982 44.97281607 226.4467708 49.31052958 223.76806641 53.6496582 C223.22859375 54.52275635 222.68912109 55.39585449 222.13330078 56.29541016 C221.03749524 58.06925353 219.94195521 59.84326095 218.84667969 61.61743164 C216.13663087 66.0054369 213.42082934 70.38987825 210.70556641 74.7746582 C209.62220505 76.52464086 208.53887173 78.27464086 207.45556641 80.0246582 C187.95556641 111.5246582 187.95556641 111.5246582 186.32788086 114.15380859 C185.25327485 115.88983501 184.1788904 117.6259986 183.10473633 119.36230469 C180.26475183 123.95229636 177.42005535 128.53928457 174.56884766 133.12231445 C173.97458984 134.07879883 173.38033203 135.0352832 172.76806641 136.02075195 C171.62755264 137.8562663 170.48569117 139.69094414 169.34228516 141.5246582 C168.82923828 142.35094727 168.31619141 143.17723633 167.78759766 144.02856445 C167.33618408 144.75374268 166.88477051 145.4789209 166.41967773 146.22607422 C164.26890309 149.85510098 162.95645801 152.41799741 162.94728088 156.70150757 C162.93703888 158.02197838 162.93703888 158.02197838 162.92658997 159.36912537 C162.92914291 160.32714554 162.93169586 161.28516571 162.93432617 162.2722168 C162.92909943 163.28728806 162.92387268 164.30235931 162.91848755 165.34819031 C162.90824738 167.55203073 162.90246712 169.75589533 162.90060616 171.95975876 C162.89694616 175.44835475 162.8802292 178.93666554 162.85984802 182.42520142 C162.80440079 192.34371642 162.7737465 202.26227358 162.74926758 212.1809082 C162.73339085 218.24805383 162.70316979 224.31499723 162.6645031 230.38203812 C162.65285352 232.69365924 162.64692275 235.00531653 162.64682198 237.31696701 C162.64662988 240.55096287 162.62835923 243.78440128 162.60620117 247.01831055 C162.61077835 247.97228226 162.61535553 248.92625397 162.62007141 249.90913391 C162.56333813 255.11891348 162.12285401 258.77197245 159.20556641 263.2746582 C154.03267034 268.30774627 148.66349619 269.51769398 141.59277344 269.56518555 C140.29767853 269.57794525 139.00258362 269.59070496 137.66824341 269.60385132 C136.26662344 269.60690923 134.86500145 269.60913685 133.46337891 269.6105957 C132.01138175 269.61703083 130.55938586 269.62375972 129.10739136 269.63076782 C126.06961055 269.64271334 123.03194324 269.64645144 119.99414062 269.64526367 C116.11837078 269.64506056 112.24333482 269.6723659 108.36773872 269.70680809 C105.37011428 269.72914082 102.37266475 269.73309929 99.37496567 269.73204422 C97.94693344 269.73439047 96.51889568 269.74315861 95.0909462 269.75870895 C80.78693146 269.89990905 80.78693146 269.89990905 74.20556641 265.2746582 C70.42888546 260.70695638 70.81962172 256.23394171 70.91601562 250.59765625 C70.92028061 249.6277626 70.92454559 248.65786896 70.92893982 247.65858459 C70.93923371 245.55404 70.95592571 243.44951916 70.97826767 241.34506798 C71.01059989 238.00058776 71.01921671 234.65683839 71.02053833 231.31221008 C71.02613803 221.80318406 71.05470642 212.2947442 71.14697266 202.78613281 C71.20176143 196.96391823 71.21196804 191.1429933 71.19482803 185.32056618 C71.19675645 183.11479882 71.2149737 180.9089768 71.25063705 178.70349693 C71.4640973 165.10356736 70.38328694 155.27407467 62.41473866 144.00826454 C60.31360832 140.99584603 58.43587305 137.84306784 56.51806641 134.7121582 C55.67757841 133.37758853 54.83554738 132.04398682 53.99072266 130.7121582 C50.75516093 125.58029227 47.60513482 120.39709989 44.45556641 115.2121582 C43.86735107 114.24415283 43.27913574 113.27614746 42.6730957 112.27880859 C41.46391638 110.28817238 40.25501649 108.29736641 39.04638672 106.30639648 C35.97758777 101.25223928 32.90440587 96.20075102 29.83056641 91.1496582 C29.24009521 90.17931641 28.64962402 89.20897461 28.04125977 88.20922852 C24.43568163 82.28698339 20.81502227 76.37459726 17.17431641 70.47387695 C14.77840087 66.5805142 12.39869025 62.67738237 10.01806641 58.7746582 C5.31300339 51.0631678 0.56549566 43.37848994 -4.20336914 35.70629883 C-6.85930461 31.42731495 -9.50177741 27.14015184 -12.11865234 22.8371582 C-12.60809326 22.03407227 -13.09753418 21.23098633 -13.60180664 20.40356445 C-15.96174541 16.1909409 -16.47083833 12.01875719 -15.79443359 7.2746582 C-11.75662104 0.641109 -7.35459874 -0.0248369 0 0 Z M-1.79443359 13.2746582 C-0.3500313 16.99451605 1.29693497 20.25003815 3.40869141 23.6418457 C4.05193359 24.68018555 4.69517578 25.71852539 5.35791016 26.78833008 C6.39625 28.4521875 6.39625 28.4521875 7.45556641 30.1496582 C8.5498738 31.91325843 9.64270705 33.67776651 10.73547363 35.44232178 C11.47844026 36.64185483 12.22185151 37.84111261 12.96569824 39.0401001 C16.41247657 44.59800644 19.81352341 50.18319487 23.20556641 55.7746582 C28.17681606 63.95917129 33.18144828 72.12249717 38.20556641 80.2746582 C43.80049463 89.35301875 49.36598653 98.44843 54.89892578 107.56469727 C58.05346561 112.75691876 61.22703377 117.93677667 64.42431641 123.1027832 C64.78138672 123.68036377 65.13845703 124.25794434 65.50634766 124.85302734 C67.2347172 127.64871205 68.9656102 130.44271295 70.70166016 133.23364258 C83.29338394 153.5889752 83.29338394 153.5889752 83.36378479 161.51409912 C83.37357361 162.35259903 83.38336243 163.19109894 83.39344788 164.05500793 C83.39920334 164.96634995 83.4049588 165.87769196 83.41088867 166.81665039 C83.42078827 167.78283798 83.43068787 168.74902557 83.44088745 169.74449158 C83.47246483 172.93681389 83.49724509 176.12915109 83.52197266 179.3215332 C83.54254542 181.53542466 83.56354198 183.74931222 83.58494568 185.9631958 C83.64013297 191.78941692 83.68955704 197.6156733 83.73779297 203.44195557 C83.78803236 209.38752377 83.84370571 215.33304079 83.89892578 221.27856445 C84.00646649 232.94388531 84.10792059 244.60925061 84.20556641 256.2746582 C92.53285588 256.29778505 100.86013203 256.31557503 109.18744564 256.32647038 C113.05376758 256.33169846 116.92006762 256.33879474 120.78637695 256.35009766 C124.51460041 256.3609292 128.24280275 256.3669356 131.97104073 256.36953545 C133.39646296 256.37138921 134.82188399 256.37500891 136.24729729 256.38038826 C138.23720048 256.38760213 140.22712475 256.38806629 142.21704102 256.38818359 C143.91913979 256.39151451 143.91913979 256.39151451 145.65562439 256.39491272 C148.14015946 256.56440243 148.14015946 256.56440243 149.20556641 255.2746582 C149.30424849 253.94385887 149.33464023 252.60790398 149.33686829 251.27345276 C149.34087646 250.41145767 149.34488464 249.54946259 149.34901428 248.66134644 C149.34848557 247.70817535 149.34795685 246.75500427 149.34741211 245.77294922 C149.35088654 244.77449478 149.35436096 243.77604034 149.35794067 242.74732971 C149.36531469 240.56962712 149.37065125 238.39191692 149.37423134 236.21420479 C149.38138071 232.76260884 149.39703847 229.31115641 149.41557312 225.85960388 C149.46809563 216.04232831 149.51597126 206.22512769 149.53149414 196.40771484 C149.54160275 190.40878481 149.57100859 184.41021017 149.61281395 178.41142082 C149.62509598 176.12823112 149.63025035 173.84499113 149.62801552 171.56176949 C149.62565014 168.35443703 149.64792662 165.14811359 149.67553711 161.94091797 C149.6689357 161.00596497 149.66233429 160.07101196 149.65553284 159.10772705 C149.78069012 150.19977397 152.87115032 142.9528956 157.56884766 135.4543457 C158.20048828 134.43727539 158.83212891 133.42020508 159.48291016 132.37231445 C160.4903125 130.77709961 160.4903125 130.77709961 161.51806641 129.1496582 C162.23233426 128.00558 162.94586163 126.86103922 163.65869141 125.71606445 C165.48168482 122.79187352 167.31370076 119.87345976 169.14849854 116.95666504 C170.78042142 114.35994866 172.40499874 111.75865658 174.02978516 109.1574707 C175.86980465 106.21202729 177.71039052 103.26695657 179.55395508 100.32373047 C185.54211887 90.75946572 191.45072953 81.14688159 197.35791016 71.5324707 C202.41597737 63.30098598 207.5041482 55.08822886 212.59375 46.8762207 C214.30521152 44.11382537 216.01531591 41.35059353 217.72509766 38.5871582 C218.30751221 37.64590088 218.88992676 36.70464355 219.48999023 35.73486328 C220.59539978 33.94830626 221.70071321 32.16168976 222.8059082 30.375 C223.30904541 29.56200439 223.81218262 28.74900879 224.33056641 27.91137695 C224.81009766 27.13455566 225.28962891 26.35773437 225.78369141 25.55737305 C226.74154618 24.01960826 227.71056781 22.48874976 228.68994141 20.96459961 C229.14884766 20.24836426 229.60775391 19.53212891 230.08056641 18.79418945 C230.49048828 18.16230713 230.90041016 17.5304248 231.32275391 16.87939453 C232.36623499 15.28785875 232.36623499 15.28785875 232.20556641 13.2746582 C224.48316373 13.04625592 216.76163263 12.88877079 209.03662109 12.78027344 C206.40966242 12.73504254 203.78292995 12.67364572 201.15673828 12.59570312 C197.37817637 12.48637635 193.60260991 12.43545744 189.82275391 12.39575195 C188.06461868 12.3260746 188.06461868 12.3260746 186.27096558 12.25498962 C180.17961769 12.13986142 180.17961769 12.13986142 175.18049622 15.17419434 C173.61230446 17.48379198 172.38468944 19.7470958 171.20556641 22.2746582 C170.36444235 23.83147436 169.51989005 25.38644812 168.67041016 26.9387207 C167.82397365 28.59032849 166.98169154 30.24407042 166.14306641 31.8996582 C162.18742549 39.58603968 158.06278123 47.14769292 153.76806641 54.6496582 C148.71826276 63.47365229 143.92808663 72.40301874 139.33862305 81.4753418 C131.28093417 97.23697432 131.28093417 97.23697432 127.20556641 99.2746582 C124.45556641 99.8371582 124.45556641 99.8371582 121.20556641 99.2746582 C115.51566987 93.651122 111.92582372 85.71351422 108.14306641 78.7746582 C107.48354468 77.57550539 106.8235427 76.3766166 106.16308594 75.17797852 C101.39547491 66.51109319 96.69918319 57.80541467 92.00268555 49.09985352 C88.09386244 41.87110038 84.1132331 34.68504534 80.08056641 27.5246582 C79.53577637 26.55367187 78.99098633 25.58268555 78.4296875 24.58227539 C77.92002441 23.68154297 77.41036133 22.78081055 76.88525391 21.8527832 C76.43907715 21.06291016 75.99290039 20.27303711 75.53320312 19.45922852 C75.09508301 18.73832031 74.65696289 18.01741211 74.20556641 17.2746582 C73.63984673 16.23112183 73.63984673 16.23112183 73.06269836 15.16650391 C71.27230815 12.96483372 71.27230815 12.96483372 68.07344055 12.79364014 C66.13817757 12.80696381 66.13817757 12.80696381 64.16381836 12.82055664 C63.45136963 12.81997253 62.7389209 12.81938843 62.00488281 12.81878662 C59.65070821 12.82157272 57.29780093 12.85268707 54.94384766 12.8840332 C53.31146435 12.89149378 51.67907209 12.89718758 50.04667664 12.90118408 C45.75071474 12.91645499 41.45529401 12.95574887 37.1595459 13 C32.775872 13.04092158 28.39211064 13.05918841 24.00830078 13.0793457 C15.40714101 13.12224215 6.80642103 13.19051054 -1.79443359 13.2746582 Z " fill="#FADA2A" transform="translate(198.79443359375,539.725341796875)"/>
<path d="M0 0 C1.0353186 0.52400391 1.0353186 0.52400391 2.09155273 1.05859375 C8.28580723 4.32627483 13.2181888 8.37668327 18.0625 13.4375 C18.68253906 14.02660156 19.30257812 14.61570312 19.94140625 15.22265625 C31.25762553 26.74140295 35.15941265 41.86595463 35.3125 57.5 C35.13121438 75.98357964 28.18647569 91.45640107 14.93359375 104.5390625 C9.92323973 108.9305403 4.47071208 111.95328577 -1.5 114.8125 C-2.54401978 115.31354248 -2.54401978 115.31354248 -3.60913086 115.82470703 C-16.27086248 121.59367046 -31.47302289 122.55660433 -44.84765625 118.59375 C-62.01067138 112.1711805 -76.0055065 102.39644581 -84.36328125 85.56640625 C-91.40206848 69.59936383 -93.67867174 53.43677345 -88.19921875 36.65234375 C-80.36417672 16.68875367 -66.44241917 4.7485679 -47.30078125 -3.73046875 C-32.73433816 -8.72668836 -13.60529993 -6.92522785 0 0 Z " fill="#FCDC2B" transform="translate(855.9375,389.5625)"/>
<path d="M0 0 C0.72392441 -0.00511093 1.44784882 -0.01022186 2.19371033 -0.01548767 C4.58837132 -0.02939474 6.98274481 -0.02842588 9.37744141 -0.02612305 C11.04269518 -0.03000984 12.70794797 -0.03434447 14.37319946 -0.03910828 C17.86520601 -0.04657321 21.35711147 -0.04627759 24.84912109 -0.04101562 C29.320384 -0.03522554 33.79123205 -0.0521393 38.26242638 -0.0753603 C41.70256971 -0.09010634 45.1426134 -0.09096808 48.58278275 -0.08785057 C50.23098191 -0.08836351 51.87918669 -0.09359613 53.52735519 -0.10366249 C55.83491539 -0.11602448 58.14167105 -0.10923688 60.44921875 -0.09765625 C61.76143402 -0.09828568 63.07364929 -0.0989151 64.42562866 -0.0995636 C68.98505807 0.3981176 71.60431829 1.84644607 74.60400391 5.2746582 C76.53715527 8.36770038 76.97944728 10.90209817 76.98543167 14.46612167 C76.98927282 15.32469324 76.99311396 16.1832648 76.9970715 17.06785369 C76.99620502 18.01151361 76.99533854 18.95517353 76.9944458 19.9274292 C76.99741692 20.92960739 77.00038805 21.93178559 77.0034492 22.96433282 C77.0121534 26.33829078 77.01364591 29.71221333 77.01513672 33.08618164 C77.01976368 35.4988818 77.02478818 37.91158122 77.03018188 40.32427979 C77.0433198 46.8904776 77.04979018 53.45666804 77.05419254 60.02287579 C77.05695504 64.12308316 77.06119243 68.22328818 77.06569672 72.32349396 C77.07788993 83.67620063 77.08818886 95.02890542 77.09157181 106.3816185 C77.09190116 107.47161761 77.09190116 107.47161761 77.09223716 108.58363689 C77.09256458 109.67624393 77.09256458 109.67624393 77.09289861 110.79092383 C77.09334207 112.26694727 77.09378864 113.74297071 77.09423828 115.21899414 C77.09445971 115.9511527 77.09468114 116.68331125 77.09490928 117.43765643 C77.09885652 129.2988412 77.11630804 141.1599645 77.1395978 153.02112553 C77.16331714 165.19940039 77.17577394 177.37764443 77.17693973 189.55594277 C77.17785621 196.39334475 77.1836016 203.23066666 77.20175934 210.06804657 C77.21877949 216.49973883 77.22040855 222.93131967 77.21162033 229.36302948 C77.21084851 231.72410488 77.21521174 234.08518837 77.22507858 236.44624329 C77.23775687 239.66899501 77.23194329 242.89120486 77.22149658 246.11395264 C77.23358119 247.51605818 77.23358119 247.51605818 77.24590993 248.9464891 C77.19574684 255.56149435 76.41245467 260.71620744 71.54150391 265.5871582 C66.57777849 268.70391602 62.04702744 269.52618991 56.24121094 269.56518555 C54.94611603 269.57794525 53.65102112 269.59070496 52.31668091 269.60385132 C50.91506094 269.60690923 49.51343895 269.60913685 48.11181641 269.6105957 C46.65981925 269.61703083 45.20782336 269.62375972 43.75582886 269.63076782 C40.71804805 269.64271334 37.68038074 269.64645144 34.64257812 269.64526367 C30.76680828 269.64506056 26.89177232 269.6723659 23.01617622 269.70680809 C20.01855178 269.72914082 17.02110225 269.73309929 14.02340317 269.73204422 C12.59537094 269.73439047 11.16733318 269.74315861 9.7393837 269.75870895 C-6.29115647 269.9169522 -6.29115647 269.9169522 -11.14599609 265.2746582 C-15.21801031 259.45059881 -15.72215999 255.08016263 -15.66065979 248.07167053 C-15.66760532 247.0586131 -15.67455085 246.04555567 -15.68170685 245.00179952 C-15.69997063 241.61474382 -15.68971386 238.228389 -15.67944336 234.84130859 C-15.6865021 232.40993221 -15.69524693 229.97856023 -15.70555115 227.54719543 C-15.72572265 221.63315491 -15.72707136 215.71929182 -15.7189256 209.80523903 C-15.7126188 204.99710313 -15.71376885 200.1890233 -15.72019768 195.38088799 C-15.72109933 194.69585661 -15.72200099 194.01082524 -15.72292997 193.30503533 C-15.72478122 191.91327591 -15.72664378 190.5215165 -15.72851752 189.1297571 C-15.74508647 176.08642185 -15.73638461 163.04319485 -15.71953195 149.99986612 C-15.70483662 138.07487954 -15.7194625 126.15014496 -15.74830211 114.22519083 C-15.77771641 101.97104862 -15.78866243 89.71702265 -15.77911991 77.4628467 C-15.77809739 76.07597921 -15.77710278 74.68911171 -15.7761364 73.30224419 C-15.77566001 72.61993545 -15.77518362 71.93762672 -15.77469279 71.23464196 C-15.77253129 66.43475992 -15.78231864 61.63498826 -15.79690742 56.83513069 C-15.81628517 50.36963873 -15.80931649 43.9045007 -15.78470802 37.43902397 C-15.77969731 35.06708383 -15.78319654 32.69510806 -15.79585648 30.32319641 C-15.81178113 27.08313526 -15.79683976 23.84461791 -15.77418518 20.60462952 C-15.78602091 19.66775191 -15.79785664 18.7308743 -15.81005102 17.76560646 C-15.72090654 11.48278683 -14.29524416 7.08527456 -10.14599609 2.2746582 C-6.41165399 -0.2149032 -4.46367482 0.01569168 0 0 Z M-2.14599609 13.2746582 C-2.14599609 93.4646582 -2.14599609 173.6546582 -2.14599609 256.2746582 C32.0154381 260.69457238 32.0154381 260.69457238 63.85400391 255.2746582 C63.85400391 175.4146582 63.85400391 95.5546582 63.85400391 13.2746582 C42.07400391 13.2746582 20.29400391 13.2746582 -2.14599609 13.2746582 Z " fill="#F7D829" transform="translate(474.14599609375,539.725341796875)"/>
<path d="M0 0 C0.88444794 -0.00428513 1.76889587 -0.00857025 2.68014526 -0.01298523 C4.55465846 -0.01873059 6.42919395 -0.01922728 8.30371094 -0.01489258 C11.14818371 -0.01175352 13.99159493 -0.03511569 16.8359375 -0.06054688 C18.66145703 -0.06282218 20.48697934 -0.06352229 22.3125 -0.0625 C23.15346222 -0.07170975 23.99442444 -0.08091949 24.86087036 -0.09040833 C33.720238 -0.02232201 40.88364457 2.17477288 47.32421875 8.37109375 C52.97749368 14.67519717 53.71224554 20.48612754 53.43359375 28.890625 C52.59217319 36.46341008 49.8072054 41.32599289 43.93359375 46.109375 C38.20885841 49.73940469 32.95117614 49.59321631 26.35546875 49.56640625 C24.80837471 49.56927643 24.80837471 49.56927643 23.23002625 49.57220459 C21.05561071 49.57356296 18.88118697 49.56989085 16.70678711 49.56152344 C13.36879435 49.55078642 10.03133579 49.56144745 6.69335938 49.57421875 C4.58072797 49.57289774 2.46809691 49.57033655 0.35546875 49.56640625 C-0.64659103 49.57045471 -1.64865082 49.57450317 -2.68107605 49.57867432 C-3.60576187 49.57237 -4.53044769 49.56606567 -5.4831543 49.55957031 C-6.298582 49.55797913 -7.1140097 49.55638794 -7.95414734 49.55474854 C-9.9453125 49.30078125 -9.9453125 49.30078125 -11.9453125 47.30078125 C-12.20600891 45.36535645 -12.20600891 45.36535645 -12.2199707 42.97460938 C-12.22950272 42.08028198 -12.23903473 41.18595459 -12.24885559 40.26452637 C-12.24794418 39.29680298 -12.24703278 38.32907959 -12.24609375 37.33203125 C-12.25037888 36.34078247 -12.254664 35.34953369 -12.25907898 34.32824707 C-12.26482834 32.23006963 -12.2653181 30.13187225 -12.26098633 28.03369141 C-12.25782527 24.81378395 -12.2812821 21.59479382 -12.30664062 18.375 C-12.30891334 16.33984491 -12.30961724 14.30468735 -12.30859375 12.26953125 C-12.3178035 11.30180786 -12.32701324 10.33408447 -12.33650208 9.33703613 C-12.32715889 7.99554504 -12.32715889 7.99554504 -12.31762695 6.62695312 C-12.31825638 5.83800659 -12.3188858 5.04906006 -12.3195343 4.23620605 C-12.19604111 3.59751587 -12.07254791 2.95882568 -11.9453125 2.30078125 C-7.99810109 -0.33069302 -4.58221913 -0.00489536 0 0 Z " fill="#000000" transform="translate(621.9453125,314.69921875)"/>
<path d="M0 0 C9.2520484 1.61274238 16.64955541 6.74167687 22.4375 14 C26.27526195 20.12929518 27.5842184 25.39850073 27.625 32.625 C27.63917969 33.77226562 27.65335938 34.91953125 27.66796875 36.1015625 C27.4375 39 27.4375 39 25.4375 41 C21.875 40.75 21.875 40.75 18.4375 40 C17.19855613 37.52211226 17.25982646 35.64086855 17.125 32.875 C16.52570999 25.93776413 14.6992012 20.71124284 9.375 16.0625 C6.57367085 13.88631397 6.57367085 13.88631397 3.4375 13 C3.44638245 13.63369507 3.45526489 14.26739014 3.4644165 14.92028809 C3.5531806 21.53921452 3.61335479 28.15797077 3.65722656 34.77734375 C3.67729295 37.24486158 3.70455244 39.71233215 3.73925781 42.1796875 C3.78799306 45.73449393 3.81051939 49.28866944 3.828125 52.84375 C3.84877014 53.93989624 3.86941528 55.03604248 3.89068604 56.16540527 C3.89264843 62.9236389 3.04904172 67.24339852 -0.5625 73 C-2.6328125 74.83984375 -2.6328125 74.83984375 -4.6875 75.9375 C-5.37070312 76.31777344 -6.05390625 76.69804687 -6.7578125 77.08984375 C-11.15865284 79.30931517 -14.63628247 79.57432093 -19.5625 79 C-25.58638132 76.91251637 -29.48790416 72.51589401 -32.67578125 67.11328125 C-34.52532985 62.70532622 -34.4001848 57.47497782 -32.875 52.96875 C-30.3235106 48.12092014 -26.45314414 44.44532207 -21.5625 42 C-19.58525939 41.90327168 -17.6045994 41.87020097 -15.625 41.875 C-14.03365234 41.87113281 -14.03365234 41.87113281 -12.41015625 41.8671875 C-9.5625 42 -9.5625 42 -6.5625 43 C-6.57821045 41.8039917 -6.5939209 40.6079834 -6.61010742 39.37573242 C-6.66437061 34.94220707 -6.6988369 30.50871112 -6.72729492 26.07495117 C-6.7423898 24.15530462 -6.76286773 22.2356926 -6.78881836 20.31616211 C-6.82517109 17.55834436 -6.84221912 14.8009822 -6.85546875 12.04296875 C-6.87095261 11.18350143 -6.88643646 10.32403412 -6.90238953 9.43852234 C-6.90261612 8.63791885 -6.90284271 7.83731537 -6.90307617 7.01245117 C-6.90973801 6.3085173 -6.91639984 5.60458344 -6.92326355 4.87931824 C-6.11531511 0.6704888 -4.04018707 0 0 0 Z " fill="#050403" transform="translate(829.5625,407)"/>
<path d="M0 0 C4.4297642 0.79102932 5.89210172 1.98974785 8.5 5.625 C9.21235686 9.4242366 8.81263988 11.06224821 6.9375 14.4375 C3.73003157 17.31599731 1.7850666 17.70017661 -2.5 17.625 C-5.30189446 15.85858828 -7.01524911 14.59450178 -8.5 11.625 C-9.03507099 7.6119676 -8.83051628 6.08571967 -6.4375 2.75 C-3.5 0.625 -3.5 0.625 0 0 Z " fill="#F5F5F5" transform="translate(814.5,458.375)"/>
</svg>
