<?xml version="1.0" encoding="UTF-8"?>
<svg version="1.1" xmlns="http://www.w3.org/2000/svg" width="1080" height="1080">
<path d="M0 0 C1.55661464 0.08834972 3.11325538 0.17624065 4.66992188 0.26367188 C7.75207146 0.43735053 10.83374892 0.61750633 13.9152832 0.80175781 C16.88972311 0.97792509 19.86403987 1.13252717 22.84057617 1.26855469 C32.23557744 1.71722703 41.34959006 2.79807983 50.625 4.4375 C51.86185547 4.64632813 53.09871094 4.85515625 54.37304688 5.0703125 C61.74785552 6.33610907 69.05824904 7.80670944 76.36743164 9.40625 C79.92182292 10.16602764 83.47726054 10.78015779 87.0625 11.375 C95.18152878 12.80991572 102.95019663 15.2100143 110.8125 17.65625 C114.41167173 18.77083221 118.0126568 19.7236771 121.6875 20.5625 C127.12912991 21.85958809 132.23759342 23.78575887 137.4440918 25.80078125 C141.58972152 27.39795317 145.73353105 28.8098144 150 30.0625 C161.19008535 33.420902 171.78421233 38.07904304 182.27636719 43.17089844 C185.87210279 44.90622404 189.47265085 46.48640669 193.19921875 47.921875 C199.16013195 50.26919538 204.77632946 53.20066933 210.4375 56.1875 C211.47261719 56.72503906 212.50773438 57.26257813 213.57421875 57.81640625 C221.1762749 61.8012749 221.1762749 61.8012749 223.4375 64.0625 C225.06425793 64.7403158 226.69136342 65.41731083 228.3203125 66.08984375 C234.99622908 69.15682388 241.09154583 73.46022873 247.16015625 77.56640625 C249.52557144 79.12035825 251.93561947 80.56529413 254.375 82 C261.30602575 86.11999054 267.81036657 90.74110433 274.125 95.75 C276.72887846 97.81197783 279.26293152 99.61467591 282.1875 101.1875 C285.5829097 103.14639021 287.67459427 105.29959427 290.4375 108.0625 C292.50243672 109.72621844 294.5691014 111.34649962 296.6875 112.9375 C297.83860606 113.8137175 298.98964743 114.69001997 300.140625 115.56640625 C301.2393872 116.39869649 302.33833355 117.2307437 303.4375 118.0625 C308.40664468 121.8329475 313.13532961 125.52132015 317.4375 130.0625 C320.99975118 133.72102824 324.72771618 137.0916758 328.5859375 140.4296875 C330.62356351 142.22658133 332.51701296 144.14201296 334.4375 146.0625 C335.241875 146.701875 336.04625 147.34125 336.875 148 C340.94766507 151.27799871 344.26996277 154.76304497 347.3125 159 C349.77494168 162.36932557 352.40161976 164.87069909 355.6328125 167.484375 C358.35125128 169.86153792 360.62699338 172.57686747 362.95703125 175.328125 C364.47481592 177.15230537 364.47481592 177.15230537 366.4375 179.0625 C366.4375 180.0525 366.4375 181.0425 366.4375 182.0625 C366.98277344 182.24941406 367.52804687 182.43632812 368.08984375 182.62890625 C371.5608477 184.74847106 373.58346067 187.77468637 376 191 C376.95785454 192.26046989 377.91743606 193.51962965 378.87890625 194.77734375 C379.29857666 195.33542725 379.71824707 195.89351074 380.15063477 196.46850586 C381.41653284 198.10276629 381.41653284 198.10276629 382.97631836 199.55297852 C384.92259531 201.56364358 386.0621893 203.92711297 387.39453125 206.3671875 C388.45806696 208.25182558 388.45806696 208.25182558 390.5625 210.125 C392.90130901 212.54176931 393.38674952 214.91024855 394.4375 218.0625 C395.4275 218.3925 396.4175 218.7225 397.4375 219.0625 C398.74023438 220.6730957 398.74023438 220.6730957 400.03125 222.73828125 C400.50433594 223.48400391 400.97742188 224.22972656 401.46484375 224.99804688 C401.95082031 225.78244141 402.43679688 226.56683594 402.9375 227.375 C403.90501917 228.91353512 404.87373301 230.45131973 405.84375 231.98828125 C406.26978516 232.67317627 406.69582031 233.35807129 407.13476562 234.0637207 C408.43352475 236.11691543 408.43352475 236.11691543 410.05664062 238.14526367 C411.69719267 240.42306692 412.05497275 242.30830383 412.4375 245.0625 C413.0975 245.0625 413.7575 245.0625 414.4375 245.0625 C415.76953125 246.93359375 415.76953125 246.93359375 417.25 249.5 C417.73082031 250.32371094 418.21164062 251.14742187 418.70703125 251.99609375 C420.51300609 255.19629748 422.30233353 258.40518266 424.08325195 261.61938477 C424.98712599 263.25000807 425.89321999 264.87940276 426.80151367 266.50756836 C432.45202307 276.64690165 437.94564293 286.83026359 442.9375 297.3125 C443.33412842 298.14426758 443.73075684 298.97603516 444.1394043 299.83300781 C446.45564312 304.76758204 448.54929652 309.75823426 450.54443359 314.83056641 C451.60283843 317.47571049 452.7794826 320.05103757 454 322.625 C455.78459107 326.50783754 457.27760404 330.34451288 458.5546875 334.41796875 C459.28107061 336.593904 460.05945782 338.72329143 460.8828125 340.86328125 C461.14779541 341.55333252 461.41277832 342.24338379 461.68579102 342.9543457 C462.21250394 344.31811365 462.74393346 345.68007334 463.28100586 347.03979492 C464.60352627 350.47732045 465.65631076 353.82092749 466.40625 357.4296875 C467.46422515 362.51014399 469.15581952 367.2988781 470.875 372.1875 C473.33320929 379.37621289 475.30865999 386.38774987 476.62890625 393.8828125 C477.43101737 398.28617149 478.53884347 402.60441972 479.62719727 406.94433594 C482.44516626 418.22300426 484.65763728 429.36937868 486.0546875 440.90722656 C486.42385382 443.95002343 486.80812151 446.99069073 487.19570923 450.03118896 C487.65761703 453.66584112 488.11015928 457.30164703 488.5625 460.9375 C488.64912903 461.62779297 488.73575806 462.31808594 488.82501221 463.02929688 C491.04750527 480.84745958 491.64292971 498.43432898 491.625 516.375 C491.62439575 517.48877014 491.6237915 518.60254028 491.62316895 519.75006104 C491.58667255 544.50663502 489.65772967 568.34686807 485.91796875 592.83105469 C485.47600585 595.80352466 485.07125995 598.77734721 484.6875 601.7578125 C483.20248922 613.19606869 480.91789106 624.24515919 478.09033203 635.42431641 C477.4325874 638.0823525 476.81732925 640.74690109 476.21484375 643.41796875 C473.76685452 654.21554348 470.75778479 664.6201392 467.11328125 675.07128906 C466.11844878 678.00259455 465.24950172 680.96842561 464.375 683.9375 C462.78480294 689.20502775 460.76861643 694.18385049 458.5859375 699.23046875 C457.53302843 701.8269282 456.7322907 704.36163959 456 707.0625 C454.61254851 711.98164619 452.43289915 716.31113733 450.03515625 720.8125 C448.7391647 723.44884467 447.62885722 726.03594248 446.55859375 728.765625 C444.41026014 734.22723009 441.96598642 739.51800268 439.4375 744.8125 C438.79941406 746.17181641 438.79941406 746.17181641 438.1484375 747.55859375 C435.8745354 752.33657821 433.41336755 756.67566076 430.4375 761.0625 C429.74709426 762.71947379 429.07844258 764.38577258 428.4375 766.0625 C427.53286798 767.66483942 426.59379233 769.24811766 425.625 770.8125 C423.74756906 773.88016826 421.93906961 776.95028887 420.25 780.125 C417.29950309 785.5086989 413.8980523 790.6019395 410.53662109 795.734375 C407.38175051 800.56060778 404.37967674 805.4415854 401.55859375 810.47265625 C401.18863281 810.99730469 400.81867187 811.52195312 400.4375 812.0625 C399.7775 812.0625 399.1175 812.0625 398.4375 812.0625 C398.19386719 812.76890625 397.95023438 813.4753125 397.69921875 814.203125 C396.25450028 817.47722383 394.43003155 819.97583244 392.25 822.8125 C391.44820312 823.86050781 390.64640625 824.90851562 389.8203125 825.98828125 C389.03398438 827.00277344 388.24765625 828.01726563 387.4375 829.0625 C386.77492188 829.92230469 386.11234375 830.78210938 385.4296875 831.66796875 C383.77459529 833.8066918 382.1090725 835.9366479 380.4375 838.0625 C379.7775 838.908125 379.1175 839.75375 378.4375 840.625 C376.65195084 842.80113804 374.80920183 844.89830091 372.9375 847 C370.84631651 849.36704173 369.07258295 851.60987558 367.3125 854.25 C365.28678145 857.28857783 363.03438507 859.49086242 360.4375 862.0625 C359.37225152 863.19028057 358.312742 864.32349867 357.2578125 865.4609375 C349.14444681 874.19926365 340.86085906 882.74922454 332.4375 891.1875 C331.70542328 891.92332306 331.70542328 891.92332306 330.95855713 892.67401123 C323.70756941 899.95551529 316.31091034 906.87228138 308.25 913.25 C307.45207031 913.88292969 306.65414062 914.51585937 305.83203125 915.16796875 C304.18256966 916.47300769 302.53281267 917.77767332 300.8828125 919.08203125 C298.69538657 920.8536366 296.59191491 922.68020437 294.5 924.5625 C291.30253604 927.3774636 288.02063532 929.74839177 284.4375 932.0625 C283.11812812 933.03238734 281.80608313 934.0122903 280.5 935 C269.8115458 943.0625 269.8115458 943.0625 267.4375 943.0625 C267.4375 943.7225 267.4375 944.3825 267.4375 945.0625 C260.6875 949.0625 260.6875 949.0625 258.4375 949.0625 C258.4375 949.7225 258.4375 950.3825 258.4375 951.0625 C256.84863281 952.25170898 256.84863281 952.25170898 254.640625 953.55859375 C253.44953125 954.27305664 253.44953125 954.27305664 252.234375 955.00195312 C250.97367188 955.74348633 250.97367188 955.74348633 249.6875 956.5 C248.04579263 957.47604633 246.4051321 958.45385604 244.765625 959.43359375 C244.0324707 959.86599365 243.29931641 960.29839355 242.54394531 960.74389648 C240.39234118 962.04765522 240.39234118 962.04765522 238.31787109 963.66601562 C236.13557367 965.28672989 233.9595004 966.06055724 231.4375 967.0625 C229.62358938 968.17278453 227.83244083 969.32088469 226.0625 970.5 C221.95083011 973.16436209 217.97600265 975.19847213 213.4375 977.0625 C211.59554155 978.04652245 209.76290954 979.04810801 207.9375 980.0625 C203.84613558 982.32746158 199.74984977 984.24677378 195.4375 986.0625 C193.49581545 987.03334227 191.55874794 988.01344412 189.625 989 C185.12909099 991.27032221 180.62424244 993.26045865 175.92578125 995.06640625 C173.25323767 996.13626278 170.66694478 997.33665975 168.0625 998.5625 C163.31028402 1000.75172309 158.51129418 1002.43968949 153.53125 1004.03125 C150.32418897 1005.10027034 147.2030602 1006.31237409 144.0625 1007.5625 C138.48093218 1009.73937782 132.86504601 1011.44865314 127.08984375 1013.03125 C123.92511174 1013.92482139 120.80066046 1014.89954441 117.67431641 1015.91796875 C109.92780247 1018.43096909 102.15942767 1020.34183015 94.1953125 1022.02734375 C90.90169932 1022.72841872 87.63323203 1023.49647615 84.3671875 1024.31640625 C72.11148442 1027.39068312 59.9749272 1029.53162599 47.4375 1031.0625 C46.1049586 1031.22785124 44.7724405 1031.39339021 43.43994141 1031.55908203 C38.98195704 1032.1116378 34.52248613 1032.65137021 30.0625 1033.1875 C29.34865143 1033.27403839 28.63480286 1033.36057678 27.89932251 1033.44973755 C9.78416108 1035.63289955 -8.13510065 1036.30136333 -26.375 1036.3125 C-27.52190308 1036.31350708 -28.66880615 1036.31451416 -29.85046387 1036.31555176 C-56.71927537 1036.29965693 -82.69786458 1034.30707473 -109.15869141 1029.47509766 C-112.40528877 1028.91784095 -115.66409863 1028.55039668 -118.9375 1028.1875 C-129.30224335 1026.87876127 -139.43061714 1024.23040735 -149.57373047 1021.78222656 C-152.10004537 1021.17386385 -154.62882818 1020.57921207 -157.16015625 1019.9921875 C-165.71650061 1017.97488879 -173.99374454 1015.35375898 -182.30078125 1012.50390625 C-185.98734818 1011.24217153 -189.69997078 1010.10295068 -193.4375 1009 C-198.62588299 1007.43172302 -203.55745197 1005.49391568 -208.515625 1003.30859375 C-210.96347601 1002.30748545 -213.37217922 1001.44663679 -215.8828125 1000.62890625 C-238.33640846 993.26511765 -259.82795249 981.93515237 -280.32910156 970.32617188 C-282.46170443 969.11953081 -284.60087535 967.92547348 -286.7421875 966.734375 C-291.98653924 963.79428961 -296.88389863 960.86286562 -301.5625 957.0625 C-302.8928125 956.4128125 -302.8928125 956.4128125 -304.25 955.75 C-308.09380332 953.79183604 -311.44720731 951.4145192 -314.94921875 948.90625 C-318.21331506 946.60333003 -321.56813296 944.45686673 -324.9453125 942.32421875 C-325.47898437 941.90785156 -326.01265625 941.49148438 -326.5625 941.0625 C-326.5625 940.4025 -326.5625 939.7425 -326.5625 939.0625 C-327.3875 938.876875 -328.2125 938.69125 -329.0625 938.5 C-333.04494527 936.86435284 -335.44075354 934.74628039 -338.53515625 931.81640625 C-340.51964854 929.99383208 -340.51964854 929.99383208 -342.8984375 928.68359375 C-346.27905972 926.62647026 -349.14213204 924.15062709 -352.125 921.5625 C-353.25041214 920.59271628 -354.37669293 919.62393956 -355.50390625 918.65625 C-356.02871582 918.20378906 -356.55352539 917.75132812 -357.09423828 917.28515625 C-358.33949508 916.24820147 -359.64693324 915.28664533 -360.96484375 914.34375 C-361.49207031 913.9209375 -362.01929688 913.498125 -362.5625 913.0625 C-362.5625 912.4025 -362.5625 911.7425 -362.5625 911.0625 C-363.3978125 910.9696875 -363.3978125 910.9696875 -364.25 910.875 C-367.55318042 909.7144231 -369.28144733 907.66036554 -371.5625 905.0625 C-371.5625 904.4025 -371.5625 903.7425 -371.5625 903.0625 C-372.26375 902.876875 -372.965 902.69125 -373.6875 902.5 C-377.11470014 900.78639993 -378.65494731 898.73892803 -381.01953125 895.796875 C-383.1883868 893.35897154 -385.84127644 891.83721102 -388.5625 890.0625 C-389.91636936 888.41247172 -391.24928142 886.7450613 -392.5625 885.0625 C-393.5525 884.2375 -394.5425 883.4125 -395.5625 882.5625 C-398.36716359 880.22528034 -400.33828358 877.93245667 -402.5625 875.0625 C-405.01387025 872.5482741 -407.5167564 870.10595642 -410.0625 867.6875 C-412.4180332 865.21419014 -414.28207715 862.74428318 -416.15625 859.90625 C-418.07115683 857.39559438 -420.32698728 855.29150468 -422.5625 853.0625 C-424.41948505 850.9953414 -426.21337442 848.87807098 -428 846.75 C-428.47864502 846.18112061 -428.95729004 845.61224121 -429.45043945 845.02612305 C-439.5625 832.93930513 -439.5625 832.93930513 -439.5625 830.0625 C-440.5525 829.7325 -441.5425 829.4025 -442.5625 829.0625 C-443.7734375 827.42578125 -443.7734375 827.42578125 -444.9375 825.375 C-446.54534759 822.66145541 -448.08084344 820.44301638 -450.125 818 C-452.26677414 815.41888757 -453.87806338 812.88528114 -455.484375 809.953125 C-456.65428486 807.90154393 -457.92994198 805.95832782 -459.25 804 C-474.53917584 781.31783027 -488.75260522 757.48347773 -499.57421875 732.3125 C-500.82247031 729.47063084 -502.16880185 726.67894143 -503.5 723.875 C-506.17153565 718.12144086 -508.33581729 712.28265371 -510.40234375 706.2890625 C-511.6359482 702.85822992 -513.06049098 699.58999068 -514.66796875 696.3203125 C-515.72030181 693.66420548 -516.34107202 690.9553346 -517.0065918 688.18164062 C-517.89753772 684.78532504 -519.14926338 681.53693343 -520.375 678.25 C-523.17016015 670.54472361 -525.33352316 662.76634174 -527.33984375 654.82421875 C-528.32644014 650.92162882 -529.41422285 647.05695603 -530.53686523 643.19165039 C-532.7562442 635.50252243 -534.47189524 627.8746343 -535.74609375 619.9765625 C-536.35813978 616.18618618 -537.0587775 612.41855799 -537.78515625 608.6484375 C-540.74926055 593.11056576 -542.64157692 577.84425843 -543.5625 562.0625 C-543.65132731 560.65456828 -543.74105402 559.24669309 -543.83154297 557.83886719 C-544.0794971 553.97723903 -544.31760544 550.11511256 -544.54873657 546.25244141 C-544.63865591 544.75234881 -544.73001618 543.25234161 -544.8230896 541.75244141 C-546.0855443 521.10062696 -545.72362543 500.51695557 -544.4375 479.875 C-544.37447693 478.84600586 -544.31145386 477.81701172 -544.246521 476.75683594 C-543.01426027 457.23307587 -540.34802646 438.23872668 -536.5625 419.0625 C-536.13264889 416.79299973 -535.70295077 414.52347048 -535.2734375 412.25390625 C-532.89548964 400.02840073 -529.76066811 388.10917804 -526.18652344 376.18310547 C-525.41881487 373.57421789 -524.73600873 370.94710767 -524.0625 368.3125 C-522.60044773 362.85591206 -520.66986876 357.57300699 -518.75610352 352.26220703 C-517.37900327 348.43001469 -516.09538161 344.61209582 -515 340.6875 C-513.70456597 336.18396171 -511.80955397 332.07560246 -509.8125 327.84375 C-508.59611876 325.13730175 -507.59189997 322.42900993 -506.625 319.625 C-504.82099442 314.49782623 -502.47693853 309.77655843 -499.9921875 304.94921875 C-498.74413872 302.4292514 -497.68199186 299.93954266 -496.6875 297.3125 C-492.797135 287.26239042 -487.68293005 277.58664622 -482.00390625 268.44140625 C-479.84300367 264.87503858 -477.9069247 261.19273511 -475.95703125 257.5078125 C-474.5625 255.0625 -474.5625 255.0625 -473.07421875 253.1171875 C-471.45216798 251.03641828 -471.45216798 251.03641828 -470.21484375 248.34765625 C-468.12931084 244.20124211 -465.65873654 240.38370594 -463.125 236.5 C-462.64740234 235.75814453 -462.16980469 235.01628906 -461.67773438 234.25195312 C-459.14369963 230.34835777 -456.48307604 226.68996706 -453.5625 223.0625 C-453.10875 222.30195313 -452.655 221.54140625 -452.1875 220.7578125 C-449.89739343 216.95931843 -447.23115918 213.47637413 -444.5625 209.9375 C-444.02882813 209.22207031 -443.49515625 208.50664062 -442.9453125 207.76953125 C-442.42710937 207.07988281 -441.90890625 206.39023438 -441.375 205.6796875 C-440.90707031 205.05690918 -440.43914062 204.43413086 -439.95703125 203.79248047 C-438.5625 202.0625 -438.5625 202.0625 -436.96875 200.47705078 C-435.42392701 199.04176663 -435.42392701 199.04176663 -434.25 196.8125 C-432.04363962 193.21694974 -429.35314591 190.21428832 -426.5625 187.0625 C-426.02496094 186.44375 -425.48742187 185.825 -424.93359375 185.1875 C-420.9989898 180.65951031 -416.99483742 176.19672342 -412.96875 171.75 C-411.68489918 170.3160887 -410.40554989 168.87762943 -409.15991211 167.41040039 C-404.00047563 161.36837697 -398.41746355 155.76556394 -392.79272461 150.16235352 C-391.12823723 148.5032268 -389.46916553 146.83881949 -387.81054688 145.17382812 C-382.23237486 139.5921648 -376.570317 134.18367166 -370.5625 129.0625 C-368.85087223 127.50360956 -367.14200171 125.94167896 -365.4375 124.375 C-362.80277327 121.99043109 -360.25181703 119.71853806 -357.25 117.8125 C-354.42196936 116.10283617 -354.42196936 116.10283617 -351.9375 113.4375 C-349.74028784 111.24028784 -348.26137136 110.41193568 -345.5625 109.0625 C-344.83417969 108.31742187 -344.10585938 107.57234375 -343.35546875 106.8046875 C-340.37807545 103.88142863 -337.28987185 101.55978445 -333.875 99.1875 C-333.25343018 98.75042725 -332.63186035 98.31335449 -331.99145508 97.86303711 C-330.74733185 96.98888826 -329.50184047 96.11668284 -328.25488281 95.24658203 C-326.83811907 94.25533793 -325.42973218 93.25213533 -324.0234375 92.24609375 C-310.2425029 82.41948231 -295.83995313 73.57589885 -281.01171875 65.4296875 C-279.14997149 64.39043464 -277.30051848 63.32912206 -275.45703125 62.2578125 C-263.74864221 55.45768599 -251.85592624 49.26056377 -239.28125 44.20703125 C-236.67069975 43.10804961 -234.19497323 41.87729522 -231.6875 40.5625 C-226.58678449 37.94232569 -221.28879923 36.11682732 -215.875 34.25 C-213.16443062 33.27828645 -210.60131341 32.22414749 -208 31 C-203.48611212 28.92178274 -198.83325335 27.53837643 -194.07421875 26.12890625 C-190.43371246 25.02339099 -186.846949 23.80191235 -183.25 22.5625 C-177.47890254 20.6011444 -171.67863892 19.00312621 -165.75244141 17.58422852 C-161.43285773 16.54675801 -157.16486926 15.3931555 -152.89819336 14.15625 C-144.3718963 11.69478652 -135.91983784 9.91850187 -127.16601562 8.50439453 C-124.12866439 7.98886511 -121.10448975 7.41635662 -118.078125 6.83984375 C-104.10734479 4.20198381 -90.31296693 2.2045679 -76.1262207 1.24975586 C-73.47770596 1.05630659 -70.83838225 0.80765066 -68.1953125 0.55078125 C-62.13653955 -0.01016678 -56.07940824 -0.27592513 -50 -0.5 C-48.96037109 -0.54318359 -47.92074219 -0.58636719 -46.84960938 -0.63085938 C-31.18400876 -1.22791493 -15.64329172 -0.92597798 0 0 Z " fill="#000000" transform="translate(569.5625,24.9375)"/>
<path d="M0 0 C1.55661464 0.08834972 3.11325538 0.17624065 4.66992188 0.26367188 C7.75207146 0.43735053 10.83374892 0.61750633 13.9152832 0.80175781 C16.88972311 0.97792509 19.86403987 1.13252717 22.84057617 1.26855469 C32.23557744 1.71722703 41.34959006 2.79807983 50.625 4.4375 C51.86185547 4.64632813 53.09871094 4.85515625 54.37304688 5.0703125 C61.74785552 6.33610907 69.05824904 7.80670944 76.36743164 9.40625 C79.92182292 10.16602764 83.47726054 10.78015779 87.0625 11.375 C95.18152878 12.80991572 102.95019663 15.2100143 110.8125 17.65625 C114.41167173 18.77083221 118.0126568 19.7236771 121.6875 20.5625 C127.12912991 21.85958809 132.23759342 23.78575887 137.4440918 25.80078125 C141.58972152 27.39795317 145.73353105 28.8098144 150 30.0625 C161.19008535 33.420902 171.78421233 38.07904304 182.27636719 43.17089844 C185.87210279 44.90622404 189.47265085 46.48640669 193.19921875 47.921875 C199.16013195 50.26919538 204.77632946 53.20066933 210.4375 56.1875 C211.47261719 56.72503906 212.50773438 57.26257813 213.57421875 57.81640625 C221.1762749 61.8012749 221.1762749 61.8012749 223.4375 64.0625 C225.06425793 64.7403158 226.69136342 65.41731083 228.3203125 66.08984375 C234.99622908 69.15682388 241.09154583 73.46022873 247.16015625 77.56640625 C249.52557144 79.12035825 251.93561947 80.56529413 254.375 82 C261.30602575 86.11999054 267.81036657 90.74110433 274.125 95.75 C276.72887846 97.81197783 279.26293152 99.61467591 282.1875 101.1875 C285.5829097 103.14639021 287.67459427 105.29959427 290.4375 108.0625 C292.50243672 109.72621844 294.5691014 111.34649962 296.6875 112.9375 C297.83860606 113.8137175 298.98964743 114.69001997 300.140625 115.56640625 C301.2393872 116.39869649 302.33833355 117.2307437 303.4375 118.0625 C308.40664468 121.8329475 313.13532961 125.52132015 317.4375 130.0625 C320.99975118 133.72102824 324.72771618 137.0916758 328.5859375 140.4296875 C330.62356351 142.22658133 332.51701296 144.14201296 334.4375 146.0625 C335.241875 146.701875 336.04625 147.34125 336.875 148 C340.94766507 151.27799871 344.26996277 154.76304497 347.3125 159 C349.77494168 162.36932557 352.40161976 164.87069909 355.6328125 167.484375 C358.35125128 169.86153792 360.62699338 172.57686747 362.95703125 175.328125 C364.47481592 177.15230537 364.47481592 177.15230537 366.4375 179.0625 C366.4375 180.0525 366.4375 181.0425 366.4375 182.0625 C366.98277344 182.24941406 367.52804687 182.43632812 368.08984375 182.62890625 C371.5608477 184.74847106 373.58346067 187.77468637 376 191 C376.95785454 192.26046989 377.91743606 193.51962965 378.87890625 194.77734375 C379.29857666 195.33542725 379.71824707 195.89351074 380.15063477 196.46850586 C381.41653284 198.10276629 381.41653284 198.10276629 382.97631836 199.55297852 C384.92259531 201.56364358 386.0621893 203.92711297 387.39453125 206.3671875 C388.45806696 208.25182558 388.45806696 208.25182558 390.5625 210.125 C392.90130901 212.54176931 393.38674952 214.91024855 394.4375 218.0625 C395.4275 218.3925 396.4175 218.7225 397.4375 219.0625 C398.74023438 220.6730957 398.74023438 220.6730957 400.03125 222.73828125 C400.50433594 223.48400391 400.97742188 224.22972656 401.46484375 224.99804688 C401.95082031 225.78244141 402.43679688 226.56683594 402.9375 227.375 C403.90501917 228.91353512 404.87373301 230.45131973 405.84375 231.98828125 C406.26978516 232.67317627 406.69582031 233.35807129 407.13476562 234.0637207 C408.43352475 236.11691543 408.43352475 236.11691543 410.05664062 238.14526367 C411.69719267 240.42306692 412.05497275 242.30830383 412.4375 245.0625 C413.0975 245.0625 413.7575 245.0625 414.4375 245.0625 C415.76953125 246.93359375 415.76953125 246.93359375 417.25 249.5 C417.73082031 250.32371094 418.21164062 251.14742187 418.70703125 251.99609375 C420.51300609 255.19629748 422.30233353 258.40518266 424.08325195 261.61938477 C424.98712599 263.25000807 425.89321999 264.87940276 426.80151367 266.50756836 C432.45202307 276.64690165 437.94564293 286.83026359 442.9375 297.3125 C443.33412842 298.14426758 443.73075684 298.97603516 444.1394043 299.83300781 C446.45564312 304.76758204 448.54929652 309.75823426 450.54443359 314.83056641 C451.60283843 317.47571049 452.7794826 320.05103757 454 322.625 C455.78459107 326.50783754 457.27760404 330.34451288 458.5546875 334.41796875 C459.28107061 336.593904 460.05945782 338.72329143 460.8828125 340.86328125 C461.14779541 341.55333252 461.41277832 342.24338379 461.68579102 342.9543457 C462.21250394 344.31811365 462.74393346 345.68007334 463.28100586 347.03979492 C464.60352627 350.47732045 465.65631076 353.82092749 466.40625 357.4296875 C467.46422515 362.51014399 469.15581952 367.2988781 470.875 372.1875 C473.33320929 379.37621289 475.30865999 386.38774987 476.62890625 393.8828125 C477.43101737 398.28617149 478.53884347 402.60441972 479.62719727 406.94433594 C482.44516626 418.22300426 484.65763728 429.36937868 486.0546875 440.90722656 C486.42385382 443.95002343 486.80812151 446.99069073 487.19570923 450.03118896 C487.65761703 453.66584112 488.11015928 457.30164703 488.5625 460.9375 C488.64912903 461.62779297 488.73575806 462.31808594 488.82501221 463.02929688 C491.04750527 480.84745958 491.64292971 498.43432898 491.625 516.375 C491.62439575 517.48877014 491.6237915 518.60254028 491.62316895 519.75006104 C491.58667255 544.50663502 489.65772967 568.34686807 485.91796875 592.83105469 C485.47600585 595.80352466 485.07125995 598.77734721 484.6875 601.7578125 C483.20248922 613.19606869 480.91789106 624.24515919 478.09033203 635.42431641 C477.4325874 638.0823525 476.81732925 640.74690109 476.21484375 643.41796875 C473.76685452 654.21554348 470.75778479 664.6201392 467.11328125 675.07128906 C466.11844878 678.00259455 465.24950172 680.96842561 464.375 683.9375 C462.78480294 689.20502775 460.76861643 694.18385049 458.5859375 699.23046875 C457.53302843 701.8269282 456.7322907 704.36163959 456 707.0625 C454.61254851 711.98164619 452.43289915 716.31113733 450.03515625 720.8125 C448.7391647 723.44884467 447.62885722 726.03594248 446.55859375 728.765625 C444.41026014 734.22723009 441.96598642 739.51800268 439.4375 744.8125 C438.79941406 746.17181641 438.79941406 746.17181641 438.1484375 747.55859375 C435.8745354 752.33657821 433.41336755 756.67566076 430.4375 761.0625 C429.74709426 762.71947379 429.07844258 764.38577258 428.4375 766.0625 C427.53286798 767.66483942 426.59379233 769.24811766 425.625 770.8125 C423.74756906 773.88016826 421.93906961 776.95028887 420.25 780.125 C417.29950309 785.5086989 413.8980523 790.6019395 410.53662109 795.734375 C407.38175051 800.56060778 404.37967674 805.4415854 401.55859375 810.47265625 C401.18863281 810.99730469 400.81867187 811.52195312 400.4375 812.0625 C399.7775 812.0625 399.1175 812.0625 398.4375 812.0625 C398.19386719 812.76890625 397.95023438 813.4753125 397.69921875 814.203125 C396.25450028 817.47722383 394.43003155 819.97583244 392.25 822.8125 C391.44820312 823.86050781 390.64640625 824.90851562 389.8203125 825.98828125 C389.03398438 827.00277344 388.24765625 828.01726563 387.4375 829.0625 C386.77492188 829.92230469 386.11234375 830.78210938 385.4296875 831.66796875 C383.77459529 833.8066918 382.1090725 835.9366479 380.4375 838.0625 C379.7775 838.908125 379.1175 839.75375 378.4375 840.625 C376.65195084 842.80113804 374.80920183 844.89830091 372.9375 847 C370.84631651 849.36704173 369.07258295 851.60987558 367.3125 854.25 C365.28678145 857.28857783 363.03438507 859.49086242 360.4375 862.0625 C359.37225152 863.19028057 358.312742 864.32349867 357.2578125 865.4609375 C349.14444681 874.19926365 340.86085906 882.74922454 332.4375 891.1875 C331.70542328 891.92332306 331.70542328 891.92332306 330.95855713 892.67401123 C323.70756941 899.95551529 316.31091034 906.87228138 308.25 913.25 C307.45207031 913.88292969 306.65414062 914.51585937 305.83203125 915.16796875 C304.18256966 916.47300769 302.53281267 917.77767332 300.8828125 919.08203125 C298.69538657 920.8536366 296.59191491 922.68020437 294.5 924.5625 C291.30253604 927.3774636 288.02063532 929.74839177 284.4375 932.0625 C283.11812812 933.03238734 281.80608313 934.0122903 280.5 935 C269.8115458 943.0625 269.8115458 943.0625 267.4375 943.0625 C267.4375 943.7225 267.4375 944.3825 267.4375 945.0625 C260.6875 949.0625 260.6875 949.0625 258.4375 949.0625 C258.4375 949.7225 258.4375 950.3825 258.4375 951.0625 C256.84863281 952.25170898 256.84863281 952.25170898 254.640625 953.55859375 C253.44953125 954.27305664 253.44953125 954.27305664 252.234375 955.00195312 C250.97367188 955.74348633 250.97367188 955.74348633 249.6875 956.5 C248.04579263 957.47604633 246.4051321 958.45385604 244.765625 959.43359375 C244.0324707 959.86599365 243.29931641 960.29839355 242.54394531 960.74389648 C240.39234118 962.04765522 240.39234118 962.04765522 238.31787109 963.66601562 C236.13557367 965.28672989 233.9595004 966.06055724 231.4375 967.0625 C229.62358938 968.17278453 227.83244083 969.32088469 226.0625 970.5 C221.95083011 973.16436209 217.97600265 975.19847213 213.4375 977.0625 C211.59554155 978.04652245 209.76290954 979.04810801 207.9375 980.0625 C203.84613558 982.32746158 199.74984977 984.24677378 195.4375 986.0625 C193.49581545 987.03334227 191.55874794 988.01344412 189.625 989 C185.12909099 991.27032221 180.62424244 993.26045865 175.92578125 995.06640625 C173.25323767 996.13626278 170.66694478 997.33665975 168.0625 998.5625 C163.31028402 1000.75172309 158.51129418 1002.43968949 153.53125 1004.03125 C150.32418897 1005.10027034 147.2030602 1006.31237409 144.0625 1007.5625 C138.48093218 1009.73937782 132.86504601 1011.44865314 127.08984375 1013.03125 C123.92511174 1013.92482139 120.80066046 1014.89954441 117.67431641 1015.91796875 C109.92780247 1018.43096909 102.15942767 1020.34183015 94.1953125 1022.02734375 C90.90169932 1022.72841872 87.63323203 1023.49647615 84.3671875 1024.31640625 C72.11148442 1027.39068312 59.9749272 1029.53162599 47.4375 1031.0625 C46.1049586 1031.22785124 44.7724405 1031.39339021 43.43994141 1031.55908203 C38.98195704 1032.1116378 34.52248613 1032.65137021 30.0625 1033.1875 C29.34865143 1033.27403839 28.63480286 1033.36057678 27.89932251 1033.44973755 C9.78416108 1035.63289955 -8.13510065 1036.30136333 -26.375 1036.3125 C-27.52190308 1036.31350708 -28.66880615 1036.31451416 -29.85046387 1036.31555176 C-56.71927537 1036.29965693 -82.69786458 1034.30707473 -109.15869141 1029.47509766 C-112.40528877 1028.91784095 -115.66409863 1028.55039668 -118.9375 1028.1875 C-129.30224335 1026.87876127 -139.43061714 1024.23040735 -149.57373047 1021.78222656 C-152.10004537 1021.17386385 -154.62882818 1020.57921207 -157.16015625 1019.9921875 C-165.71650061 1017.97488879 -173.99374454 1015.35375898 -182.30078125 1012.50390625 C-185.98734818 1011.24217153 -189.69997078 1010.10295068 -193.4375 1009 C-198.62588299 1007.43172302 -203.55745197 1005.49391568 -208.515625 1003.30859375 C-210.96347601 1002.30748545 -213.37217922 1001.44663679 -215.8828125 1000.62890625 C-238.33640846 993.26511765 -259.82795249 981.93515237 -280.32910156 970.32617188 C-282.46170443 969.11953081 -284.60087535 967.92547348 -286.7421875 966.734375 C-291.98653924 963.79428961 -296.88389863 960.86286562 -301.5625 957.0625 C-302.8928125 956.4128125 -302.8928125 956.4128125 -304.25 955.75 C-308.09380332 953.79183604 -311.44720731 951.4145192 -314.94921875 948.90625 C-318.21331506 946.60333003 -321.56813296 944.45686673 -324.9453125 942.32421875 C-325.47898437 941.90785156 -326.01265625 941.49148438 -326.5625 941.0625 C-326.5625 940.4025 -326.5625 939.7425 -326.5625 939.0625 C-327.3875 938.876875 -328.2125 938.69125 -329.0625 938.5 C-333.04494527 936.86435284 -335.44075354 934.74628039 -338.53515625 931.81640625 C-340.51964854 929.99383208 -340.51964854 929.99383208 -342.8984375 928.68359375 C-346.27905972 926.62647026 -349.14213204 924.15062709 -352.125 921.5625 C-353.25041214 920.59271628 -354.37669293 919.62393956 -355.50390625 918.65625 C-356.02871582 918.20378906 -356.55352539 917.75132812 -357.09423828 917.28515625 C-358.33949508 916.24820147 -359.64693324 915.28664533 -360.96484375 914.34375 C-361.49207031 913.9209375 -362.01929688 913.498125 -362.5625 913.0625 C-362.5625 912.4025 -362.5625 911.7425 -362.5625 911.0625 C-363.3978125 910.9696875 -363.3978125 910.9696875 -364.25 910.875 C-367.55318042 909.7144231 -369.28144733 907.66036554 -371.5625 905.0625 C-371.5625 904.4025 -371.5625 903.7425 -371.5625 903.0625 C-372.26375 902.876875 -372.965 902.69125 -373.6875 902.5 C-377.11470014 900.78639993 -378.65494731 898.73892803 -381.01953125 895.796875 C-383.1883868 893.35897154 -385.84127644 891.83721102 -388.5625 890.0625 C-389.91636936 888.41247172 -391.24928142 886.7450613 -392.5625 885.0625 C-393.5525 884.2375 -394.5425 883.4125 -395.5625 882.5625 C-398.36716359 880.22528034 -400.33828358 877.93245667 -402.5625 875.0625 C-405.01387025 872.5482741 -407.5167564 870.10595642 -410.0625 867.6875 C-412.4180332 865.21419014 -414.28207715 862.74428318 -416.15625 859.90625 C-418.07115683 857.39559438 -420.32698728 855.29150468 -422.5625 853.0625 C-424.41948505 850.9953414 -426.21337442 848.87807098 -428 846.75 C-428.47864502 846.18112061 -428.95729004 845.61224121 -429.45043945 845.02612305 C-439.5625 832.93930513 -439.5625 832.93930513 -439.5625 830.0625 C-440.5525 829.7325 -441.5425 829.4025 -442.5625 829.0625 C-443.7734375 827.42578125 -443.7734375 827.42578125 -444.9375 825.375 C-446.54534759 822.66145541 -448.08084344 820.44301638 -450.125 818 C-452.26677414 815.41888757 -453.87806338 812.88528114 -455.484375 809.953125 C-456.65428486 807.90154393 -457.92994198 805.95832782 -459.25 804 C-474.53917584 781.31783027 -488.75260522 757.48347773 -499.57421875 732.3125 C-500.82247031 729.47063084 -502.16880185 726.67894143 -503.5 723.875 C-506.17153565 718.12144086 -508.33581729 712.28265371 -510.40234375 706.2890625 C-511.6359482 702.85822992 -513.06049098 699.58999068 -514.66796875 696.3203125 C-515.72030181 693.66420548 -516.34107202 690.9553346 -517.0065918 688.18164062 C-517.89753772 684.78532504 -519.14926338 681.53693343 -520.375 678.25 C-523.17016015 670.54472361 -525.33352316 662.76634174 -527.33984375 654.82421875 C-528.32644014 650.92162882 -529.41422285 647.05695603 -530.53686523 643.19165039 C-532.7562442 635.50252243 -534.47189524 627.8746343 -535.74609375 619.9765625 C-536.35813978 616.18618618 -537.0587775 612.41855799 -537.78515625 608.6484375 C-540.74926055 593.11056576 -542.64157692 577.84425843 -543.5625 562.0625 C-543.65132731 560.65456828 -543.74105402 559.24669309 -543.83154297 557.83886719 C-544.0794971 553.97723903 -544.31760544 550.11511256 -544.54873657 546.25244141 C-544.63865591 544.75234881 -544.73001618 543.25234161 -544.8230896 541.75244141 C-546.0855443 521.10062696 -545.72362543 500.51695557 -544.4375 479.875 C-544.37447693 478.84600586 -544.31145386 477.81701172 -544.246521 476.75683594 C-543.01426027 457.23307587 -540.34802646 438.23872668 -536.5625 419.0625 C-536.13264889 416.79299973 -535.70295077 414.52347048 -535.2734375 412.25390625 C-532.89548964 400.02840073 -529.76066811 388.10917804 -526.18652344 376.18310547 C-525.41881487 373.57421789 -524.73600873 370.94710767 -524.0625 368.3125 C-522.60044773 362.85591206 -520.66986876 357.57300699 -518.75610352 352.26220703 C-517.37900327 348.43001469 -516.09538161 344.61209582 -515 340.6875 C-513.70456597 336.18396171 -511.80955397 332.07560246 -509.8125 327.84375 C-508.59611876 325.13730175 -507.59189997 322.42900993 -506.625 319.625 C-504.82099442 314.49782623 -502.47693853 309.77655843 -499.9921875 304.94921875 C-498.74413872 302.4292514 -497.68199186 299.93954266 -496.6875 297.3125 C-492.797135 287.26239042 -487.68293005 277.58664622 -482.00390625 268.44140625 C-479.84300367 264.87503858 -477.9069247 261.19273511 -475.95703125 257.5078125 C-474.5625 255.0625 -474.5625 255.0625 -473.07421875 253.1171875 C-471.45216798 251.03641828 -471.45216798 251.03641828 -470.21484375 248.34765625 C-468.12931084 244.20124211 -465.65873654 240.38370594 -463.125 236.5 C-462.64740234 235.75814453 -462.16980469 235.01628906 -461.67773438 234.25195312 C-459.14369963 230.34835777 -456.48307604 226.68996706 -453.5625 223.0625 C-453.10875 222.30195313 -452.655 221.54140625 -452.1875 220.7578125 C-449.89739343 216.95931843 -447.23115918 213.47637413 -444.5625 209.9375 C-444.02882813 209.22207031 -443.49515625 208.50664062 -442.9453125 207.76953125 C-442.42710937 207.07988281 -441.90890625 206.39023438 -441.375 205.6796875 C-440.90707031 205.05690918 -440.43914062 204.43413086 -439.95703125 203.79248047 C-438.5625 202.0625 -438.5625 202.0625 -436.96875 200.47705078 C-435.42392701 199.04176663 -435.42392701 199.04176663 -434.25 196.8125 C-432.04363962 193.21694974 -429.35314591 190.21428832 -426.5625 187.0625 C-426.02496094 186.44375 -425.48742187 185.825 -424.93359375 185.1875 C-420.9989898 180.65951031 -416.99483742 176.19672342 -412.96875 171.75 C-411.68489918 170.3160887 -410.40554989 168.87762943 -409.15991211 167.41040039 C-404.00047563 161.36837697 -398.41746355 155.76556394 -392.79272461 150.16235352 C-391.12823723 148.5032268 -389.46916553 146.83881949 -387.81054688 145.17382812 C-382.23237486 139.5921648 -376.570317 134.18367166 -370.5625 129.0625 C-368.85087223 127.50360956 -367.14200171 125.94167896 -365.4375 124.375 C-362.80277327 121.99043109 -360.25181703 119.71853806 -357.25 117.8125 C-354.42196936 116.10283617 -354.42196936 116.10283617 -351.9375 113.4375 C-349.74028784 111.24028784 -348.26137136 110.41193568 -345.5625 109.0625 C-344.83417969 108.31742187 -344.10585938 107.57234375 -343.35546875 106.8046875 C-340.37807545 103.88142863 -337.28987185 101.55978445 -333.875 99.1875 C-333.25343018 98.75042725 -332.63186035 98.31335449 -331.99145508 97.86303711 C-330.74733185 96.98888826 -329.50184047 96.11668284 -328.25488281 95.24658203 C-326.83811907 94.25533793 -325.42973218 93.25213533 -324.0234375 92.24609375 C-310.2425029 82.41948231 -295.83995313 73.57589885 -281.01171875 65.4296875 C-279.14997149 64.39043464 -277.30051848 63.32912206 -275.45703125 62.2578125 C-263.74864221 55.45768599 -251.85592624 49.26056377 -239.28125 44.20703125 C-236.67069975 43.10804961 -234.19497323 41.87729522 -231.6875 40.5625 C-226.58678449 37.94232569 -221.28879923 36.11682732 -215.875 34.25 C-213.16443062 33.27828645 -210.60131341 32.22414749 -208 31 C-203.48611212 28.92178274 -198.83325335 27.53837643 -194.07421875 26.12890625 C-190.43371246 25.02339099 -186.846949 23.80191235 -183.25 22.5625 C-177.47890254 20.6011444 -171.67863892 19.00312621 -165.75244141 17.58422852 C-161.43285773 16.54675801 -157.16486926 15.3931555 -152.89819336 14.15625 C-144.3718963 11.69478652 -135.91983784 9.91850187 -127.16601562 8.50439453 C-124.12866439 7.98886511 -121.10448975 7.41635662 -118.078125 6.83984375 C-104.10734479 4.20198381 -90.31296693 2.2045679 -76.1262207 1.24975586 C-73.47770596 1.05630659 -70.83838225 0.80765066 -68.1953125 0.55078125 C-62.13653955 -0.01016678 -56.07940824 -0.27592513 -50 -0.5 C-48.96037109 -0.54318359 -47.92074219 -0.58636719 -46.84960938 -0.63085938 C-31.18400876 -1.22791493 -15.64329172 -0.92597798 0 0 Z M-76.15039062 85.74267578 C-79.80325615 86.22701321 -83.44549106 86.32686448 -87.125 86.4375 C-98.16133374 86.88450046 -108.83450796 89.6037584 -119.5625 92.0625 C-120.56845215 92.28566895 -121.5744043 92.50883789 -122.61083984 92.73876953 C-163.01780783 101.70433045 -201.2613647 116.08908803 -237.55908203 135.96582031 C-239.36532885 136.95456766 -241.18021632 137.92749052 -242.99609375 138.8984375 C-255.00059582 145.49875196 -266.25698368 153.34774218 -277.5625 161.0625 C-278.28566406 161.55572754 -279.00882813 162.04895508 -279.75390625 162.55712891 C-292.52923422 171.32869008 -304.59637581 181.09074623 -315.9375 191.6484375 C-317.96851667 193.51624747 -320.02487736 195.31369446 -322.12109375 197.10546875 C-327.31950543 201.63929344 -332.17044614 206.52053406 -337.03540039 211.4050293 C-338.62209946 212.99708966 -340.21407742 214.5837299 -341.80664062 216.16992188 C-347.2679156 221.62730944 -352.58570126 227.15409213 -357.5625 233.0625 C-358.37074219 234.0009375 -359.17898438 234.939375 -360.01171875 235.90625 C-376.28155636 255.21425973 -391.15415689 276.06211276 -403.5625 298.0625 C-404.01689453 298.8659082 -404.47128906 299.66931641 -404.93945312 300.49707031 C-414.03959058 316.67709073 -422.90732966 333.1700656 -429.2890625 350.640625 C-430.30211343 353.36281093 -431.36017488 356.04744029 -432.4609375 358.734375 C-436.41098083 368.37890175 -439.99452314 377.97166972 -442.94230652 387.9694519 C-443.53445346 389.96784769 -444.13650952 391.96296639 -444.74145508 393.95751953 C-458.10692532 438.29756924 -462.44608982 483.28100894 -461.8359375 529.47265625 C-461.82517181 530.3725679 -461.81440613 531.27247955 -461.80331421 532.19966125 C-461.72577658 536.28677271 -461.50397747 540.06708243 -460.5625 544.0625 C-460.3962295 545.46099436 -460.25294816 546.86241448 -460.1328125 548.265625 C-460.0615918 549.06766357 -459.99037109 549.86970215 -459.91699219 550.69604492 C-459.84125977 551.5594751 -459.76552734 552.42290527 -459.6875 553.3125 C-459.32040148 557.22993618 -458.94239843 561.14628629 -458.5625 565.0625 C-458.46743164 566.05491699 -458.37236328 567.04733398 -458.27441406 568.06982422 C-456.76806212 583.34324515 -453.9935202 597.97494074 -450.29956055 612.86425781 C-449.51293236 616.27758316 -448.89298674 619.70177429 -448.26953125 623.1484375 C-446.61556386 631.56013523 -443.94570249 639.52590228 -441.11157227 647.60546875 C-440.25213057 650.05642405 -439.40712904 652.51198604 -438.56445312 654.96875 C-432.39989844 672.95338122 -432.39989844 672.95338122 -424.47753906 690.20458984 C-423.44729152 692.29642116 -422.62571703 694.42216397 -421.796875 696.6015625 C-419.53457791 702.30727774 -416.80184795 707.70128702 -413.9375 713.125 C-413.40898437 714.12942139 -412.88046875 715.13384277 -412.3359375 716.16870117 C-404.26486761 731.39532746 -395.30757412 745.85443732 -385.5625 760.0625 C-384.82362549 761.1457959 -384.82362549 761.1457959 -384.06982422 762.25097656 C-374.39878695 776.38581494 -363.91742703 789.72496022 -352.1953125 802.21875 C-350.22894111 804.3426645 -348.33739798 806.48640928 -346.45703125 808.68359375 C-342.07680111 813.71076844 -337.36921189 818.40594517 -332.6472168 823.1081543 C-331.12758332 824.6224258 -329.61337483 826.1419743 -328.09960938 827.66210938 C-322.76060288 833.00509605 -317.33797099 838.1883413 -311.5625 843.0625 C-310.6240625 843.87074219 -309.685625 844.67898438 -308.71875 845.51171875 C-287.41563186 863.46272859 -264.00858528 879.67510018 -239.5625 893.0625 C-238.73459961 893.51753906 -237.90669922 893.97257813 -237.05371094 894.44140625 C-216.3056246 905.75443042 -194.83795273 915.8650287 -172.33300781 923.16015625 C-169.13926941 924.20034458 -165.95700254 925.27284219 -162.7734375 926.34375 C-150.24172044 930.51533761 -137.88756498 934.16397755 -124.90820312 936.59130859 C-122.38426474 937.09830288 -119.89108695 937.68862152 -117.390625 938.30078125 C-104.69972638 941.4001216 -92.09971789 943.39846177 -79.10107422 944.69750977 C-76.47792136 944.96807783 -73.86406449 945.26470567 -71.24658203 945.58178711 C-58.48814667 947.06887174 -45.85847339 947.34136936 -33.02099609 947.26831055 C-29.64282865 947.24975462 -26.26493249 947.24780373 -22.88671875 947.24804688 C-20.71874763 947.24314024 -18.55077836 947.2373157 -16.3828125 947.23046875 C-15.38283234 947.22935593 -14.38285217 947.2282431 -13.35256958 947.22709656 C-8.63337775 947.19493121 -4.20915267 946.97665993 0.4375 946.0625 C1.92117956 945.9200872 3.40714345 945.79937457 4.89453125 945.703125 C50.26235734 942.44440039 93.87622316 931.99910325 135.75 914.1875 C136.55848389 913.84364258 137.36696777 913.49978516 138.19995117 913.14550781 C139.84074704 912.44661154 141.48113748 911.74676257 143.12109375 911.04589844 C145.22104028 910.154395 147.32742204 909.28123237 149.4375 908.4140625 C160.35404015 903.8660845 170.63027296 898.24025038 180.93896484 892.46240234 C183.09640566 891.25361149 185.25952199 890.05615529 187.42578125 888.86328125 C196.07855572 884.0322305 204.27816502 878.67076354 212.4375 873.0625 C213.23559082 872.51754883 214.03368164 871.97259766 214.85595703 871.41113281 C225.1360767 864.37953882 235.00361204 857.20235908 244.4375 849.0625 C246.2466732 847.60004155 248.0591895 846.14170927 249.875 844.6875 C260.20864826 836.21537419 269.70434704 826.90178814 279.1875 817.5 C280.0626123 816.63793945 280.93772461 815.77587891 281.83935547 814.88769531 C287.0301312 809.70378958 291.81304437 804.34647706 296.37744141 798.60229492 C298.5201669 795.96058204 300.76507677 793.44519673 303.0625 790.9375 C307.10858455 786.47429333 310.84662498 781.89821169 314.4375 777.0625 C314.8804541 776.47033691 315.3234082 775.87817383 315.77978516 775.26806641 C329.41963391 756.969836 341.39270448 737.84781219 352.04296875 717.66650391 C353.04617362 715.79322255 354.07247228 713.93224193 355.11328125 712.07958984 C355.93892578 710.6073999 355.93892578 710.6073999 356.78125 709.10546875 C357.28849609 708.21239014 357.79574219 707.31931152 358.31835938 706.39916992 C359.65347946 704.04336164 359.65347946 704.04336164 359.4375 701.0625 C360.0975 701.0625 360.7575 701.0625 361.4375 701.0625 C361.7675 698.7525 362.0975 696.4425 362.4375 694.0625 C363.0975 694.0625 363.7575 694.0625 364.4375 694.0625 C365.04284154 692.56297375 365.6466975 691.06284778 366.25 689.5625 C366.75466797 688.30953125 366.75466797 688.30953125 367.26953125 687.03125 C368.16538417 684.75416565 369.03405658 682.47292047 369.88671875 680.1796875 C371.07631268 676.98997418 372.34399778 673.83847632 373.63183594 670.68701172 C377.2755729 661.64391908 380.41382082 652.43630858 383.45214844 643.17596436 C383.93445989 641.70777274 384.42002726 640.24064586 384.90917969 638.77471924 C387.91265963 629.74848525 390.24062794 620.87546841 391.81323242 611.48803711 C392.36175565 608.47813122 393.07249171 605.66105144 394 602.75 C397.09032617 592.94787167 397.90087587 582.9645772 398.74047852 572.76660156 C398.85540649 571.38553223 398.85540649 571.38553223 398.97265625 569.9765625 C399.038479 569.1510791 399.10430176 568.3255957 399.17211914 567.47509766 C399.4375 565.0625 399.4375 565.0625 399.92132568 562.70532227 C403.04046917 546.73524858 402.80903386 529.89428471 402.75 513.6875 C402.74776428 512.15044403 402.74776428 512.15044403 402.7454834 510.58233643 C402.70803683 496.2126366 402.20785608 482.22520575 399.89941406 468.01806641 C399.38073576 464.69929286 398.9474418 461.37513844 398.5234375 458.04296875 C395.18941189 432.03033607 391.17371088 405.84892997 381.35327148 381.35864258 C380.49671985 379.21098379 380.06009195 377.33353667 379.6875 375.0625 C378.57926786 369.73411987 376.22840164 365.1379692 373.87890625 360.2578125 C372.63353029 357.49706036 371.72023649 354.91534188 370.9375 352 C369.54694526 346.91785351 367.2607849 342.46118216 364.83984375 337.796875 C363.4375 335.0625 363.4375 335.0625 362 331.625 C359.99004251 327.04229691 357.57821107 322.72027614 355.15625 318.34375 C353.4375 315.0625 353.4375 315.0625 351.953125 311.578125 C345.27457945 296.08665335 334.83973067 281.9964544 325.4375 268.0625 C324.84066406 267.175625 324.24382813 266.28875 323.62890625 265.375 C312.92560693 249.76923025 300.49148918 235.36652902 287.5949707 221.5480957 C284.8892225 218.64872762 282.25239069 215.71186091 279.6875 212.6875 C277.50868862 210.16712988 275.24545203 207.94985333 272.7109375 205.7890625 C269.29953027 202.83922616 266.01276754 199.79113912 262.75634766 196.67211914 C255.98483146 190.19401831 249.04546929 184.15198262 241.59375 178.47265625 C238.86530797 176.38918009 236.21001888 174.24670308 233.5625 172.0625 C224.23418075 164.57832953 214.11443418 157.99893589 203.984375 151.66015625 C202.29663532 150.60143611 200.61925352 149.5260082 198.953125 148.43359375 C191.08070581 143.29266546 182.89584642 138.76718251 174.64501953 134.27050781 C172.65088719 133.1792706 170.66617242 132.07297275 168.68359375 130.9609375 C155.16018384 123.45942574 140.79633801 117.749684 126.4375 112.0625 C125.28507813 111.60488281 124.13265625 111.14726562 122.9453125 110.67578125 C95.33635801 100.05940498 67.23574353 92.13133731 37.87402344 88.39355469 C34.7186662 87.9648308 31.58590282 87.43119087 28.44775391 86.89257812 C-5.60487042 81.137205 -42.01376154 80.50035746 -76.15039062 85.74267578 Z " fill="#EFC83E" transform="translate(569.5625,24.9375)"/>
<path d="M0 0 C4.02772228 1.54001146 5.8301525 4.02844661 8.375 7.4375 C8.7978125 7.99953125 9.220625 8.5615625 9.65625 9.140625 C11.11446743 11.08630368 12.55840361 13.04197668 14 15 C14.55075195 15.74652832 15.10150391 16.49305664 15.66894531 17.26220703 C18.05397427 20.49674406 20.43693001 23.73277642 22.81469727 26.97265625 C27.0341351 32.71592378 31.33596882 38.3851545 35.69921875 44.01953125 C40.9073511 50.76622902 45.99766738 57.59954908 51 64.5 C57.94266243 74.07514543 65.10949995 83.47800295 72.30737305 92.86181641 C75.90276226 97.55155117 79.46160838 102.26714338 83 107 C83.73863281 107.98484375 84.47726562 108.9696875 85.23828125 109.984375 C276.5 365 276.5 365 278.71484375 367.95703125 C280.32721592 370.10410461 281.943964 372.2472949 283.56640625 374.38671875 C284.19289063 375.21526367 284.19289063 375.21526367 284.83203125 376.06054688 C286.00234073 377.60795608 287.17493704 379.15363497 288.34765625 380.69921875 C290 383 290 383 290 384 C185.06 384 80.12 384 -28 384 C-26.54797408 380.36993519 -25.03170224 377.1693832 -23.13134766 373.78491211 C-19.78504698 367.80544426 -17.08214846 362.20422517 -15.5703125 355.46484375 C-15 353 -15 353 -13.9453125 350.34375 C-12.63746669 345.71765078 -12.70083535 341.34662983 -12.75 336.5625 C-12.75966797 335.58112061 -12.76933594 334.59974121 -12.77929688 333.58862305 C-13.06537254 316.13371634 -16.18251017 299.78558026 -26.92211914 285.5456543 C-28 284 -28 284 -28.9765625 281.51953125 C-30.49356402 277.78492828 -32.92273832 274.86297895 -35.375 271.6875 C-36.46239379 270.25923197 -37.54962884 268.83084308 -38.63671875 267.40234375 C-39.19407715 266.6738623 -39.75143555 265.94538086 -40.32568359 265.19482422 C-42.96877917 261.73004889 -45.57707618 258.23941399 -48.1875 254.75 C-49.18731947 253.41653128 -50.18731592 252.08319525 -51.1875 250.75 C-58.6875 240.75 -58.6875 240.75 -60.875 237.83203125 C-62.26916089 235.97400433 -63.66494053 234.1171907 -65.0625 232.26171875 C-69.1117409 226.88009895 -73.12571594 221.47508112 -77.11254883 216.04711914 C-82.44988243 208.78049117 -87.83996358 201.57258819 -93.3671875 194.44921875 C-97.31853852 189.31308031 -101.11571668 184.06063747 -104.94018555 178.82983398 C-108.69166636 173.71710009 -112.53310891 168.74042002 -116.64453125 163.91015625 C-118.12631755 161.82199054 -118.67487693 160.53131533 -119 158 C-118.1105957 156.23925781 -118.1105957 156.23925781 -116.67578125 154.453125 C-116.14782959 153.78144287 -115.61987793 153.10976074 -115.07592773 152.41772461 C-114.49399658 151.70237549 -113.91206543 150.98702637 -113.3125 150.25 C-112.10073694 148.71549532 -110.88981797 147.18032374 -109.6796875 145.64453125 C-109.0619043 144.86803223 -108.44412109 144.0915332 -107.80761719 143.29150391 C-105.12162014 139.88648387 -102.52729205 136.41591229 -99.9375 132.9375 C-98.9507312 131.6183322 -97.96375154 130.2993221 -96.9765625 128.98046875 C-96.48833008 128.32739746 -96.00009766 127.67432617 -95.49707031 127.00146484 C-92.93909287 123.5816509 -90.37547055 120.16607244 -87.8125 116.75 C-86.81247425 115.41668598 -85.81247366 114.08335309 -84.8125 112.75 C-59.5 79 -59.5 79 -57.234375 75.98046875 C-55.78477967 74.04683023 -54.33676658 72.11200414 -52.890625 70.17578125 C-48.44645995 64.23130501 -43.95577398 58.32575192 -39.4375 52.4375 C-35.19904721 46.91287498 -31.01892299 41.35829955 -26.9765625 35.6875 C-25.26232303 33.35667638 -23.50555537 31.07512072 -21.72265625 28.796875 C-17.9900248 24.01673053 -14.39218444 19.14522824 -10.8125 14.25 C-3.62332997 4.42351947 -3.62332997 4.42351947 0 0 Z " fill="#6F58FE" transform="translate(603,184)"/>
<path d="M0 0 C4.44897715 4.20554255 8.14516692 8.8414285 11.875 13.6875 C12.49922852 14.49405029 13.12345703 15.30060059 13.76660156 16.1315918 C17.41951787 20.87455286 20.94719442 25.67315684 24.32421875 30.6171875 C26.7128845 34.01365862 29.269569 37.27404617 31.81738281 40.55200195 C35.62808835 45.47428149 39.31937488 50.47997433 43 55.5 C47.70668193 61.91671554 52.48601364 68.2588275 57.36328125 74.546875 C61.30359746 79.66913198 65.10314662 84.89785092 68.91601562 90.11523438 C72.27573044 94.70231322 75.70655848 99.22165991 79.20825195 103.70117188 C82.34703677 107.72825974 85.43449397 111.79195206 88.5 115.875 C89.14453125 116.71546875 89.7890625 117.5559375 90.453125 118.421875 C91.35804688 119.63230469 91.35804688 119.63230469 92.28125 120.8671875 C92.82845703 121.59019043 93.37566406 122.31319336 93.93945312 123.05810547 C94.28943359 123.69893066 94.63941406 124.33975586 95 125 C94 128 94 128 91.41015625 129.54296875 C90.30542969 130.08566406 89.20070313 130.62835938 88.0625 131.1875 C74.61486822 138.08045105 64.10411716 148.31696085 56 161 C55.22849609 162.12535156 55.22849609 162.12535156 54.44140625 163.2734375 C44.39074471 179.40670719 41.15898792 201.56953676 44.703125 220.1171875 C45.61648377 223.84028553 46.71566417 227.38879647 48 231 C48.22494141 231.63663574 48.44988281 232.27327148 48.68164062 232.92919922 C51.68375504 241.28425732 55.36074117 248.26790195 60 256 C-23.16 256 -106.32 256 -192 256 C-188.54613896 250.81920844 -185.30716505 245.96438937 -181.5 241.125 C-177.29775213 235.73687665 -173.22567762 230.26195697 -169.1875 224.75 C-164.68929548 218.61553094 -160.13995241 212.52797237 -155.5 206.5 C-150.98757308 200.6365798 -146.56028371 194.71825885 -142.1875 188.75 C-136.54216256 181.04607194 -130.78027659 173.43828537 -124.97485352 165.85449219 C-119.85994899 159.16028571 -114.84717751 152.3964822 -109.8671875 145.6015625 C-105.85723028 140.13845564 -101.75375474 134.76217224 -97.6015625 129.40625 C-94.45884426 125.32047133 -91.42194147 121.15738236 -88.375 117 C-82.66665013 109.21361049 -76.84410041 101.52162273 -70.97558594 93.85546875 C-65.86045626 87.16092191 -60.84741833 80.39681078 -55.8671875 73.6015625 C-51.86493335 68.14895019 -47.77008032 62.78247199 -43.625 57.4375 C-40.34729278 53.17648062 -37.17956553 48.83441975 -34 44.5 C-29.24853189 38.02413697 -24.43456061 31.61242938 -19.51171875 25.265625 C-16.01340371 20.74055379 -12.60548154 16.14671784 -9.19677734 11.55395508 C-6.24581356 7.59540635 -3.19471124 3.76498756 0 0 Z " fill="#6F58FD" transform="translate(379,312)"/>
<path d="M0 0 C6.27 -0.04125 12.54 -0.0825 19 -0.125 C20.96324219 -0.14320801 22.92648438 -0.16141602 24.94921875 -0.18017578 C26.52864306 -0.18602433 28.10807042 -0.19111903 29.6875 -0.1953125 C30.48865234 -0.20554443 31.28980469 -0.21577637 32.11523438 -0.22631836 C41.4415761 -0.22916871 48.74264859 1.97125532 56 8 C61.53834367 14.17738333 61.51243333 21.27288477 61.34765625 29.22265625 C60.65453812 36.7535016 56.69327872 42.22995566 51 47 C50.34 47 49.68 47 49 47 C52.34685907 53.35735039 56.11345535 59.38792921 60.05249023 65.38916016 C63 69.90048933 63 69.90048933 63 71 C56.07 71 49.14 71 42 71 C41.67 69.35 41.34 67.7 41 66 C40.34 66 39.68 66 39 66 C38.65710938 65.00097656 38.31421875 64.00195312 37.9609375 62.97265625 C35.68839338 57.06847443 35.68839338 57.06847443 32 52 C26.96086682 50.37890481 23.39205121 50.69188279 18 51 C18 57.6 18 64.2 18 71 C12.06 71 6.12 71 0 71 C0 47.57 0 24.14 0 0 Z " fill="#FBE84C" transform="translate(208,609)"/>
<path d="M0 0 C16 0 16 0 20.8125 4.5625 C21.86324986 6.11968337 22.91201451 7.6792856 23.90185547 9.27587891 C25.47013065 11.73811975 27.22465606 14.04581137 28.97583008 16.37988281 C30.38249495 18.26001768 31.7645155 20.15600437 33.140625 22.05859375 C35.11782599 24.78924268 37.10793601 27.50971945 39.109375 30.22265625 C39.86661865 31.24987793 39.86661865 31.24987793 40.63916016 32.29785156 C41.61193898 33.61684119 42.58554043 34.93522462 43.56005859 36.25292969 C46.8882781 40.7765562 46.8882781 40.7765562 48 43 C48.33 28.81 48.66 14.62 49 0 C54.61 0 60.22 0 66 0 C66 23.76 66 47.52 66 72 C60.39 72 54.78 72 49 72 C45 67.1875 45 67.1875 43.51953125 64.125 C41.91866594 60.83273202 40.07179112 58.45476016 37.6875 55.6875 C32.40152314 49.38950706 27.72154377 42.72272789 23 36 C21.35 33.69 19.7 31.38 18 29 C17.67 42.86 17.34 56.72 17 71 C11.39 71 5.78 71 0 71 C0 47.57 0 24.14 0 0 Z " fill="#F8E64C" transform="translate(453,609)"/>
<path d="M0 0 C21.78 0 43.56 0 66 0 C66 9.57 66 19.14 66 29 C65.01 29 64.02 29 63 29 C62.78085937 27.99839844 62.56171875 26.99679687 62.3359375 25.96484375 C59.94650727 15.21404205 59.94650727 15.21404205 53 7 C46.3378603 2.86947338 42.73465145 4 34 4 C33.67 15.88 33.34 27.76 33 40 C41.06229833 38.26012833 41.06229833 38.26012833 46 33 C47.4759684 30.39164929 48.78372606 27.73831508 50 25 C50.66 25 51.32 25 52 25 C52.33 36.22 52.66 47.44 53 59 C52.01 59 51.02 59 50 59 C49.835 57.989375 49.67 56.97875 49.5 55.9375 C48.05927474 50.92050638 44.42594243 47.58972499 40 45 C37.67285874 44.62587556 35.33928753 44.28859902 33 44 C33.11794522 49.10881026 33.24217047 54.21741364 33.37231445 59.32592773 C33.41572573 61.06514288 33.45739612 62.80440235 33.49731445 64.54370117 C33.55486768 67.03838488 33.6186042 69.5328441 33.68359375 72.02734375 C33.70030624 72.80963852 33.71701874 73.59193329 33.73423767 74.39793396 C33.50648731 77.99871781 33.50648731 77.99871781 35 81 C42.05634299 81.7253216 48.50191385 81.99646036 54.35546875 77.609375 C59.68393866 72.39481537 61.93476663 66.00888573 64 59 C64.66666667 57 65.33333333 55 66 53 C66.99 53 67.98 53 69 53 C69 63.56 69 74.12 69 85 C45.9 85 22.8 85 -1 85 C-1 84.01 -1 83.02 -1 82 C0.134375 81.71125 1.26875 81.4225 2.4375 81.125 C3.613125 80.75375 4.78875 80.3825 6 80 C7.47749003 77.04501993 7.16565337 74.36996231 7.20532227 71.07177734 C7.22017166 70.00332329 7.22017166 70.00332329 7.23532104 68.9132843 C7.26695858 66.55420274 7.2917023 64.19510103 7.31640625 61.8359375 C7.33697384 60.20211253 7.35797026 58.56829292 7.37937927 56.93447876 C7.43462013 52.63057784 7.4840205 48.32662874 7.53222656 44.02264404 C7.5824269 39.63223982 7.63812061 35.24190571 7.69335938 30.8515625 C7.80096558 22.23443425 7.90240506 13.61724742 8 5 C5.33788628 3.62420173 2.93703384 2.62936439 0 2 C0 1.34 0 0.68 0 0 Z " fill="#6F58FC" transform="translate(449,710)"/>
<path d="M0 0 C1.18613892 0.00785522 1.18613892 0.00785522 2.39624023 0.01586914 C3.67724609 0.02070312 3.67724609 0.02070312 4.98413086 0.02563477 C5.88196289 0.03401367 6.77979492 0.04239258 7.70483398 0.05102539 C8.6065332 0.05553711 9.50823242 0.06004883 10.43725586 0.06469727 C12.67234712 0.07652315 14.90730835 0.09300319 17.14233398 0.11352539 C19.27135821 4.28484533 21.36324494 8.41375112 23.01733398 12.80102539 C25.0390583 17.99172235 27.38418918 23.00571819 29.77514648 28.03540039 C31.10292982 31.02480973 32.11102598 34.01172879 33.14233398 37.11352539 C34.20245806 39.62722166 35.28148182 42.12272697 36.39233398 44.61352539 C37.01363216 46.02489375 37.63472165 47.43635399 38.25561523 48.84790039 C39.18458713 50.95184705 40.11600609 53.05458023 41.05395508 55.15454102 C41.90213908 57.05484912 42.74156352 58.95882822 43.57983398 60.86352539 C44.32040039 62.52641602 44.32040039 62.52641602 45.07592773 64.22290039 C46.14233398 67.11352539 46.14233398 67.11352539 46.14233398 71.11352539 C39.87233398 71.11352539 33.60233398 71.11352539 27.14233398 71.11352539 C25.49233398 67.15352539 23.84233398 63.19352539 22.14233398 59.11352539 C11.91233398 58.78352539 1.68233398 58.45352539 -8.85766602 58.11352539 C-11.0247196 64.56487927 -11.0247196 64.56487927 -12.85766602 71.11352539 C-19.12766602 71.11352539 -25.39766602 71.11352539 -31.85766602 71.11352539 C-30.98744772 66.76243391 -29.93749136 63.85918769 -28.04516602 59.92602539 C-26.15113987 55.92099635 -24.33720107 51.93062557 -22.73266602 47.80102539 C-21.5773152 44.83148735 -20.3325239 41.99997809 -18.85766602 39.17602539 C-17.26730381 36.10050004 -16.06170751 33.00727673 -14.92016602 29.73852539 C-13.32772002 25.21000708 -11.37031622 21.06528475 -9.15844727 16.81274414 C-7.10640829 12.55460921 -5.50748211 8.13533677 -3.87329102 3.70336914 C-2.48043406 0.15158389 -2.48043406 0.15158389 0 0 Z " fill="#F8E64C" transform="translate(352.857666015625,608.886474609375)"/>
<path d="M0 0 C18.81 0 37.62 0 57 0 C57 4.62 57 9.24 57 14 C44.13 14 31.26 14 18 14 C18 18.62 18 23.24 18 28 C29.55 28 41.1 28 53 28 C53 32.95 53 37.9 53 43 C41.78 43 30.56 43 19 43 C19 47.62 19 52.24 19 57 C31.87 57 44.74 57 58 57 C58 61.95 58 66.9 58 72 C38.86 72 19.72 72 0 72 C0 48.24 0 24.48 0 0 Z " fill="#F3E04A" transform="translate(701,609)"/>
<path d="M0 0 C22.11 0 44.22 0 67 0 C67 9.57 67 19.14 67 29 C66.01 29 65.02 29 64 29 C63.74605469 28.13117187 63.49210937 27.26234375 63.23046875 26.3671875 C62.88628906 25.21476563 62.54210937 24.06234375 62.1875 22.875 C61.85105469 21.73804688 61.51460938 20.60109375 61.16796875 19.4296875 C59.15495903 13.51857535 57.27068623 9.51379082 52 6 C48.12359273 4.1284013 45.0387652 3.75440096 40.75 3.8125 C39.69296875 3.81894531 38.6359375 3.82539062 37.546875 3.83203125 C35.06561282 3.71470694 35.06561282 3.71470694 34 5 C33.83996512 7.66426685 33.74057111 10.30560428 33.68359375 12.97265625 C33.66281265 13.77029892 33.64203156 14.56794159 33.62062073 15.38975525 C33.55503842 17.94724611 33.49620033 20.5048428 33.4375 23.0625 C33.39432301 24.79232882 33.35070899 26.52214679 33.30664062 28.25195312 C33.19934828 32.5011926 33.09810574 36.7505389 33 41 C39.91892005 38.97889652 44.09821402 37.26931035 48 31 C49.39205064 27.75381554 49.39205064 27.75381554 50 25 C50.99 25 51.98 25 53 25 C53 35.89 53 46.78 53 58 C52.34 58 51.68 58 51 58 C50.78085937 57.48050781 50.56171875 56.96101562 50.3359375 56.42578125 C48.03249683 51.36008448 45.77403962 48.12148744 41 45 C38.9359483 44.32660123 38.9359483 44.32660123 36.796875 43.8671875 C35.54390625 43.58101562 34.2909375 43.29484375 33 43 C33.09341361 48.09066226 33.19947911 53.18084204 33.31738281 58.27099609 C33.35571341 60.00334407 33.39055906 61.73577274 33.421875 63.46826172 C33.46743765 65.95569749 33.52544503 68.44257566 33.5859375 70.9296875 C33.59748871 71.70682098 33.60903992 72.48395447 33.62094116 73.28463745 C33.58793768 77.60650975 33.58793768 77.60650975 36 81 C42.07538369 81.87960101 47.87669126 81.5165176 53.22265625 78.37890625 C60.89949023 72.42303285 63.8422311 63.14381276 66 54 C66.99 54 67.98 54 69 54 C69 63.9 69 73.8 69 84 C46.56 84 24.12 84 1 84 C1 83.34 1 82.68 1 82 C2.4540625 81.5978125 2.4540625 81.5978125 3.9375 81.1875 C5.4534375 80.5996875 5.4534375 80.5996875 7 80 C8.15110916 76.54667253 8.14820469 73.83319859 8.17700195 70.18945312 C8.18685875 69.15726906 8.18685875 69.15726906 8.19691467 68.10423279 C8.21660734 65.82990406 8.22829816 63.55564108 8.23828125 61.28125 C8.24235678 60.50443375 8.2464323 59.72761749 8.25063133 58.92726135 C8.27146994 54.81951159 8.28578396 50.71179506 8.29516602 46.60400391 C8.30625566 42.3566707 8.34069054 38.10985778 8.38033772 33.86270905 C8.40643786 30.59937545 8.41485168 27.33616745 8.41844749 24.07273865 C8.42332676 22.50659145 8.43497879 20.94045036 8.45348549 19.37440491 C8.47774932 17.18602681 8.47693694 14.99901735 8.4699707 12.81054688 C8.47583694 11.56494995 8.48170319 10.31935303 8.48774719 9.03601074 C8.29246513 5.9229609 8.29246513 5.9229609 6.11125183 4.11730957 C4.05727793 3.03031243 2.28176686 2.40745837 0 2 C0 1.34 0 0.68 0 0 Z " fill="#6E58FC" transform="translate(233,710)"/>
<path d="M0 0 C25.41 0 50.82 0 77 0 C77 10.56 77 21.12 77 32 C76.01 32 75.02 32 74 32 C73.85304688 31.40574219 73.70609375 30.81148437 73.5546875 30.19921875 C71.06145283 20.98571362 67.42539978 12.38937275 60.00390625 6.12109375 C57.15792292 4.52889645 54.13280277 3.8632602 51 3 C51.10747018 12.59666223 51.22009727 22.19324594 51.33933926 31.78976917 C51.39454319 36.24564451 51.44795919 40.70152644 51.49731445 45.1574707 C51.54499527 49.45633884 51.59733949 53.75512703 51.65294075 58.05389977 C51.67334744 59.69535015 51.69206332 61.33682245 51.70907402 62.97831154 C51.73315533 65.27444004 51.76320477 67.57041767 51.79467773 69.86645508 C51.81799416 71.8283654 51.81799416 71.8283654 51.84178162 73.82991028 C51.85898568 77.02453198 51.85898568 77.02453198 53 80 C55.29629994 81.14814997 57.07698086 81.30769809 59.625 81.5625 C60.44226563 81.64628906 61.25953125 81.73007812 62.1015625 81.81640625 C62.72804688 81.87699219 63.35453125 81.93757812 64 82 C64 82.99 64 83.98 64 85 C47.17 85 30.34 85 13 85 C13 84.01 13 83.02 13 82 C13.61488281 81.93941406 14.22976563 81.87882813 14.86328125 81.81640625 C15.67152344 81.73261719 16.47976563 81.64882813 17.3125 81.5625 C18.51326172 81.44068359 18.51326172 81.44068359 19.73828125 81.31640625 C22.16087179 81.04734307 22.16087179 81.04734307 25 80 C25.33 54.59 25.66 29.18 26 3 C17.19933684 5.93355439 13.97162649 7.82158011 9 15 C8.07005798 16.95395331 7.197785 18.93606288 6.375 20.9375 C5.94960938 21.95714844 5.52421875 22.97679687 5.0859375 24.02734375 C4.11035743 26.69790647 3.46387052 29.20131451 3 32 C2.01 32 1.02 32 0 32 C0 21.44 0 10.88 0 0 Z " fill="#6B55F5" transform="translate(669,710)"/>
<path d="M0 0 C3.51996201 -0.20488457 7.03837879 -0.32813842 10.5625 -0.4375 C11.55314453 -0.49615234 12.54378906 -0.55480469 13.56445312 -0.61523438 C20.83622591 -0.78434537 20.83622591 -0.78434537 24.16259766 1.45751953 C25.93610807 3.21791711 27.48332032 5.0163979 29 7 C29.60328125 7.67546875 30.2065625 8.3509375 30.828125 9.046875 C31.53195312 9.88992188 31.53195312 9.88992188 32.25 10.75 C35.18279585 14.15838437 38.30072128 17.34399864 41.5 20.5 C45.25953154 24.20881274 48.82405132 28.01234866 52.25 32.03125 C54.99811429 35.12287857 57.97160628 37.98162424 60.91796875 40.8828125 C62.69938272 42.69430663 64.33873029 44.52865563 65.9375 46.5 C67.75403019 49.04590598 67.75403019 49.04590598 70 50 C69.95586589 44.23364996 69.88605228 38.46839685 69.79248047 32.70263672 C69.76426447 30.74146253 69.74305306 28.78017449 69.72900391 26.81884766 C69.70758301 23.99843023 69.66093791 21.17938257 69.609375 18.359375 C69.60814636 17.48319519 69.60691772 16.60701538 69.60565186 15.70428467 C69.51654613 10.72347004 69.51654613 10.72347004 67.08203125 6.48046875 C65.15629493 5.11113654 63.45011137 4.09619668 61.25 3.25 C59.64125 2.63125 59.64125 2.63125 58 2 C58 1.34 58 0.68 58 0 C65.59 0 73.18 0 81 0 C80.67 0.99 80.34 1.98 80 3 C79.0409375 3.4640625 79.0409375 3.4640625 78.0625 3.9375 C75.38596657 5.31632025 75.04682707 6.18267023 74 9 C73.79216433 11.51238597 73.68894871 13.91772534 73.68115234 16.43066406 C73.67110672 17.17251953 73.6610611 17.914375 73.65071106 18.67871094 C73.61988551 21.12434127 73.60284585 23.56986216 73.5859375 26.015625 C73.56722533 27.71385642 73.54765188 29.41207854 73.5272522 31.11029053 C73.47593013 35.57526165 73.43630483 40.04026292 73.39910889 44.50537109 C73.35906971 49.06355242 73.30797697 53.62160835 73.2578125 58.1796875 C73.16105233 67.11970357 73.07664782 76.05979046 73 85 C71.55308175 85.04968232 70.10567322 85.08523189 68.65820312 85.11474609 C67.85225708 85.13604584 67.04631104 85.15734558 66.21594238 85.17929077 C64 85 64 85 61.46875 83.1640625 C60.8190625 82.32617188 60.169375 81.48828125 59.5 80.625 C58.75492188 79.7071875 58.00984375 78.789375 57.2421875 77.84375 C56.50226562 76.9053125 55.76234375 75.966875 55 75 C53.55488243 73.36323602 52.09659812 71.73799723 50.625 70.125 C49.50351562 68.87976563 49.50351562 68.87976563 48.359375 67.609375 C40.79629956 59.24491409 33.13703615 50.97705925 25.39013672 42.78271484 C21.62735503 38.78875174 17.96728029 34.72250527 14.37402344 30.57519531 C13.60656828 29.69537643 12.82555093 28.82555093 12 28 C11.92560602 34.13807552 11.87128231 40.27588608 11.83520508 46.41430664 C11.82015841 48.5006162 11.79971618 50.58689433 11.77368164 52.6730957 C11.73711705 55.67927831 11.7202321 58.68504112 11.70703125 61.69140625 C11.69154739 62.61772354 11.67606354 63.54404083 11.66011047 64.49842834 C11.65866819 70.10213741 12.27377724 74.06261703 15 79 C17.19455212 80.4472565 17.19455212 80.4472565 19.6875 80.9375 C20.89986328 81.26041016 20.89986328 81.26041016 22.13671875 81.58984375 C22.75160156 81.72519531 23.36648438 81.86054687 24 82 C24 82.99 24 83.98 24 85 C16.08 85 8.16 85 0 85 C0 84.01 0 83.02 0 82 C1.423125 81.4121875 1.423125 81.4121875 2.875 80.8125 C6.52308461 78.69661092 6.84772138 77.93410647 8 74 C8.31458014 70.7685379 8.31458014 70.7685379 8.29052734 67.23779297 C8.29724457 66.57863892 8.30396179 65.91948486 8.31088257 65.24035645 C8.32979169 63.07422234 8.33378218 60.90839885 8.3359375 58.7421875 C8.34236713 57.23194248 8.34909561 55.72169871 8.35610962 54.2114563 C8.36806224 51.05256255 8.3717922 47.89377804 8.37060547 44.73486328 C8.37040164 40.68483158 8.39777743 36.63549659 8.43214989 32.58563042 C8.45436303 29.46982593 8.45844485 26.35419116 8.45738602 23.23831558 C8.45974758 21.74474801 8.46860238 20.25117616 8.48405075 18.75768661 C8.50361259 16.67242837 8.49791516 14.58869998 8.48583984 12.50341797 C8.48868988 11.31714813 8.49153992 10.1308783 8.49447632 8.90866089 C8.27599618 5.90918998 8.27599618 5.90918998 6.11026001 4.13650513 C4.05455609 3.02938182 2.29184989 2.40925891 0 2 C0 1.34 0 0.68 0 0 Z " fill="#6E57FB" transform="translate(554,710)"/>
<path d="M0 0 C2.1775807 1.05758298 4.09226106 1.71151101 6.453125 2.19140625 C7.113125 0.54140625 7.773125 -1.10859375 8.453125 -2.80859375 C9.113125 -2.80859375 9.773125 -2.80859375 10.453125 -2.80859375 C10.453125 6.76140625 10.453125 16.33140625 10.453125 26.19140625 C9.463125 26.19140625 8.473125 26.19140625 7.453125 26.19140625 C7.29457031 25.41796875 7.13601563 24.64453125 6.97265625 23.84765625 C4.93729049 14.76160358 2.42818994 7.57996364 -5.546875 2.19140625 C-9.7556269 0.0870303 -14.97403366 0.67384099 -19.546875 1.19140625 C-22.91823406 3.20125492 -24.0806574 4.41909377 -25.078125 8.2109375 C-25.517579 12.6917988 -24.569116 15.86269447 -22.046875 19.56640625 C-16.89117255 25.58314251 -10.01054664 29.58322587 -3.45605469 33.90869141 C11.35071467 43.85687123 11.35071467 43.85687123 14.0546875 52.00390625 C15.34484973 59.08714988 15.68902431 67.13532017 11.9140625 73.48046875 C9.00749574 76.88441592 5.3820467 79.12001518 1.453125 81.19140625 C0.45539062 81.73152344 -0.54234375 82.27164063 -1.5703125 82.828125 C-6.78835763 84.99803991 -12.29568071 84.70458255 -17.859375 84.69140625 C-18.93638672 84.71976563 -20.01339844 84.748125 -21.12304688 84.77734375 C-27.93705476 84.79385255 -32.62320255 83.74252114 -38.51245117 80.26757812 C-40.60525981 78.95761106 -40.60525981 78.95761106 -43.546875 79.19140625 C-44.206875 80.51140625 -44.866875 81.83140625 -45.546875 83.19140625 C-46.206875 83.19140625 -46.866875 83.19140625 -47.546875 83.19140625 C-47.546875 71.97140625 -47.546875 60.75140625 -47.546875 49.19140625 C-46.556875 49.19140625 -45.566875 49.19140625 -44.546875 49.19140625 C-44.46050781 50.08601562 -44.37414062 50.980625 -44.28515625 51.90234375 C-43.17712737 61.43749134 -41.20513111 68.6889372 -35.109375 76.19140625 C-30.28003218 79.96064943 -25.58935354 80.81649024 -19.546875 80.19140625 C-15.85712681 78.89229346 -12.4860284 77.67941554 -10.34375 74.28515625 C-8.76646634 70.14092076 -8.74879623 66.22534485 -10.3515625 62.140625 C-14.26593766 55.18923464 -20.57094613 51.24309043 -26.99609375 46.8125 C-44.53226752 34.65386749 -44.53226752 34.65386749 -47.546875 24.19140625 C-48.28393097 18.05541528 -48.1633506 12.40827277 -45 6.97265625 C-34.25235838 -6.20187219 -14.24544334 -6.98345058 0 0 Z " fill="#6E57FB" transform="translate(830.546875,711.80859375)"/>
<path d="M0 0 C-1.49076434 3.2826932 -3.38620321 5.93077441 -5.625 8.75 C-6.25664063 9.54921875 -6.88828125 10.3484375 -7.5390625 11.171875 C-8.02117188 11.77515625 -8.50328125 12.3784375 -9 13 C-9.83337891 12.57074219 -9.83337891 12.57074219 -10.68359375 12.1328125 C-19.23615495 7.95027836 -27.57937338 5.21023848 -37.10546875 7.5078125 C-42.70529964 9.5853617 -45.0234378 13.18638449 -47.75 18.25 C-49.98707288 24.96121865 -49.81954174 29.86206345 -46.8125 36.3125 C-44.1992635 41.06049307 -41.47683738 43.62397923 -36.75 46.25 C-29.44883609 48.24122652 -23.39464755 46.64325501 -16 45 C-16 38.73 -16 32.46 -16 26 C-10.72 26 -5.44 26 0 26 C0 35.24 0 44.48 0 54 C-15.77119565 62.34945652 -15.77119565 62.34945652 -24 63 C-25.96646484 63.15662109 -25.96646484 63.15662109 -27.97265625 63.31640625 C-37.69051436 63.8317803 -44.74849067 62.60503432 -53 57 C-53.75925781 56.49339844 -54.51851562 55.98679687 -55.30078125 55.46484375 C-61.86492625 50.43356877 -66.60776046 42.18697383 -68 34 C-68.82222714 21.78790506 -68.0609945 12.66968498 -60.125 2.8125 C-43.41857653 -14.81124788 -18.8106872 -13.16748104 0 0 Z " fill="#F6E44B" transform="translate(643,618)"/>
<path d="M0 0 C-0.56825653 5.54050113 -2.62886517 10.03715966 -5 15 C-9.48041362 13.78655465 -13.78519926 12.38178522 -18.10546875 10.68359375 C-21.6808416 9.39351076 -24.81906063 8.86227111 -28.625 8.875 C-29.40101563 8.87242187 -30.17703125 8.86984375 -30.9765625 8.8671875 C-33.06959248 8.87326631 -33.06959248 8.87326631 -35 10 C-35.41746608 12.87364791 -35.41746608 12.87364791 -35 16 C-31.0396175 19.00495948 -26.47634379 20.29034835 -21.8125 21.8125 C-4.47722311 27.76587957 -4.47722311 27.76587957 -0.375 34.6875 C1.8831581 40.33829754 2.36436769 46.65058915 0.046875 52.33984375 C-3.86264653 58.98355597 -8.81397186 62.30523945 -16 65 C-29.18946591 68.1549553 -43.34826624 65.65770713 -54.9375 58.75 C-56.30423373 57.85217817 -57.66405266 56.94302165 -59 56 C-58.5188509 50.22621075 -56.81532819 46.04140164 -54 41 C-51.44699988 41.92191671 -49.2976904 42.7698528 -47.140625 44.4375 C-40.41062653 49.34990764 -32.66363642 50.44429426 -24.53125 50.43359375 C-21.63769632 49.93793872 -20.6878868 49.37094466 -19 47 C-18.74930087 44.37429296 -18.74930087 44.37429296 -19 42 C-23.34828884 40.06552504 -27.68502318 38.39516674 -32.2043457 36.90869141 C-50.05866721 30.97666287 -50.05866721 30.97666287 -54.5625 23.1875 C-56.96550477 17.37377879 -56.98962495 11.70774155 -54.625 5.875 C-51.33722947 0.00398119 -45.28046304 -3.63466762 -39.203125 -6.1640625 C-25.31932529 -9.7873956 -12.46422703 -6.23211351 0 0 Z " fill="#F7E44B" transform="translate(871,615)"/>
<path d="M0 0 C13.86 0 27.72 0 42 0 C42 0.66 42 1.32 42 2 C39.69 2.66 37.38 3.32 35 4 C35.44169899 16.58842122 42.01662828 28.29282329 47.19555664 39.57006836 C50.49706952 46.83870166 52.87437412 54.31504489 55 62 C55.66 62 56.32 62 57 62 C57.2784375 60.081875 57.2784375 60.081875 57.5625 58.125 C58.5867658 52.91524517 60.39441239 48.21313152 62.375 43.3125 C69.49666471 26.17774695 69.49666471 26.17774695 70 8 C68.24776984 5.09472184 67.629353 4.1756334 64.3125 3.25 C63.549375 3.1675 62.78625 3.085 62 3 C62 2.01 62 1.02 62 0 C69.92 0 77.84 0 86 0 C86 0.99 86 1.98 86 3 C84.3336769 4.33376268 82.66696191 5.66703581 81 7 C75.97602774 14.78233417 73.19720602 23.72682967 70.4375 32.5 C67.98640962 40.20843807 65.36959035 47.71623722 62.18920898 55.15576172 C60.38146459 59.47935486 58.83767085 63.88290358 57.3125 68.3125 C57.01794922 69.15361328 56.72339844 69.99472656 56.41992188 70.86132812 C54.79462704 75.53998585 53.30866638 80.22304539 52 85 C47.71 85 43.42 85 39 85 C35.70960339 78.70953589 32.88440703 72.35287289 30.30444336 65.74633789 C28.65360387 61.54999344 26.86195639 57.45583446 24.9375 53.375 C22.43764969 48.05630807 20.27855528 42.669634 18.20703125 37.171875 C16.68220596 33.16489074 15.05822232 29.20788841 13.3828125 25.26171875 C12.33582602 22.79213199 11.31438047 20.31677847 10.3046875 17.83203125 C9.70375798 16.3877573 9.10220014 14.94374462 8.5 13.5 C8.22752441 12.81703857 7.95504883 12.13407715 7.67431641 11.43041992 C5.81867301 7.04767604 3.81840139 4.77226402 0 2 C0 1.34 0 0.68 0 0 Z " fill="#6D57F9" transform="translate(333,710)"/>
<path d="M0 0 C4.021875 -0.0928125 4.021875 -0.0928125 8.125 -0.1875 C8.95789551 -0.21481201 9.79079102 -0.24212402 10.64892578 -0.27026367 C16.3675023 -0.33371244 20.49740141 0.74766127 24.875 4.6875 C26.53525213 8.1002405 26.52778852 11.32014115 26 15 C24.64058672 18.39853321 23.52555056 19.66672404 20.4375 21.625 C16.14484786 23.34206085 12.68283567 23.33695892 8.125 23.1875 C5.44375 23.125625 2.7625 23.06375 0 23 C0 15.41 0 7.82 0 0 Z " fill="#060601" transform="translate(226,623)"/>
<path d="M0 0 C0.99 0 1.98 0 3 0 C3 10.56 3 21.12 3 32 C-20.1 32 -43.2 32 -67 32 C-66.505 30.515 -66.505 30.515 -66 29 C-66 29.66 -66 30.32 -66 31 C-64.87295654 30.83862549 -63.74591309 30.67725098 -62.5847168 30.51098633 C-57.92909142 29.93086141 -53.33118436 29.84807828 -48.64453125 29.82421875 C-46.87043052 29.80104511 -45.0963419 29.77692883 -43.32226562 29.75195312 C-40.55728694 29.71673517 -37.79276466 29.68740484 -35.02758789 29.67407227 C-32.33686251 29.65860149 -29.64741766 29.61843838 -26.95703125 29.57421875 C-25.72095879 29.57708138 -25.72095879 29.57708138 -24.45991516 29.58000183 C-19.34598621 29.47113259 -16.76087997 28.76175591 -13 25 C-12.175 24.29875 -11.35 23.5975 -10.5 22.875 C-5.40432917 17.01497854 -2.69507958 10.31500282 -1.359375 2.71484375 C-1 1 -1 1 0 0 Z " fill="#5D4AD5" transform="translate(515,763)"/>
<path d="M0 0 C7.92 0 15.84 0 24 0 C24 0.99 24 1.98 24 3 C22.3336769 4.33376268 20.66696191 5.66703581 19 7 C13.97602774 14.78233417 11.19720602 23.72682967 8.4375 32.5 C5.95609414 40.30377727 3.32586053 47.91755652 0.06591797 55.43457031 C-1.2419927 58.5824231 -2.17418473 61.69673892 -3 65 C-5.18446582 61.72330126 -5.27760024 61.52565784 -4.5625 57.9375 C-3.42721751 52.84727915 -1.56032639 48.13757426 0.375 43.3125 C7.49558814 26.17761757 7.49558814 26.17761757 8 8 C6.24776984 5.09472184 5.629353 4.1756334 2.3125 3.25 C1.549375 3.1675 0.78625 3.085 0 3 C0 2.01 0 1.02 0 0 Z " fill="#6953EF" transform="translate(395,710)"/>
<path d="M0 0 C22.11 0 44.22 0 67 0 C67 9.57 67 19.14 67 29 C66.01 29 65.02 29 64 29 C63.74605469 28.13117187 63.49210937 27.26234375 63.23046875 26.3671875 C62.88628906 25.21476563 62.54210937 24.06234375 62.1875 22.875 C61.85105469 21.73804688 61.51460938 20.60109375 61.16796875 19.4296875 C58.80263122 12.48398063 56.34443915 8.35840983 49.8125 4.8125 C45.60868118 3.59806345 41.35234119 3.32114362 37 3 C37 2.67 37 2.34 37 2 C22.15 1.505 22.15 1.505 7 1 C7.33 2.32 7.66 3.64 8 5 C5.36 4.01 2.72 3.02 0 2 C0 1.34 0 0.68 0 0 Z " fill="#6A54F2" transform="translate(233,710)"/>
<path d="M0 0 C0.33 0 0.66 0 1 0 C1 11.55 1 23.1 1 35 C9.06229833 33.26012833 9.06229833 33.26012833 14 28 C15.4759684 25.39164929 16.78372606 22.73831508 18 20 C18.66 20 19.32 20 20 20 C20.33 31.22 20.66 42.44 21 54 C20.01 54 19.02 54 18 54 C17.835 52.989375 17.67 51.97875 17.5 50.9375 C16.05927474 45.92050638 12.42594243 42.58972499 8 40 C5.69 39.67 3.38 39.34 1 39 C1 50.22 1 61.44 1 73 C0.67 73 0.34 73 0 73 C0 48.91 0 24.82 0 0 Z " fill="#5D4AD5" transform="translate(481,715)"/>
<path d="M0 0 C21.78 0 43.56 0 66 0 C66 9.57 66 19.14 66 29 C65.01 29 64.02 29 63 29 C62.78085937 27.99839844 62.56171875 26.99679687 62.3359375 25.96484375 C59.9564179 15.20544866 59.9564179 15.20544866 53 7 C47.81092735 4.06278907 42.84564237 3.38440732 37 3 C37 2.67 37 2.34 37 2 C24.79 2 12.58 2 0 2 C0 1.34 0 0.68 0 0 Z " fill="#6853EE" transform="translate(449,710)"/>
<path d="M0 0 C0.99 0 1.98 0 3 0 C3 9.9 3 19.8 3 30 C-10.86 30 -24.72 30 -39 30 C-39 29.67 -39 29.34 -39 29 C-38.40985107 28.98018066 -37.81970215 28.96036133 -37.21166992 28.93994141 C-34.53649904 28.84465341 -31.86210502 28.73499061 -29.1875 28.625 C-28.25873047 28.5940625 -27.32996094 28.563125 -26.37304688 28.53125 C-25.48037109 28.49257813 -24.58769531 28.45390625 -23.66796875 28.4140625 C-22.43469849 28.36693115 -22.43469849 28.36693115 -21.17651367 28.31884766 C-18.71047063 28.11626378 -18.71047063 28.11626378 -16 26 C-14.6078125 25.2265625 -14.6078125 25.2265625 -13.1875 24.4375 C-4.93272629 18.82507321 -2.40843045 9.16620296 0 0 Z " fill="#6B55F4" transform="translate(299,764)"/>
<path d="M0 0 C0.66 0 1.32 0 2 0 C2.31453125 0.88300781 2.6290625 1.76601563 2.953125 2.67578125 C5.61012775 10.12659317 8.28859859 17.5687517 11 25 C4.4 25 -2.2 25 -9 25 C-7.16597022 19.49791066 -5.32426431 14.02163594 -3.375 8.5625 C-2.73691406 6.77005859 -2.73691406 6.77005859 -2.0859375 4.94140625 C-1 2 -1 2 0 0 Z " fill="#0D0C03" transform="translate(359,628)"/>
<path d="M0 0 C7.59 0 15.18 0 23 0 C22.67 0.99 22.34 1.98 22 3 C21.360625 3.309375 20.72125 3.61875 20.0625 3.9375 C17.38596657 5.31632025 17.04682707 6.18267023 16 9 C15.79216433 11.51238597 15.68894871 13.91772534 15.68115234 16.43066406 C15.67110672 17.17251953 15.6610611 17.914375 15.65071106 18.67871094 C15.61988551 21.12434127 15.60284585 23.56986216 15.5859375 26.015625 C15.56722533 27.71385642 15.54765188 29.41207854 15.5272522 31.11029053 C15.47593013 35.57526165 15.43630483 40.04026292 15.39910889 44.50537109 C15.35906971 49.06355242 15.30797697 53.62160835 15.2578125 58.1796875 C15.16105233 67.11970357 15.07664782 76.05979046 15 85 C12.03 85 9.06 85 6 85 C5.67 84.34 5.34 83.68 5 83 C7.97 83.33 10.94 83.66 14 84 C13.67 73.11 13.34 62.22 13 51 C12.34 50.67 11.68 50.34 11 50 C11.02094727 48.77893555 11.04189453 47.55787109 11.06347656 46.29980469 C11.13590159 41.76753476 11.18180888 37.23531593 11.21972656 32.70263672 C11.23983632 30.74128619 11.26712818 28.77999556 11.30175781 26.81884766 C11.35030421 23.99887305 11.37297486 21.17969135 11.390625 18.359375 C11.41127014 17.48319519 11.43191528 16.60701538 11.45318604 15.70428467 C11.49532021 10.72757645 11.49532021 10.72757645 9.09570312 6.48046875 C7.16472803 5.11636892 5.45132488 4.09666341 3.25 3.25 C2.1775 2.8375 1.105 2.425 0 2 C0 1.34 0 0.68 0 0 Z " fill="#5F4BD8" transform="translate(612,710)"/>
<path d="M0 0 C0.99 0 1.98 0 3 0 C3.08636719 0.89460937 3.17273438 1.78921875 3.26171875 2.7109375 C4.48930885 13.27496972 6.77317032 21.88490406 15 29 C15.66 29.66 16.32 30.32 17 31 C16.67 31.66 16.34 32.32 16 33 C28.87 33.495 28.87 33.495 42 34 C42 34.33 42 34.66 42 35 C38.04206705 35.14700894 34.08484908 35.2346378 30.125 35.3125 C28.46210937 35.3753418 28.46210937 35.3753418 26.765625 35.43945312 C19.78904121 35.54204995 15.04762533 34.67120556 9.01904297 31.08276367 C6.94120475 29.7636971 6.94120475 29.7636971 4 30 C3.34 31.32 2.68 32.64 2 34 C1.34 34 0.68 34 0 34 C0 22.78 0 11.56 0 0 Z " fill="#6752EC" transform="translate(783,761)"/>
<path d="M0 0 C9.44054555 -0.53911745 16.8470502 -0.4562645 25.546875 3.80859375 C27.7244557 4.86617673 29.63913606 5.52010476 32 6 C32.66 4.35 33.32 2.7 34 1 C34.66 1 35.32 1 36 1 C36 10.57 36 20.14 36 30 C35.01 30 34.02 30 33 30 C32.84144531 29.2265625 32.68289063 28.453125 32.51953125 27.65625 C30.48416549 18.57019733 27.97506494 11.38855739 20 6 C17.70370006 4.85185003 15.92301914 4.69230191 13.375 4.4375 C12.55773437 4.35371094 11.74046875 4.26992188 10.8984375 4.18359375 C10.27195312 4.12300781 9.64546875 4.06242188 9 4 C9 3.67 9 3.34 9 3 C10.98 2.67 12.96 2.34 15 2 C10.05 1.67 5.1 1.34 0 1 C0 0.67 0 0.34 0 0 Z " fill="#6A54F2" transform="translate(805,708)"/>
<path d="M0 0 C0.33 0 0.66 0 1 0 C1.00364563 0.71472977 1.00729126 1.42945953 1.01104736 2.16584778 C1.04912999 8.94681006 1.1062094 15.72738413 1.18390274 22.50800037 C1.22318269 25.99289978 1.25546519 29.4775539 1.27099609 32.96264648 C1.28922994 36.98200763 1.33926461 41.0004558 1.390625 45.01953125 C1.39185364 46.25331009 1.39308228 47.48708893 1.39434814 48.758255 C1.51774522 56.14503179 2.01537665 63.56271499 6 70 C8.94073693 71.68810596 11.65532204 72.5068744 15 73 C15 73.99 15 74.98 15 76 C7.08 76 -0.84 76 -9 76 C-9 75.01 -9 74.02 -9 73 C-7.576875 72.4121875 -7.576875 72.4121875 -6.125 71.8125 C-2.4807327 69.69882496 -2.15815142 68.92567511 -1 65 C-0.67531148 61.8693708 -0.67531148 61.8693708 -0.68115234 58.46557617 C-0.65134781 56.51411934 -0.65134781 56.51411934 -0.62094116 54.52323914 C-0.60906649 53.11315073 -0.59740353 51.70306053 -0.5859375 50.29296875 C-0.5672164 48.84278777 -0.54764228 47.39261758 -0.5272522 45.94245911 C-0.47602431 42.13675304 -0.43634886 38.3310117 -0.39910889 34.52514648 C-0.35901043 30.63711893 -0.30794481 26.74923696 -0.2578125 22.86132812 C-0.16116395 15.24098546 -0.07672406 7.62057209 0 0 Z " fill="#634EE2" transform="translate(563,719)"/>
<path d="M0 0 C22.11 0 44.22 0 67 0 C67 9.57 67 19.14 67 29 C65.515 28.505 65.515 28.505 64 28 C64.66 28 65.32 28 66 28 C66 19.09 66 10.18 66 1 C46.53 1 27.06 1 7 1 C7.33 2.32 7.66 3.64 8 5 C5.36 4.01 2.72 3.02 0 2 C0 1.34 0 0.68 0 0 Z " fill="#5F4BD9" transform="translate(233,710)"/>
<path d="M0 0 C0.9883378 3.41557916 0.73118909 5.5268518 0 9 C0.33 9.66 0.66 10.32 1 11 C-0.84180006 18.34328076 -3.92872328 25.34060282 -6.89453125 32.28515625 C-8.19912489 35.48901695 -9.16191396 38.64765585 -10 42 C-12.18446582 38.72330126 -12.27760024 38.52565784 -11.5625 34.9375 C-10.22909857 28.95473832 -7.89571875 23.37733537 -5.61523438 17.70727539 C-3.29450876 11.90240776 -1.41038013 6.09821504 0 0 Z " fill="#5846CA" transform="translate(402,733)"/>
<path d="M0 0 C2.5419589 -0.05434116 5.08273682 -0.0938339 7.625 -0.125 C8.33785156 -0.14175781 9.05070313 -0.15851562 9.78515625 -0.17578125 C14.2612164 -0.21684602 17.77949278 0.30913433 22 2 C22 3.32 22 4.64 22 6 C17.71 5.34 13.42 4.68 9 4 C9 3.67 9 3.34 9 3 C10.98 2.67 12.96 2.34 15 2 C10.05 1.67 5.1 1.34 0 1 C0 0.67 0 0.34 0 0 Z " fill="#5241BB" transform="translate(805,708)"/>
<path d="M0 0 C0.99 0 1.98 0 3 0 C3 7.59 3 15.18 3 23 C2.67 23 2.34 23 2 23 C1.97494385 22.44538086 1.9498877 21.89076172 1.92407227 21.31933594 C1.80772073 18.79601157 1.68517246 16.27302464 1.5625 13.75 C1.52318359 12.87730469 1.48386719 12.00460937 1.44335938 11.10546875 C1.40146484 10.26113281 1.35957031 9.41679688 1.31640625 8.546875 C1.27974854 7.77182617 1.24309082 6.99677734 1.20532227 6.19824219 C1.00396985 4.0425024 0.58270703 2.08198525 0 0 Z " fill="#5B48D0" transform="translate(299,764)"/>
<path d="M0 0 C5.28 0 10.56 0 16 0 C16 0.33 16 0.66 16 1 C13.03 1 10.06 1 7 1 C7.33 2.32 7.66 3.64 8 5 C5.36 4.01 2.72 3.02 0 2 C0 1.34 0 0.68 0 0 Z " fill="#6550E7" transform="translate(233,710)"/>
<path d="M0 0 C0.66 0.33 1.32 0.66 2 1 C-1.3 4.3 -4.6 7.6 -8 11 C-8 7.0234755 -6.61988497 5.9109833 -4 3 C-1.75 1.1875 -1.75 1.1875 0 0 Z " fill="#171235" transform="translate(687,714)"/>
<path d="M0 0 C0.66 0.33 1.32 0.66 2 1 C-0.97 3.97 -3.94 6.94 -7 10 C-7.33 9.34 -7.66 8.68 -8 8 C-3.375 2.25 -3.375 2.25 0 0 Z " fill="#383411" transform="translate(604,625)"/>
<path d="M0 0 C0.66 0.33 1.32 0.66 2 1 C-0.64 3.64 -3.28 6.28 -6 9 C-6 6 -6 6 -3.5625 3.375 C-2.716875 2.59125 -1.87125 1.8075 -1 1 C-0.67 0.67 -0.34 0.34 0 0 Z " fill="#5D4AD5" transform="translate(792,713)"/>
<path d="M0 0 C0.66 0.33 1.32 0.66 2 1 C-0.64 3.64 -3.28 6.28 -6 9 C-6 6 -6 6 -3.5625 3.375 C-2.716875 2.59125 -1.87125 1.8075 -1 1 C-0.67 0.67 -0.34 0.34 0 0 Z " fill="#D2C240" transform="translate(824,613)"/>
</svg>
