<svg version="1.1" xmlns="http://www.w3.org/2000/svg" width="540" height="540">
<path d="M0 0 C0.85098267 -0.00315216 1.70196533 -0.00630432 2.57873535 -0.009552 C3.49441284 -0.00752777 4.41009033 -0.00550354 5.35351562 -0.00341797 C6.76812073 -0.00485306 6.76812073 -0.00485306 8.21130371 -0.00631714 C10.20516018 -0.00699762 12.19901888 -0.00515251 14.19287109 -0.00097656 C17.24777189 0.00437353 20.30252566 -0.00092601 23.35742188 -0.00732422 C25.29362012 -0.00666341 27.22981827 -0.0053822 29.16601562 -0.00341797 C30.08169312 -0.0054422 30.99737061 -0.00746643 31.9407959 -0.009552 C32.79177856 -0.00639984 33.64276123 -0.00324768 34.51953125 0 C35.26771118 0.00079559 36.01589111 0.00159119 36.78674316 0.00241089 C38.75976562 0.12939453 38.75976562 0.12939453 41.75976562 1.12939453 C45.18769055 1.38837732 48.60970878 1.57180608 52.04296875 1.73486328 C57.55818225 2.02860284 57.55818225 2.02860284 59.75976562 3.12939453 C61.19263097 3.33207882 62.63150321 3.49379336 64.07226562 3.62939453 C77.55067027 4.91087273 92.65307961 9.06392058 104.75976562 15.12939453 C106.25115165 15.65453045 107.75170715 16.15425282 109.25976562 16.62939453 C112.25381261 17.5727244 114.98117407 18.66431898 117.75976562 20.12939453 C117.75976562 20.78939453 117.75976562 21.44939453 117.75976562 22.12939453 C118.31664062 21.90251953 118.87351562 21.67564453 119.44726562 21.44189453 C122.74699152 20.99598563 123.96843797 22.33053893 126.75976562 24.12939453 C128.16749938 24.77426282 129.58527522 25.39743775 131.00976562 26.00439453 C134.92722841 27.71101198 138.6283272 29.6485242 142.34179688 31.75830078 C145.15159908 33.35158119 147.98506916 34.8979656 150.82226562 36.44189453 C151.76199219 36.95365234 152.70171875 37.46541016 153.66992188 37.99267578 C154.70439453 38.55535156 154.70439453 38.55535156 155.75976562 39.12939453 C155.75976562 39.78939453 155.75976562 40.44939453 155.75976562 41.12939453 C156.33210938 41.24412109 156.90445312 41.35884766 157.49414062 41.47705078 C159.97448218 42.19121809 161.8234526 43.20247325 164.00976562 44.56689453 C165.069375 45.21464844 165.069375 45.21464844 166.15039062 45.87548828 C166.68148438 46.28927734 167.21257812 46.70306641 167.75976562 47.12939453 C167.75976562 47.78939453 167.75976562 48.44939453 167.75976562 49.12939453 C168.50226563 49.39751953 169.24476563 49.66564453 170.00976562 49.94189453 C172.65038511 51.08216204 174.61529407 52.22319759 176.75976562 54.12939453 C176.75976562 54.78939453 176.75976562 55.44939453 176.75976562 56.12939453 C177.74976563 56.12939453 178.73976563 56.12939453 179.75976562 56.12939453 C179.75976562 56.78939453 179.75976562 57.44939453 179.75976562 58.12939453 C180.3346875 58.38720703 180.90960938 58.64501953 181.50195312 58.91064453 C183.95907001 60.23697752 185.80886692 61.7666109 187.88476562 63.62939453 C188.56796875 64.23783203 189.25117188 64.84626953 189.95507812 65.47314453 C191.2509655 66.66244377 192.51602997 67.88565887 193.75976562 69.12939453 C194.79700099 70.00964293 195.83927715 70.88396459 196.88476562 71.75439453 C203.42320753 77.34129603 209.29358001 83.49881434 214.75976562 90.12939453 C215.54351562 91.05751953 216.32726562 91.98564453 217.13476562 92.94189453 C218.75976562 95.12939453 218.75976562 95.12939453 218.75976562 97.12939453 C219.74976563 97.45939453 220.73976563 97.78939453 221.75976562 98.12939453 C223.30273438 100.02783203 223.30273438 100.02783203 224.94726562 102.50439453 C227.51091155 106.30379368 230.14377737 110.01824487 232.88476562 113.69189453 C235.69611235 117.54807127 238.17723803 121.40160524 240.41210938 125.61376953 C241.8083888 128.22015778 243.27445692 130.78150867 244.75366211 133.34155273 C253.31989883 148.17443098 253.31989883 148.17443098 254.18164062 152.00439453 C254.92909616 154.75179867 256.21763931 157.00090793 257.57226562 159.50439453 C260.51808054 165.24767397 262.31363925 170.95318683 263.90039062 177.19580078 C264.64609439 180.28217194 264.64609439 180.28217194 266.75976562 183.12939453 C267.35742188 185.46923828 267.35742188 185.46923828 267.82226562 188.06689453 C268.37957121 191.12056068 268.97667516 194.12550846 269.75976562 197.12939453 C270.24705117 199.07853671 270.73427176 201.02769525 271.22070312 202.97705078 C271.57762375 204.4021469 271.93696586 205.82663893 272.29882812 207.25048828 C273.77429127 213.07526444 274.92447126 218.88606244 275.88476562 224.81689453 C276.16707031 226.52425781 276.16707031 226.52425781 276.45507812 228.26611328 C276.75976562 231.12939453 276.75976562 231.12939453 275.75976562 233.12939453 C276.01585594 234.47250849 276.33709504 235.80332389 276.68554688 237.12548828 C278.22067364 244.30275461 278.02322533 251.47899604 277.96557617 258.7824707 C277.94706817 261.21787758 277.94506868 263.65290833 277.9453125 266.08837891 C277.9404053 267.63460618 277.9345805 269.18083088 277.92773438 270.72705078 C277.92662155 271.45610123 277.92550873 272.18515167 277.92436218 272.93629456 C277.87590085 278.0132593 277.87590085 278.0132593 276.75976562 279.12939453 C276.50066372 280.60051757 276.30102787 282.08241022 276.13476562 283.56689453 C276.039375 284.36998047 275.94398438 285.17306641 275.84570312 286.00048828 C275.58592545 288.18415219 275.58592545 288.18415219 276.75976562 290.12939453 C276.25405656 295.35505487 275.51964704 300.07324482 273.69726562 305.00439453 C272.72589438 308.24229867 272.68679025 310.77252725 272.75976562 314.12939453 C272.11615758 317.56197076 270.88390691 320.82722951 269.75976562 324.12939453 C268.89763935 326.71577335 268.36818023 329.08289277 267.88476562 331.75439453 C266.60715217 338.30576577 264.91963096 344.79960213 261.25976562 350.44189453 C259.74575705 353.15449323 259.35648198 355.11464099 258.75976562 358.12939453 C256.96324692 363.30854756 255.0189585 368.68504061 251.75976562 373.12939453 C251.09976562 373.12939453 250.43976563 373.12939453 249.75976562 373.12939453 C250.08976562 374.11939453 250.41976563 375.10939453 250.75976562 376.12939453 C246.22645568 389.87462277 235.41652421 403.72905695 226.75976562 415.12939453 C225.95049492 416.23863046 225.14330337 417.34938543 224.33789062 418.46142578 C223.52041888 419.58008829 222.70271503 420.69858123 221.88476562 421.81689453 C221.14484375 422.83138672 220.40492188 423.84587891 219.64257812 424.89111328 C218.71058594 425.9990625 218.71058594 425.9990625 217.75976562 427.12939453 C217.09976562 427.12939453 216.43976563 427.12939453 215.75976562 427.12939453 C215.52902344 427.67724609 215.29828125 428.22509766 215.06054688 428.78955078 C202.51757089 451.35184091 174.2445743 470.07056877 152.75976562 483.12939453 C152.15036133 483.50370605 151.54095703 483.87801758 150.91308594 484.26367188 C148.90693717 485.49523252 146.89669745 486.71980694 144.88476562 487.94189453 C144.25376953 488.32748535 143.62277344 488.71307617 142.97265625 489.11035156 C139.64082823 491.11495994 136.38127439 492.73519867 132.75976562 494.12939453 C129.77326935 495.61066931 126.80443156 497.11906158 123.84375 498.65087891 C120.84535722 500.1776281 118.06716107 501.47827417 114.75976562 502.12939453 C112.75545114 502.78297534 110.75573783 503.45076398 108.75976562 504.12939453 C107.72851562 504.45939453 106.69726562 504.78939453 105.63476562 505.12939453 C102.89085493 506.00880253 102.89085493 506.00880253 100.95117188 507.05908203 C98.30107541 508.35342505 95.61397971 509.30387397 92.82226562 510.25439453 C91.29279297 510.78419922 91.29279297 510.78419922 89.73242188 511.32470703 C86.89882896 512.09175058 84.66908534 512.20555473 81.75976562 512.12939453 C81.14101563 512.43876953 80.52226562 512.74814453 79.88476562 513.06689453 C76.93533298 514.54161086 74.0118079 514.71549824 70.75976562 515.12939453 C69.76976562 515.45939453 68.77976562 515.78939453 67.75976562 516.12939453 C64.63784226 516.67086633 61.50877051 517.14873191 58.37695312 517.62939453 C55.84226721 517.85960753 55.84226721 517.85960753 54.75976562 519.12939453 C52.76025927 519.17382801 50.75938127 519.16860268 48.75976562 519.12939453 C45.78101996 519.12939453 43.01854022 519.25035263 40.07226562 519.56689453 C39.28464844 519.64810547 38.49703125 519.72931641 37.68554688 519.81298828 C35.75718009 519.93760974 35.75718009 519.93760974 34.75976562 521.12939453 C32.10520369 521.23035017 29.47721387 521.26910452 26.82226562 521.26220703 C26.02699463 521.26316376 25.23172363 521.26412048 24.41235352 521.2651062 C22.72770102 521.26578796 21.04304591 521.26393396 19.35839844 521.25976562 C16.77077366 521.25441728 14.18332247 521.25971072 11.59570312 521.26611328 C9.96289024 521.2654525 8.33007746 521.26417133 6.69726562 521.26220703 C5.91810791 521.26423126 5.1389502 521.26625549 4.33618164 521.26834106 C-1.12528333 521.24434558 -1.12528333 521.24434558 -2.24023438 520.12939453 C-3.18898437 520.12939453 -4.13773438 520.12939453 -5.11523438 520.12939453 C-8.24023437 520.12939453 -8.24023437 520.12939453 -11.24023438 519.12939453 C-12.56023437 519.12939453 -13.88023437 519.12939453 -15.24023438 519.12939453 C-20.30031273 518.74268936 -25.2768268 518.20256374 -30.24023438 517.12939453 C-31.41585937 516.96439453 -32.59148437 516.79939453 -33.80273438 516.62939453 C-38.51696086 515.94368886 -42.73090398 514.66448573 -47.24023438 513.12939453 C-49.84057973 512.26261275 -52.17666393 511.77352475 -54.86523438 511.31689453 C-59.25502082 510.46438528 -62.92570404 509.06055267 -66.94335938 507.13720703 C-69.42267222 506.04934527 -71.88495534 505.29914751 -74.49023438 504.56689453 C-78.17868777 503.51871653 -80.96810658 502.14301164 -84.24023438 500.12939453 C-85.59035716 499.67164562 -86.94983454 499.24114412 -88.31445312 498.82861328 C-93.33271626 497.1909634 -97.85298068 494.9432998 -102.49023438 492.44189453 C-103.72858032 491.78096802 -103.72858032 491.78096802 -104.99194336 491.10668945 C-114.63969989 485.90885623 -123.90693666 480.2291587 -132.82617188 473.85205078 C-134.50564307 472.65359318 -136.19959862 471.47528255 -137.90429688 470.31298828 C-142.45583171 467.20478676 -146.43088938 464.13923137 -150.24023438 460.12939453 C-152.36553876 458.29226701 -154.50821471 456.47900797 -156.66601562 454.68017578 C-157.18550781 454.16841797 -157.705 453.65666016 -158.24023438 453.12939453 C-158.24023438 452.46939453 -158.24023438 451.80939453 -158.24023438 451.12939453 C-158.84005127 451.01708496 -159.43986816 450.90477539 -160.05786133 450.7890625 C-163.64714653 449.70412586 -165.87995555 446.88342201 -168.42773438 444.25439453 C-168.99782227 443.67447754 -169.56791016 443.09456055 -170.15527344 442.49707031 C-183.29647512 428.96067229 -183.29647512 428.96067229 -185.24023438 423.12939453 C-185.90023437 423.12939453 -186.56023437 423.12939453 -187.24023438 423.12939453 C-189.05878764 420.89465494 -190.75557753 418.65791411 -192.42773438 416.31689453 C-192.92313721 415.63054932 -193.41854004 414.9442041 -193.92895508 414.23706055 C-201.06864577 404.27126652 -207.26805678 393.82246423 -213.24023438 383.12939453 C-213.73668457 382.24936768 -213.73668457 382.24936768 -214.24316406 381.3515625 C-215.20875404 379.63628198 -216.16215606 377.91415845 -217.11523438 376.19189453 C-217.66953125 375.19287109 -218.22382813 374.19384766 -218.79492188 373.16455078 C-220.35831458 369.8814261 -221.26564259 366.62645919 -222.24023438 363.12939453 C-223.24713017 361.39879238 -224.25461524 359.668246 -225.29492188 357.95751953 C-226.90586912 354.84213394 -227.45804817 351.53749157 -228.24023438 348.12939453 C-228.89153235 346.78848694 -229.55536712 345.45347122 -230.24023438 344.12939453 C-230.61333336 342.4711768 -230.94724415 340.80362439 -231.24023438 339.12939453 C-231.74132363 336.54043336 -232.42777035 334.77617637 -233.68164062 332.41455078 C-235.26718672 329.07258521 -236.07491301 326.12270647 -236.80273438 322.50439453 C-237.17205078 320.68294922 -237.17205078 320.68294922 -237.54882812 318.82470703 C-238.38042758 314.38011331 -239.12928731 309.92753842 -239.81054688 305.45751953 C-240.13141587 303.11582417 -240.13141587 303.11582417 -241.24023438 301.12939453 C-241.4503985 298.60450611 -241.61550536 296.09612173 -241.74023438 293.56689453 C-241.95738261 289.33250388 -242.220875 285.13631361 -242.74951172 280.92797852 C-243.27369372 276.28622145 -243.38523297 271.71109406 -243.37304688 267.04345703 C-243.3740036 266.21985687 -243.37496033 265.39625671 -243.37594604 264.54769897 C-243.3766209 262.8250928 -243.37481562 261.10248397 -243.37060547 259.37988281 C-243.36520562 256.74033985 -243.37059515 254.10096383 -243.37695312 251.46142578 C-243.37629303 249.78043582 -243.37501328 248.09944597 -243.37304688 246.41845703 C-243.37507111 245.63097076 -243.37709534 244.8434845 -243.37918091 244.03213501 C-243.36526634 240.8030223 -243.26875524 238.21495711 -242.24023438 235.12939453 C-241.98232805 231.91631153 -241.79827294 228.70939436 -241.63476562 225.49072266 C-241.34108743 220.33110065 -241.34108743 220.33110065 -240.24023438 218.12939453 C-240.01401356 216.42575632 -239.83134964 214.71610753 -239.67773438 213.00439453 C-239.59394531 212.09431641 -239.51015625 211.18423828 -239.42382812 210.24658203 C-239.36324219 209.54791016 -239.30265625 208.84923828 -239.24023438 208.12939453 C-238.58023438 208.12939453 -237.92023438 208.12939453 -237.24023438 208.12939453 C-237.30210937 207.03626953 -237.36398438 205.94314453 -237.42773438 204.81689453 C-237.43749359 199.31269541 -235.82895851 194.35505087 -234.24023438 189.12939453 C-233.86292353 187.79671328 -233.4875382 186.46348322 -233.11523438 185.12939453 C-232.2178068 182.05249999 -231.45629528 179.47149097 -229.74023438 176.75439453 C-228.20940816 174.07544865 -227.75449744 172.14150676 -227.24023438 169.12939453 C-225.6177799 163.93754022 -223.73133785 158.96506598 -221.24023438 154.12939453 C-220.76585937 153.18064453 -220.29148437 152.23189453 -219.80273438 151.25439453 C-218.28190104 148.21272786 -216.76106771 145.1710612 -215.24023438 142.12939453 C-214.96566406 141.55705078 -214.69109375 140.98470703 -214.40820312 140.39501953 C-207.39646417 125.953821 -198.56716907 111.53178267 -187.64257812 99.70751953 C-186.05245246 97.99649367 -186.05245246 97.99649367 -184.36523438 95.25439453 C-181.72445078 91.37088924 -178.63957191 88.04169018 -175.45898438 84.59423828 C-173.98086853 82.95217649 -172.55489081 81.26164014 -171.18554688 79.52783203 C-169.44164486 77.37771991 -167.71619451 75.60780108 -165.61523438 73.81689453 C-165.02484375 73.30513672 -164.43445313 72.79337891 -163.82617188 72.26611328 C-162.24023438 71.12939453 -162.24023438 71.12939453 -160.24023438 71.12939453 C-160.03140625 70.57638672 -159.82257813 70.02337891 -159.60742188 69.45361328 C-157.74851145 66.29346556 -155.16459027 64.23492791 -152.36523438 61.94189453 C-151.78588135 61.46067139 -151.20652832 60.97944824 -150.60961914 60.48364258 C-134.33845992 47.07592413 -116.87754303 35.92787117 -98.24023438 26.12939453 C-97.54929688 25.76330078 -96.85835937 25.39720703 -96.14648438 25.02001953 C-93.27942861 23.68049348 -90.28514353 22.83415082 -87.26367188 21.91064453 C-85.05609175 21.21522296 -85.05609175 21.21522296 -83.24023438 19.12939453 C-81.25897588 18.4089369 -79.25519345 17.74938194 -77.24023438 17.12939453 C-73.16288282 15.85409841 -73.16288282 15.85409841 -69.30273438 14.06689453 C-67.24023438 13.12939453 -67.24023438 13.12939453 -64.05273438 12.75439453 C-60.05522007 12.09906432 -57.13775658 10.81626716 -53.50585938 9.11767578 C-49.23346406 7.25402748 -45.00102318 6.09193094 -40.30273438 6.19189453 C-36.61111512 6.11655536 -33.79781669 5.03157174 -30.34960938 3.79345703 C-27.89323457 3.02015385 -25.80005859 2.98311886 -23.24023438 3.12939453 C-22.66015625 2.97728516 -22.08007812 2.82517578 -21.48242188 2.66845703 C-17.71810501 1.76344705 -13.87136066 1.67740822 -10.01757812 1.41064453 C-6.51657523 1.05611259 -3.55615027 0.00378151 0 0 Z M264.75976562 183.12939453 C265.75976562 185.12939453 265.75976562 185.12939453 265.75976562 185.12939453 Z M-234.24023438 191.12939453 C-233.24023438 193.12939453 -233.24023438 193.12939453 -233.24023438 193.12939453 Z M273.75976562 222.12939453 C273.75976562 223.77939453 273.75976562 225.42939453 273.75976562 227.12939453 C274.08976563 227.12939453 274.41976562 227.12939453 274.75976562 227.12939453 C274.75976562 225.47939453 274.75976562 223.82939453 274.75976562 222.12939453 C274.42976562 222.12939453 274.09976563 222.12939453 273.75976562 222.12939453 Z M-234.24023438 327.12939453 C-233.24023438 329.12939453 -233.24023438 329.12939453 -233.24023438 329.12939453 Z M-21.24023438 517.12939453 C-17.24023438 518.12939453 -17.24023438 518.12939453 -17.24023438 518.12939453 Z " fill="#FDFDFD" transform="translate(254.240234375,10.87060546875)"/>
<path d="M0 0 C0.85098267 -0.00315216 1.70196533 -0.00630432 2.57873535 -0.009552 C3.49441284 -0.00752777 4.41009033 -0.00550354 5.35351562 -0.00341797 C6.76812073 -0.00485306 6.76812073 -0.00485306 8.21130371 -0.00631714 C10.20516018 -0.00699762 12.19901888 -0.00515251 14.19287109 -0.00097656 C17.24777189 0.00437353 20.30252566 -0.00092601 23.35742188 -0.00732422 C25.29362012 -0.00666341 27.22981827 -0.0053822 29.16601562 -0.00341797 C30.08169312 -0.0054422 30.99737061 -0.00746643 31.9407959 -0.009552 C32.79177856 -0.00639984 33.64276123 -0.00324768 34.51953125 0 C35.26771118 0.00079559 36.01589111 0.00159119 36.78674316 0.00241089 C38.75976562 0.12939453 38.75976562 0.12939453 41.75976562 1.12939453 C45.18769055 1.38837732 48.60970878 1.57180608 52.04296875 1.73486328 C57.55818225 2.02860284 57.55818225 2.02860284 59.75976562 3.12939453 C61.19263097 3.33207882 62.63150321 3.49379336 64.07226562 3.62939453 C77.55067027 4.91087273 92.65307961 9.06392058 104.75976562 15.12939453 C106.25115165 15.65453045 107.75170715 16.15425282 109.25976562 16.62939453 C112.25381261 17.5727244 114.98117407 18.66431898 117.75976562 20.12939453 C117.75976562 20.78939453 117.75976562 21.44939453 117.75976562 22.12939453 C118.31664062 21.90251953 118.87351562 21.67564453 119.44726562 21.44189453 C122.74699152 20.99598563 123.96843797 22.33053893 126.75976562 24.12939453 C128.16749938 24.77426282 129.58527522 25.39743775 131.00976562 26.00439453 C134.92722841 27.71101198 138.6283272 29.6485242 142.34179688 31.75830078 C145.15159908 33.35158119 147.98506916 34.8979656 150.82226562 36.44189453 C151.76199219 36.95365234 152.70171875 37.46541016 153.66992188 37.99267578 C154.70439453 38.55535156 154.70439453 38.55535156 155.75976562 39.12939453 C155.75976562 39.78939453 155.75976562 40.44939453 155.75976562 41.12939453 C156.33210938 41.24412109 156.90445312 41.35884766 157.49414062 41.47705078 C159.97448218 42.19121809 161.8234526 43.20247325 164.00976562 44.56689453 C165.069375 45.21464844 165.069375 45.21464844 166.15039062 45.87548828 C166.68148438 46.28927734 167.21257812 46.70306641 167.75976562 47.12939453 C167.75976562 47.78939453 167.75976562 48.44939453 167.75976562 49.12939453 C168.50226563 49.39751953 169.24476563 49.66564453 170.00976562 49.94189453 C172.65038511 51.08216204 174.61529407 52.22319759 176.75976562 54.12939453 C176.75976562 54.78939453 176.75976562 55.44939453 176.75976562 56.12939453 C177.74976563 56.12939453 178.73976563 56.12939453 179.75976562 56.12939453 C179.75976562 56.78939453 179.75976562 57.44939453 179.75976562 58.12939453 C180.3346875 58.38720703 180.90960938 58.64501953 181.50195312 58.91064453 C183.95907001 60.23697752 185.80886692 61.7666109 187.88476562 63.62939453 C188.56796875 64.23783203 189.25117188 64.84626953 189.95507812 65.47314453 C191.2509655 66.66244377 192.51602997 67.88565887 193.75976562 69.12939453 C194.79700099 70.00964293 195.83927715 70.88396459 196.88476562 71.75439453 C203.42320753 77.34129603 209.29358001 83.49881434 214.75976562 90.12939453 C215.54351562 91.05751953 216.32726562 91.98564453 217.13476562 92.94189453 C218.75976562 95.12939453 218.75976562 95.12939453 218.75976562 97.12939453 C219.74976563 97.45939453 220.73976563 97.78939453 221.75976562 98.12939453 C223.30273438 100.02783203 223.30273438 100.02783203 224.94726562 102.50439453 C227.51091155 106.30379368 230.14377737 110.01824487 232.88476562 113.69189453 C235.69611235 117.54807127 238.17723803 121.40160524 240.41210938 125.61376953 C241.8083888 128.22015778 243.27445692 130.78150867 244.75366211 133.34155273 C253.31989883 148.17443098 253.31989883 148.17443098 254.18164062 152.00439453 C254.92909616 154.75179867 256.21763931 157.00090793 257.57226562 159.50439453 C260.51808054 165.24767397 262.31363925 170.95318683 263.90039062 177.19580078 C264.64609439 180.28217194 264.64609439 180.28217194 266.75976562 183.12939453 C267.35742188 185.46923828 267.35742188 185.46923828 267.82226562 188.06689453 C268.37957121 191.12056068 268.97667516 194.12550846 269.75976562 197.12939453 C270.24705117 199.07853671 270.73427176 201.02769525 271.22070312 202.97705078 C271.57762375 204.4021469 271.93696586 205.82663893 272.29882812 207.25048828 C273.77429127 213.07526444 274.92447126 218.88606244 275.88476562 224.81689453 C276.16707031 226.52425781 276.16707031 226.52425781 276.45507812 228.26611328 C276.75976562 231.12939453 276.75976562 231.12939453 275.75976562 233.12939453 C276.01585594 234.47250849 276.33709504 235.80332389 276.68554688 237.12548828 C278.22067364 244.30275461 278.02322533 251.47899604 277.96557617 258.7824707 C277.94706817 261.21787758 277.94506868 263.65290833 277.9453125 266.08837891 C277.9404053 267.63460618 277.9345805 269.18083088 277.92773438 270.72705078 C277.92662155 271.45610123 277.92550873 272.18515167 277.92436218 272.93629456 C277.87590085 278.0132593 277.87590085 278.0132593 276.75976562 279.12939453 C276.50066372 280.60051757 276.30102787 282.08241022 276.13476562 283.56689453 C276.039375 284.36998047 275.94398438 285.17306641 275.84570312 286.00048828 C275.58592545 288.18415219 275.58592545 288.18415219 276.75976562 290.12939453 C276.25405656 295.35505487 275.51964704 300.07324482 273.69726562 305.00439453 C272.72589438 308.24229867 272.68679025 310.77252725 272.75976562 314.12939453 C272.11615758 317.56197076 270.88390691 320.82722951 269.75976562 324.12939453 C268.89763935 326.71577335 268.36818023 329.08289277 267.88476562 331.75439453 C266.60715217 338.30576577 264.91963096 344.79960213 261.25976562 350.44189453 C259.74575705 353.15449323 259.35648198 355.11464099 258.75976562 358.12939453 C256.96324692 363.30854756 255.0189585 368.68504061 251.75976562 373.12939453 C251.09976562 373.12939453 250.43976563 373.12939453 249.75976562 373.12939453 C250.08976562 374.11939453 250.41976563 375.10939453 250.75976562 376.12939453 C246.22645568 389.87462277 235.41652421 403.72905695 226.75976562 415.12939453 C225.95049492 416.23863046 225.14330337 417.34938543 224.33789062 418.46142578 C223.52041888 419.58008829 222.70271503 420.69858123 221.88476562 421.81689453 C221.14484375 422.83138672 220.40492188 423.84587891 219.64257812 424.89111328 C218.71058594 425.9990625 218.71058594 425.9990625 217.75976562 427.12939453 C217.09976562 427.12939453 216.43976563 427.12939453 215.75976562 427.12939453 C215.52902344 427.67724609 215.29828125 428.22509766 215.06054688 428.78955078 C202.51757089 451.35184091 174.2445743 470.07056877 152.75976562 483.12939453 C152.15036133 483.50370605 151.54095703 483.87801758 150.91308594 484.26367188 C148.90693717 485.49523252 146.89669745 486.71980694 144.88476562 487.94189453 C144.25376953 488.32748535 143.62277344 488.71307617 142.97265625 489.11035156 C139.64082823 491.11495994 136.38127439 492.73519867 132.75976562 494.12939453 C129.77326935 495.61066931 126.80443156 497.11906158 123.84375 498.65087891 C120.84535722 500.1776281 118.06716107 501.47827417 114.75976562 502.12939453 C112.75545114 502.78297534 110.75573783 503.45076398 108.75976562 504.12939453 C107.72851562 504.45939453 106.69726562 504.78939453 105.63476562 505.12939453 C102.89085493 506.00880253 102.89085493 506.00880253 100.95117188 507.05908203 C98.30107541 508.35342505 95.61397971 509.30387397 92.82226562 510.25439453 C91.29279297 510.78419922 91.29279297 510.78419922 89.73242188 511.32470703 C86.89882896 512.09175058 84.66908534 512.20555473 81.75976562 512.12939453 C81.14101563 512.43876953 80.52226562 512.74814453 79.88476562 513.06689453 C76.93533298 514.54161086 74.0118079 514.71549824 70.75976562 515.12939453 C69.76976562 515.45939453 68.77976562 515.78939453 67.75976562 516.12939453 C64.63784226 516.67086633 61.50877051 517.14873191 58.37695312 517.62939453 C55.84226721 517.85960753 55.84226721 517.85960753 54.75976562 519.12939453 C52.76025927 519.17382801 50.75938127 519.16860268 48.75976562 519.12939453 C45.78101996 519.12939453 43.01854022 519.25035263 40.07226562 519.56689453 C39.28464844 519.64810547 38.49703125 519.72931641 37.68554688 519.81298828 C35.75718009 519.93760974 35.75718009 519.93760974 34.75976562 521.12939453 C32.10520369 521.23035017 29.47721387 521.26910452 26.82226562 521.26220703 C26.02699463 521.26316376 25.23172363 521.26412048 24.41235352 521.2651062 C22.72770102 521.26578796 21.04304591 521.26393396 19.35839844 521.25976562 C16.77077366 521.25441728 14.18332247 521.25971072 11.59570312 521.26611328 C9.96289024 521.2654525 8.33007746 521.26417133 6.69726562 521.26220703 C5.91810791 521.26423126 5.1389502 521.26625549 4.33618164 521.26834106 C-1.12528333 521.24434558 -1.12528333 521.24434558 -2.24023438 520.12939453 C-3.18898437 520.12939453 -4.13773438 520.12939453 -5.11523438 520.12939453 C-8.24023437 520.12939453 -8.24023437 520.12939453 -11.24023438 519.12939453 C-12.56023437 519.12939453 -13.88023437 519.12939453 -15.24023438 519.12939453 C-20.30031273 518.74268936 -25.2768268 518.20256374 -30.24023438 517.12939453 C-31.41585937 516.96439453 -32.59148437 516.79939453 -33.80273438 516.62939453 C-38.51696086 515.94368886 -42.73090398 514.66448573 -47.24023438 513.12939453 C-49.84057973 512.26261275 -52.17666393 511.77352475 -54.86523438 511.31689453 C-59.25502082 510.46438528 -62.92570404 509.06055267 -66.94335938 507.13720703 C-69.42267222 506.04934527 -71.88495534 505.29914751 -74.49023438 504.56689453 C-78.17868777 503.51871653 -80.96810658 502.14301164 -84.24023438 500.12939453 C-85.59035716 499.67164562 -86.94983454 499.24114412 -88.31445312 498.82861328 C-93.33271626 497.1909634 -97.85298068 494.9432998 -102.49023438 492.44189453 C-103.72858032 491.78096802 -103.72858032 491.78096802 -104.99194336 491.10668945 C-114.63969989 485.90885623 -123.90693666 480.2291587 -132.82617188 473.85205078 C-134.50564307 472.65359318 -136.19959862 471.47528255 -137.90429688 470.31298828 C-142.45583171 467.20478676 -146.43088938 464.13923137 -150.24023438 460.12939453 C-152.36553876 458.29226701 -154.50821471 456.47900797 -156.66601562 454.68017578 C-157.18550781 454.16841797 -157.705 453.65666016 -158.24023438 453.12939453 C-158.24023438 452.46939453 -158.24023438 451.80939453 -158.24023438 451.12939453 C-158.84005127 451.01708496 -159.43986816 450.90477539 -160.05786133 450.7890625 C-163.64714653 449.70412586 -165.87995555 446.88342201 -168.42773438 444.25439453 C-168.99782227 443.67447754 -169.56791016 443.09456055 -170.15527344 442.49707031 C-183.29647512 428.96067229 -183.29647512 428.96067229 -185.24023438 423.12939453 C-185.90023437 423.12939453 -186.56023437 423.12939453 -187.24023438 423.12939453 C-189.05878764 420.89465494 -190.75557753 418.65791411 -192.42773438 416.31689453 C-192.92313721 415.63054932 -193.41854004 414.9442041 -193.92895508 414.23706055 C-201.06864577 404.27126652 -207.26805678 393.82246423 -213.24023438 383.12939453 C-213.73668457 382.24936768 -213.73668457 382.24936768 -214.24316406 381.3515625 C-215.20875404 379.63628198 -216.16215606 377.91415845 -217.11523438 376.19189453 C-217.66953125 375.19287109 -218.22382813 374.19384766 -218.79492188 373.16455078 C-220.35831458 369.8814261 -221.26564259 366.62645919 -222.24023438 363.12939453 C-223.24713017 361.39879238 -224.25461524 359.668246 -225.29492188 357.95751953 C-226.90586912 354.84213394 -227.45804817 351.53749157 -228.24023438 348.12939453 C-228.89153235 346.78848694 -229.55536712 345.45347122 -230.24023438 344.12939453 C-230.61333336 342.4711768 -230.94724415 340.80362439 -231.24023438 339.12939453 C-231.74132363 336.54043336 -232.42777035 334.77617637 -233.68164062 332.41455078 C-235.26718672 329.07258521 -236.07491301 326.12270647 -236.80273438 322.50439453 C-237.17205078 320.68294922 -237.17205078 320.68294922 -237.54882812 318.82470703 C-238.38042758 314.38011331 -239.12928731 309.92753842 -239.81054688 305.45751953 C-240.13141587 303.11582417 -240.13141587 303.11582417 -241.24023438 301.12939453 C-241.4503985 298.60450611 -241.61550536 296.09612173 -241.74023438 293.56689453 C-241.95738261 289.33250388 -242.220875 285.13631361 -242.74951172 280.92797852 C-243.27369372 276.28622145 -243.38523297 271.71109406 -243.37304688 267.04345703 C-243.3740036 266.21985687 -243.37496033 265.39625671 -243.37594604 264.54769897 C-243.3766209 262.8250928 -243.37481562 261.10248397 -243.37060547 259.37988281 C-243.36520562 256.74033985 -243.37059515 254.10096383 -243.37695312 251.46142578 C-243.37629303 249.78043582 -243.37501328 248.09944597 -243.37304688 246.41845703 C-243.37507111 245.63097076 -243.37709534 244.8434845 -243.37918091 244.03213501 C-243.36526634 240.8030223 -243.26875524 238.21495711 -242.24023438 235.12939453 C-241.98232805 231.91631153 -241.79827294 228.70939436 -241.63476562 225.49072266 C-241.34108743 220.33110065 -241.34108743 220.33110065 -240.24023438 218.12939453 C-240.01401356 216.42575632 -239.83134964 214.71610753 -239.67773438 213.00439453 C-239.59394531 212.09431641 -239.51015625 211.18423828 -239.42382812 210.24658203 C-239.36324219 209.54791016 -239.30265625 208.84923828 -239.24023438 208.12939453 C-238.58023438 208.12939453 -237.92023438 208.12939453 -237.24023438 208.12939453 C-237.30210937 207.03626953 -237.36398438 205.94314453 -237.42773438 204.81689453 C-237.43749359 199.31269541 -235.82895851 194.35505087 -234.24023438 189.12939453 C-233.86292353 187.79671328 -233.4875382 186.46348322 -233.11523438 185.12939453 C-232.2178068 182.05249999 -231.45629528 179.47149097 -229.74023438 176.75439453 C-228.20940816 174.07544865 -227.75449744 172.14150676 -227.24023438 169.12939453 C-225.6177799 163.93754022 -223.73133785 158.96506598 -221.24023438 154.12939453 C-220.76585937 153.18064453 -220.29148437 152.23189453 -219.80273438 151.25439453 C-218.28190104 148.21272786 -216.76106771 145.1710612 -215.24023438 142.12939453 C-214.96566406 141.55705078 -214.69109375 140.98470703 -214.40820312 140.39501953 C-207.39646417 125.953821 -198.56716907 111.53178267 -187.64257812 99.70751953 C-186.05245246 97.99649367 -186.05245246 97.99649367 -184.36523438 95.25439453 C-181.72445078 91.37088924 -178.63957191 88.04169018 -175.45898438 84.59423828 C-173.98086853 82.95217649 -172.55489081 81.26164014 -171.18554688 79.52783203 C-169.44164486 77.37771991 -167.71619451 75.60780108 -165.61523438 73.81689453 C-165.02484375 73.30513672 -164.43445313 72.79337891 -163.82617188 72.26611328 C-162.24023438 71.12939453 -162.24023438 71.12939453 -160.24023438 71.12939453 C-160.03140625 70.57638672 -159.82257813 70.02337891 -159.60742188 69.45361328 C-157.74851145 66.29346556 -155.16459027 64.23492791 -152.36523438 61.94189453 C-151.78588135 61.46067139 -151.20652832 60.97944824 -150.60961914 60.48364258 C-134.33845992 47.07592413 -116.87754303 35.92787117 -98.24023438 26.12939453 C-97.54929688 25.76330078 -96.85835937 25.39720703 -96.14648438 25.02001953 C-93.27942861 23.68049348 -90.28514353 22.83415082 -87.26367188 21.91064453 C-85.05609175 21.21522296 -85.05609175 21.21522296 -83.24023438 19.12939453 C-81.25897588 18.4089369 -79.25519345 17.74938194 -77.24023438 17.12939453 C-73.16288282 15.85409841 -73.16288282 15.85409841 -69.30273438 14.06689453 C-67.24023438 13.12939453 -67.24023438 13.12939453 -64.05273438 12.75439453 C-60.05522007 12.09906432 -57.13775658 10.81626716 -53.50585938 9.11767578 C-49.23346406 7.25402748 -45.00102318 6.09193094 -40.30273438 6.19189453 C-36.61111512 6.11655536 -33.79781669 5.03157174 -30.34960938 3.79345703 C-27.89323457 3.02015385 -25.80005859 2.98311886 -23.24023438 3.12939453 C-22.66015625 2.97728516 -22.08007812 2.82517578 -21.48242188 2.66845703 C-17.71810501 1.76344705 -13.87136066 1.67740822 -10.01757812 1.41064453 C-6.51657523 1.05611259 -3.55615027 0.00378151 0 0 Z M-50.24023438 61.12939453 C-51.55138304 61.54491455 -52.86257487 61.96029842 -54.17382812 62.37548828 C-93.42011435 75.48783131 -128.02100595 102.79634332 -152.55273438 135.75439453 C-153.14014404 136.54241455 -153.72755371 137.33043457 -154.33276367 138.14233398 C-157.61473442 142.63540213 -160.48380663 147.18022383 -163.10986328 152.08447266 C-164.24023438 154.12939453 -164.24023438 154.12939453 -166.33789062 157.24658203 C-168.45224031 160.45066841 -170.09574343 163.76902107 -171.67773438 167.25439453 C-172.12886597 168.23835205 -172.12886597 168.23835205 -172.58911133 169.2421875 C-176.77076686 178.42067083 -180.52136116 187.5203278 -183.34570312 197.21923828 C-184.24023438 200.12939453 -184.24023438 200.12939453 -185.28710938 202.68017578 C-186.28598891 205.24696869 -186.82027376 207.67112823 -187.30273438 210.37939453 C-188.13392807 215.02308822 -188.13392807 215.02308822 -189.24023438 216.12939453 C-189.42564569 218.02176713 -189.56334138 219.91890464 -189.67773438 221.81689453 C-190.00892948 226.26437164 -190.68000418 229.93627588 -192.24023438 234.12939453 C-193.11960892 239.19785378 -193.42463813 244.18335361 -193.47851562 249.31689453 C-193.48830948 250.08823227 -193.49810333 250.85957001 -193.50819397 251.65428162 C-193.68189706 268.8954216 -193.30218429 285.28295871 -189.24023438 302.12939453 C-189.0365625 303.04575684 -188.83289063 303.96211914 -188.62304688 304.90625 C-179.6402953 345.28011413 -159.75644273 379.62447049 -131.24023438 409.12939453 C-130.73282715 409.65871582 -130.22541992 410.18803711 -129.70263672 410.73339844 C-98.39070755 443.31003023 -54.07393514 464.15476006 -9.25976562 468.77001953 C-6.24023437 469.12939453 -6.24023437 469.12939453 -3.24023438 470.12939453 C-0.62068011 470.25069572 1.97136482 470.3170584 4.59179688 470.33251953 C5.7613945 470.34310898 5.7613945 470.34310898 6.95462036 470.35391235 C63.35283877 470.74731842 115.83982123 454.95173228 157.83398438 415.84423828 C159.75976563 414.12939453 159.75976563 414.12939453 161.75976562 413.12939453 C161.75976562 412.46939453 161.75976562 411.80939453 161.75976562 411.12939453 C162.31792969 410.90380859 162.87609375 410.67822266 163.45117188 410.44580078 C179.50519694 401.29147515 191.87174216 377.66568794 200.75976562 362.12939453 C201.14003906 361.46665527 201.5203125 360.80391602 201.91210938 360.12109375 C210.16897282 345.57975818 215.60067916 330.35989571 220.13867188 314.31347656 C220.64076933 312.54784614 221.1655331 310.78867117 221.69726562 309.03173828 C229.95251204 279.83740332 229.2422734 245.5536944 222.75976562 216.12939453 C222.57784668 215.28570312 222.39592773 214.44201172 222.20849609 213.57275391 C218.05278938 194.87021679 210.93831775 176.91983649 201.75976562 160.12939453 C201.39157715 159.4495752 201.02338867 158.76975586 200.64404297 158.06933594 C191.00282732 140.45565504 178.71692716 125.48311813 164.75976562 111.12939453 C164.00953125 110.33919922 163.25929688 109.54900391 162.48632812 108.73486328 C131.38972538 76.55939881 84.9283077 55.96584175 40.75976562 51.12939453 C40.09323975 51.04020752 39.42671387 50.95102051 38.73999023 50.85913086 C8.63243913 47.00202172 -21.64029362 51.68978365 -50.24023438 61.12939453 Z M264.75976562 183.12939453 C265.75976562 185.12939453 265.75976562 185.12939453 265.75976562 185.12939453 Z M-234.24023438 191.12939453 C-233.24023438 193.12939453 -233.24023438 193.12939453 -233.24023438 193.12939453 Z M273.75976562 222.12939453 C273.75976562 223.77939453 273.75976562 225.42939453 273.75976562 227.12939453 C274.08976563 227.12939453 274.41976562 227.12939453 274.75976562 227.12939453 C274.75976562 225.47939453 274.75976562 223.82939453 274.75976562 222.12939453 C274.42976562 222.12939453 274.09976563 222.12939453 273.75976562 222.12939453 Z M-234.24023438 327.12939453 C-233.24023438 329.12939453 -233.24023438 329.12939453 -233.24023438 329.12939453 Z M-21.24023438 517.12939453 C-17.24023438 518.12939453 -17.24023438 518.12939453 -17.24023438 518.12939453 Z " fill="#FE9156" transform="translate(254.240234375,10.87060546875)"/>
<path d="M0 0 C3.79829709 1.4924876 5.39195019 3.55439336 7.6875 6.875 C10.55012566 10.94098867 13.44456522 14.96610578 16.4375 18.9375 C17.57445312 20.44957031 17.57445312 20.44957031 18.734375 21.9921875 C20.18211905 23.91419253 21.63002011 25.83607932 23.078125 27.7578125 C27.12138634 33.13385257 31.13103997 38.53208415 35.11303711 43.95361328 C40.49864874 51.28577075 45.93174054 58.56615035 51.50390625 65.7578125 C55.93721781 71.49377788 60.25603154 77.31738105 64.59667969 83.12353516 C66.62409019 85.83450891 68.65579655 88.54224191 70.6875 91.25 C88.625 115.16666667 106.5625 139.08333333 124.5 163 C125.23992187 163.98613281 125.97984375 164.97226562 126.7421875 165.98828125 C128.26989037 168.02609944 129.7958848 170.06519935 131.3203125 172.10546875 C132.08085937 173.12253906 132.84140625 174.13960937 133.625 175.1875 C134.35847656 176.16847656 135.09195313 177.14945313 135.84765625 178.16015625 C138.43481129 181.57369838 141.09395224 184.92584562 143.78515625 188.2578125 C145 190 145 190 145 192 C92.86 192 40.72 192 -13 192 C-11 187 -11 187 -9.9296875 184.80859375 C-5.33105428 174.47018498 -4.81498103 160.48273871 -8.75 149.8125 C-14.6512502 137.97656476 -23.5377504 127.44372792 -31.6328125 117.046875 C-34.73103422 113.05906487 -37.75515882 109.01822655 -40.77734375 104.97265625 C-42.28531218 102.95584785 -43.79851463 100.94294438 -45.31640625 98.93359375 C-50.0127179 92.71157679 -54.58115399 86.42224564 -59 80 C-56.85119016 76.27674773 -54.473641 72.8604411 -51.875 69.4375 C-51.07024769 68.37374694 -50.26556206 67.30994344 -49.4609375 66.24609375 C-49.05198242 65.70710449 -48.64302734 65.16811523 -48.22167969 64.61279297 C-46.30489331 62.08235916 -44.40306628 59.54076042 -42.5 57 C-33.5 45 -24.5 33 -15.5 21 C-14.39978516 19.53240234 -14.39978516 19.53240234 -13.27734375 18.03515625 C-11.68783179 15.91671578 -10.09683356 13.79946111 -8.50390625 11.68359375 C-8.09527344 11.14025391 -7.68664062 10.59691406 -7.265625 10.03710938 C-6.12683511 8.52303645 -4.98726886 7.00954753 -3.84765625 5.49609375 C-2.51712238 3.69860718 -1.2405059 1.86075884 0 0 Z " fill="#010101" transform="translate(301,92)"/>
<path d="M0 0 C4.26960961 4.0549365 7.85058575 8.46231493 11.4375 13.125 C12.04368164 13.90834717 12.64986328 14.69169434 13.27441406 15.4987793 C18.28271379 22.00065783 23.16234879 28.59365268 28.00927734 35.21630859 C31.46933133 39.94063195 34.97586452 44.62107106 38.5625 49.25 C48 61.45500412 48 61.45500412 48 64 C46.05859375 65.26171875 46.05859375 65.26171875 43.4375 66.6875 C32.80109479 72.9283245 26.25561952 82.01873355 23 94 C21.46762943 105.09604225 22.84591762 113.73585878 28.46875 123.375 C30 126 30 126 30 128 C-11.25 128 -52.5 128 -95 128 C-93.52688963 125.05377925 -92.22464911 122.78821467 -90.3046875 120.19140625 C-89.76199219 119.45535156 -89.21929687 118.71929687 -88.66015625 117.9609375 C-88.07105469 117.16945313 -87.48195313 116.37796875 -86.875 115.5625 C-86.25753906 114.72847656 -85.64007813 113.89445312 -85.00390625 113.03515625 C-79.72136103 105.92118754 -74.34941831 98.87657862 -68.96435547 91.84008789 C-64.58134751 86.10395425 -60.26562959 80.32385044 -56 74.5 C-50.41554142 66.87555655 -44.71184368 59.34925067 -38.9675293 51.84472656 C-33.93236628 45.2546136 -28.99743247 38.59667192 -24.09570312 31.90698242 C-19.13208602 25.14611992 -14.05249839 18.4787805 -8.9375 11.83203125 C-5.92388945 7.91372831 -2.95736886 3.96085549 0 0 Z " fill="#020202" transform="translate(189,156)"/>
<path d="M0 0 C3.50625 -0.0825 7.0125 -0.165 10.625 -0.25 C11.71893066 -0.28641602 12.81286133 -0.32283203 13.93994141 -0.36035156 C21.27347725 -0.44376364 24.58525729 0.69908205 29.875 5.8125 C31.9148253 9.77882697 31.42141871 13.57365976 30.1875 17.75 C29.02283686 19.95673017 27.87882594 21.3773776 26 23 C27.16763633 26.95199987 28.46414855 29.7725527 31 33 C31 33.66 31 34.32 31 35 C27.7 35 24.4 35 21 35 C20.319375 33.535625 19.63875 32.07125 18.9375 30.5625 C17.6571935 28.06570496 17.6571935 28.06570496 16 26 C12.33515719 24.7819227 12.33515719 24.7819227 9 25 C9 28.3 9 31.6 9 35 C6.03 35 3.06 35 0 35 C0 23.45 0 11.9 0 0 Z " fill="#080808" transform="translate(104,305)"/>
<path d="M0 0 C8 0 8 0 10.28515625 1.8359375 C10.87167969 2.67382812 11.45820313 3.51171875 12.0625 4.375 C12.71347656 5.27734375 13.36445313 6.1796875 14.03515625 7.109375 C15.00775391 8.54023438 15.00775391 8.54023438 16 10 C17.01900391 11.43085938 17.01900391 11.43085938 18.05859375 12.890625 C19.72935956 15.24381629 21.36788795 17.61983659 23 20 C23.33 13.4 23.66 6.8 24 0 C26.64 0 29.28 0 32 0 C32 11.55 32 23.1 32 35 C24 35 24 35 21.20703125 32.40234375 C20.38230556 31.26620164 19.58442424 30.11015695 18.8125 28.9375 C18.41353516 28.37611328 18.01457031 27.81472656 17.60351562 27.23632812 C16.3798452 25.50658398 15.19005087 23.75304394 14 22 C12.35 19.69 10.7 17.38 9 15 C8.67 21.6 8.34 28.2 8 35 C5.36 35 2.72 35 0 35 C0 23.45 0 11.9 0 0 Z " fill="#060606" transform="translate(227,305)"/>
<path d="M0 0 C3.3 0 6.6 0 10 0 C13.94422994 7.38494116 17.19031204 14.7764651 19.99462891 22.65429688 C21.10081046 25.7372729 22.17125586 28.25688379 24 31 C24 32.32 24 33.64 24 35 C21.03 35 18.06 35 15 35 C14.34 33.35 13.68 31.7 13 30 C7.72 30 2.44 30 -3 30 C-3.99 32.475 -3.99 32.475 -5 35 C-7.97 35 -10.94 35 -14 35 C-13.34003773 30.84369348 -11.98221336 27.31276533 -10.3125 23.45703125 C-10.04993408 22.84736008 -9.78736816 22.2376889 -9.5168457 21.60954285 C-8.68242442 19.67520118 -7.84125818 17.74387654 -7 15.8125 C-6.43446357 14.50344187 -5.869355 13.19419881 -5.3046875 11.88476562 C-1.24946803 2.49893606 -1.24946803 2.49893606 0 0 Z " fill="#0B0B0B" transform="translate(175,305)"/>
<path d="M0 0 C9.24 0 18.48 0 28 0 C28 2.31 28 4.62 28 7 C21.73 7 15.46 7 9 7 C9 9.31 9 11.62 9 14 C14.61 14 20.22 14 26 14 C26 16.31 26 18.62 26 21 C20.39 21 14.78 21 9 21 C9 23.31 9 25.62 9 28 C15.27 28 21.54 28 28 28 C28 30.31 28 32.62 28 35 C18.76 35 9.52 35 0 35 C0 23.45 0 11.9 0 0 Z " fill="#080808" transform="translate(351,305)"/>
<path d="M0 0 C1.88154202 0.94580187 3.70113503 2.01309685 5.50390625 3.1015625 C5.50390625 7.1015625 5.50390625 7.1015625 4.00390625 8.8515625 C3.50890625 9.2640625 3.01390625 9.6765625 2.50390625 10.1015625 C1.49328125 9.7715625 0.48265625 9.4415625 -0.55859375 9.1015625 C-4.33589112 8.05612868 -7.56000964 7.59132937 -11.49609375 8.1015625 C-14.40366764 10.08118728 -16.1570258 11.4998701 -16.90625 15.0390625 C-17.10029223 19.49359717 -16.31439609 22.52448646 -13.49609375 26.1015625 C-10.97133913 27.36393981 -9.18408909 27.20012654 -6.37109375 27.1640625 C-4.76234375 27.1434375 -3.15359375 27.1228125 -1.49609375 27.1015625 C-1.49609375 23.8015625 -1.49609375 20.5015625 -1.49609375 17.1015625 C1.14390625 17.1015625 3.78390625 17.1015625 6.50390625 17.1015625 C6.50390625 22.0515625 6.50390625 27.0015625 6.50390625 32.1015625 C-0.69258139 35.55587657 -7.58171755 35.96599679 -15.49609375 35.1015625 C-20.79227328 32.63609962 -23.98635236 28.89458407 -26.74609375 23.7890625 C-28.12234178 18.85750707 -28.05854365 14.75582692 -26.43359375 9.9765625 C-20.28567521 0.85384466 -10.86064994 -3.90915413 0 0 Z " fill="#0C0C0C" transform="translate(314.49609375,304.8984375)"/>
<path d="M0 0 C3.17596615 1.04802326 6.07605577 2.38280615 9 4 C8.01 6.31 7.02 8.62 6 11 C4.824375 10.67 3.64875 10.34 2.4375 10 C-1.5011676 9.0030467 -4.95139129 8.83130797 -9 9 C-8.33789166 11.0044922 -8.33789166 11.0044922 -7 13 C-4.76867368 13.98707211 -4.76867368 13.98707211 -2.1875 14.5 C2.0401352 15.61800179 4.84342774 16.84342774 8 20 C9.57455739 23.14911479 9.34799118 25.52008816 9 29 C6.99707521 32.47998516 4.87946651 34.7068445 1 36 C-7.38391532 36.64983333 -13.82973523 36.58896945 -21 32 C-20.50168276 28.31245243 -19.89932357 26.39509338 -17 24 C-16.01 24.66 -15.02 25.32 -14 26 C-9.8492018 28.41068853 -6.72680045 28.33170529 -2 28 C-2 26.68 -2 25.36 -2 24 C-2.81984375 23.75765625 -3.6396875 23.5153125 -4.484375 23.265625 C-6.10085938 22.76289063 -6.10085938 22.76289063 -7.75 22.25 C-9.35101563 21.76273437 -9.35101563 21.76273437 -10.984375 21.265625 C-14.80433381 19.66242985 -17.14077965 17.7184407 -19 14 C-19.375 10.6875 -19.375 10.6875 -19 7 C-13.36128583 0.14210438 -8.52550703 -0.97369669 0 0 Z " fill="#0C0C0C" transform="translate(427,304)"/>
<path d="M0 0 C3.66666667 0 7.33333333 0 11 0 C12.155 -0.020625 13.31 -0.04125 14.5 -0.0625 C18 0 18 0 20 1 C20.66 0.67 21.32 0.34 22 0 C25.5 -0.1875 25.5 -0.1875 29 0 C31 2 31 2 31.1953125 5.6953125 C31.182009 7.17200108 31.15814835 8.64862358 31.125 10.125 C31.11597656 10.87910156 31.10695312 11.63320313 31.09765625 12.41015625 C31.0740687 14.27357254 31.03819719 16.13682593 31 18 C31.66 18 32.32 18 33 18 C33 18.66 33 19.32 33 20 C22.11 20 11.22 20 0 20 C0.33 19.34 0.66 18.68 1 18 C1.09809858 15.32248582 1.1390397 12.67690283 1.125 10 C1.13080078 8.89398438 1.13080078 8.89398438 1.13671875 7.765625 C1.21417412 3.75278359 1.21417412 3.75278359 0 0 Z " fill="#D6D6D6" transform="translate(110,363)"/>
<path d="M0 0 C2.87029869 1.79393668 4.49131638 2.98263276 6 6 C6.37712577 10.99691647 6.09290612 13.99067725 3 18 C-0.70503565 20.47002376 -3.70486777 20.76877853 -8 20 C-11 18.1875 -11 18.1875 -13 15 C-13.81707432 10.11201559 -13.92886207 5.73656822 -11.5625 1.3125 C-7.71032878 -0.66056331 -4.23554359 -0.77009883 0 0 Z " fill="#171717" transform="translate(373,363)"/>
<path d="M0 0 C2.64 0 5.28 0 8 0 C8 5.94 8 11.88 8 18 C13.07407972 14.68317964 13.07407972 14.68317964 14 11 C13.01 10.67 12.02 10.34 11 10 C11 9.67 11 9.34 11 9 C14.3 9 17.6 9 21 9 C18 12 18 12 16 13 C16.56825653 18.54050113 18.62886517 23.03715966 21 28 C18.36 28 15.72 28 13 28 C11.68 25.36 10.36 22.72 9 20 C9 22.64 9 25.28 9 28 C6.36 28 3.72 28 1 28 C0.67 18.76 0.34 9.52 0 0 Z " fill="#121212" transform="translate(409,354)"/>
<path d="M0 0 C1.65 0.33 3.3 0.66 5 1 C6.19287411 4.87684087 7 7.91621923 7 12 C7.66 12 8.32 12 9 12 C9 8.37 9 4.74 9 1 C10.65 1 12.3 1 14 1 C13.73445313 1.78503906 13.46890625 2.57007813 13.1953125 3.37890625 C11.34215005 8.89105003 9.53022455 14.38917664 8 20 C6.35 19.67 4.7 19.34 3 19 C2.01 16.03 1.02 13.06 0 10 C-1.32 12.97 -2.64 15.94 -4 19 C-5.32 19 -6.64 19 -8 19 C-9.0063655 16.56495491 -10.00526413 14.12729136 -11 11.6875 C-11.28617187 10.99720703 -11.57234375 10.30691406 -11.8671875 9.59570312 C-13.08910744 6.58454326 -14 4.28113016 -14 1 C-11.36 1 -8.72 1 -6 1 C-5.01 3.64 -4.02 6.28 -3 9 C-2.01 6.03 -1.02 3.06 0 0 Z " fill="#202020" transform="translate(339,363)"/>
<path d="M0 0 C3.5625 0.125 3.5625 0.125 5.5625 1.125 C6.2225 0.795 6.8825 0.465 7.5625 0.125 C11.0625 -0.0625 11.0625 -0.0625 14.5625 0.125 C17.58343215 3.14593215 17.02926834 6.68872072 17.1875 10.75 C17.22617188 11.55179687 17.26484375 12.35359375 17.3046875 13.1796875 C17.39903931 15.16107556 17.48186215 17.14300645 17.5625 19.125 C14.9225 19.125 12.2825 19.125 9.5625 19.125 C9.5625 13.515 9.5625 7.905 9.5625 2.125 C8.5725 2.455 7.5825 2.785 6.5625 3.125 C6.2325 8.405 5.9025 13.685 5.5625 19.125 C3.2525 19.125 0.9425 19.125 -1.4375 19.125 C-1.4375 13.515 -1.4375 7.905 -1.4375 2.125 C-2.4275 1.795 -3.4175 1.465 -4.4375 1.125 C-3.4375 0.125 -3.4375 0.125 0 0 Z " fill="#141414" transform="translate(124.4375,362.875)"/>
<path d="M0 0 C0.99 0.66 1.98 1.32 3 2 C3.1875 5.125 3.1875 5.125 3 8 C0.03 8 -2.94 8 -6 8 C-5.34 10.31 -4.68 12.62 -4 15 C-0.37114676 15.15149298 -0.37114676 15.15149298 3 14 C1.84826645 16.46800047 0.95216435 18.04783565 -1 20 C-5.22549657 20.55808445 -7.31342248 20.43824097 -10.9375 18.125 C-13.82822957 13.74510672 -14.02120414 10.10602071 -13 5 C-9.428236 -0.58088125 -6.13465147 -0.69262194 0 0 Z " fill="#141414" transform="translate(296,363)"/>
<path d="M0 0 C2 2 2 2 2.125 4.625 C2.08375 5.40875 2.0425 6.1925 2 7 C0.35 7.33 -1.3 7.66 -3 8 C-3.33 6.35 -3.66 4.7 -4 3 C-4.66 3 -5.32 3 -6 3 C-6.02698189 4.62490954 -6.04638757 6.24994633 -6.0625 7.875 C-6.07410156 8.77992188 -6.08570313 9.68484375 -6.09765625 10.6171875 C-6.16249257 13.0168585 -6.16249257 13.0168585 -5 15 C-1.37114676 15.15149298 -1.37114676 15.15149298 2 14 C0.84826645 16.46800047 -0.04783565 18.04783565 -2 20 C-6.22549657 20.55808445 -8.31342248 20.43824097 -11.9375 18.125 C-14.83112731 13.7407162 -15.01368796 10.11032774 -14 5 C-10.57026913 -0.53182398 -6.08563773 -1.1358263 0 0 Z " fill="#111111" transform="translate(232,363)"/>
<path d="M0 0 C2.45862401 -0.05383848 4.9160755 -0.09359038 7.375 -0.125 C8.42300781 -0.15013672 8.42300781 -0.15013672 9.4921875 -0.17578125 C11.32897486 -0.19344267 13.16601963 -0.10303261 15 0 C15.66 0.66 16.32 1.32 17 2 C16.625 4.125 16.625 4.125 16 6 C14.34385343 6.38218767 12.67542976 6.71395102 11 7 C10.67 6.67 10.34 6.34 10 6 C9.97305149 7.95825873 9.95362782 9.91662226 9.9375 11.875 C9.92589844 12.96554687 9.91429687 14.05609375 9.90234375 15.1796875 C9.80255697 17.95177546 9.80255697 17.95177546 11 20 C7.37 20 3.74 20 0 20 C0 19.34 0 18.68 0 18 C0.66 18 1.32 18 2 18 C1.85946128 15.37461716 1.71281053 12.74982573 1.5625 10.125 C1.50352539 9.00544922 1.50352539 9.00544922 1.44335938 7.86328125 C1.28426376 3.80013136 1.28426376 3.80013136 0 0 Z " fill="#1F1F1F" transform="translate(386,363)"/>
<path d="M0 0 C0.99773437 0.02320313 1.99546875 0.04640625 3.0234375 0.0703125 C4.52777344 0.09738281 4.52777344 0.09738281 6.0625 0.125 C6.83335937 0.14820313 7.60421875 0.17140625 8.3984375 0.1953125 C8.3984375 2.1753125 8.3984375 4.1553125 8.3984375 6.1953125 C7.7796875 5.23625 7.7796875 5.23625 7.1484375 4.2578125 C5.22033263 1.98540319 4.28419569 1.59334811 1.3984375 1.1953125 C2.46783952 4.93821957 3.37692712 6.1785344 6.5234375 8.6328125 C9.3984375 11.1953125 9.3984375 11.1953125 10.0234375 14.3203125 C9.3984375 17.1953125 9.3984375 17.1953125 7.71875 18.86328125 C4.82427699 20.52492317 2.96147403 20.50113523 -0.3515625 20.3828125 C-1.82882813 20.34220703 -1.82882813 20.34220703 -3.3359375 20.30078125 C-4.08359375 20.26597656 -4.83125 20.23117187 -5.6015625 20.1953125 C-5.6015625 17.5553125 -5.6015625 14.9153125 -5.6015625 12.1953125 C-4.6115625 12.6903125 -4.6115625 12.6903125 -3.6015625 13.1953125 C-2.9765625 15.2578125 -2.9765625 15.2578125 -2.6015625 17.1953125 C-1.2815625 17.5253125 0.0384375 17.8553125 1.3984375 18.1953125 C0.81639041 14.78511351 -0.31077906 13.19045024 -2.7265625 10.7578125 C-5.6015625 7.55266896 -5.6015625 7.55266896 -5.6015625 4.3828125 C-4.19471342 1.30533013 -3.44725207 0.25880271 0 0 Z " fill="#151515" transform="translate(183.6015625,362.8046875)"/>
<path d="M0 0 C0 1.65 0 3.3 0 5 C1.32 5.33 2.64 5.66 4 6 C2.68 6 1.36 6 0 6 C0 11.28 0 16.56 0 22 C0.99 22 1.98 22 3 22 C3 22.66 3 23.32 3 24 C0.21136993 25.39431504 -1.92078868 25.25660094 -5 25 C-7.52775351 21.20836973 -7.22443035 18.19125969 -7.125 13.8125 C-7.11597656 13.06291016 -7.10695313 12.31332031 -7.09765625 11.54101562 C-7.07412578 9.69387346 -7.03825561 7.84689588 -7 6 C-7.66 5.67 -8.32 5.34 -9 5 C-8.34 5 -7.68 5 -7 5 C-7 3.68 -7 2.36 -7 1 C-4.50935112 0.31292445 -2.62113708 0 0 0 Z " fill="#141414" transform="translate(315,358)"/>
<path d="M0 0 C2.97 0 5.94 0 9 0 C9 5.94 9 11.88 9 18 C9.99 18.33 10.98 18.66 12 19 C11 20 11 20 7.5625 20.25 C6.386875 20.1675 5.21125 20.085 4 20 C1.61221098 16.41831647 1.59854519 13.58932358 1.4375 9.4375 C1.3941982 4.57014351 1.3941982 4.57014351 0 0 Z " fill="#181818" transform="translate(149,363)"/>
<path d="M0 0 C2.97 0 5.94 0 9 0 C9.33 6.27 9.66 12.54 10 19 C7.03 19 4.06 19 1 19 C1.01160156 17.79601562 1.02320313 16.59203125 1.03515625 15.3515625 C1.04453434 13.77604321 1.05363452 12.20052225 1.0625 10.625 C1.07087891 9.8309375 1.07925781 9.036875 1.08789062 8.21875 C1.23040151 3.97607778 1.23040151 3.97607778 0 0 Z " fill="#151515" transform="translate(200,363)"/>
<path d="M0 0 C2.97 0 5.94 0 9 0 C10.27603607 3.82810821 9.86283987 7.23475107 9.5625 11.1875 C9.51029297 11.93708984 9.45808594 12.68667969 9.40429688 13.45898438 C9.27486216 15.30637082 9.13813482 17.15324371 9 19 C6.69 19 4.38 19 2 19 C1.93941406 17.79601562 1.87882812 16.59203125 1.81640625 15.3515625 C1.73200268 13.77602923 1.64735459 12.20050904 1.5625 10.625 C1.50352539 9.43390625 1.50352539 9.43390625 1.44335938 8.21875 C1.31106596 3.97398779 1.31106596 3.97398779 0 0 Z " fill="#161616" transform="translate(110,363)"/>
<path d="M0 0 C2.97 0 5.94 0 9 0 C9.33 6.27 9.66 12.54 10 19 C7.69 19 5.38 19 3 19 C1.24493708 15.48987415 1.59047961 11.29283669 1.39453125 7.41015625 C1.23644006 3.57873373 1.23644006 3.57873373 0 0 Z " fill="#111111" transform="translate(160,363)"/>
<path d="M0 0 C9.625 -0.25 9.625 -0.25 13 2 C13.39299693 5.07847595 13.64840923 7.09180467 11.80078125 9.6796875 C9.37161885 11.46072197 7.79015233 11.30351243 4.8125 11.1875 C3.224375 11.125625 1.63625 11.06375 0 11 C0 7.37 0 3.74 0 0 Z " fill="#F5F5F5" transform="translate(113,312)"/>
<path d="M0 0 C2.64 0 5.28 0 8 0 C10.03358813 6.35352676 11.60671734 11.42706544 10 18 C8.68 18 7.36 18 6 18 C4.9936345 15.56495491 3.99473587 13.12729136 3 10.6875 C2.71382813 9.99720703 2.42765625 9.30691406 2.1328125 8.59570312 C0.91089256 5.58454326 0 3.28113016 0 0 Z " fill="#0D0D0D" transform="translate(325,364)"/>
<path d="M0 0 C2.64 0 5.28 0 8 0 C9.25433458 3.76300374 9.10695422 7.27210909 9.0625 11.1875 C9.05798828 11.93708984 9.05347656 12.68667969 9.04882812 13.45898438 C9.03706354 15.30602383 9.01912865 17.15302213 9 19 C6.36 19 3.72 19 1 19 C1.01160156 17.79601562 1.02320313 16.59203125 1.03515625 15.3515625 C1.04453434 13.77604321 1.05363452 12.20052225 1.0625 10.625 C1.07087891 9.8309375 1.07925781 9.036875 1.08789062 8.21875 C1.23040151 3.97607778 1.23040151 3.97607778 0 0 Z " fill="#070707" transform="translate(255,363)"/>
<path d="M0 0 C3.5625 0.1875 3.5625 0.1875 5.5625 2.1875 C5.86925232 5.08717757 6.07423371 7.90533178 6.1875 10.8125 C6.22617187 11.61429687 6.26484375 12.41609375 6.3046875 13.2421875 C6.39903931 15.22357556 6.48186215 17.20550645 6.5625 19.1875 C3.9225 19.1875 1.2825 19.1875 -1.4375 19.1875 C-1.1075 13.5775 -0.7775 7.9675 -0.4375 2.1875 C-1.7575 1.8575 -3.0775 1.5275 -4.4375 1.1875 C-3.4375 0.1875 -3.4375 0.1875 0 0 Z " fill="#060606" transform="translate(268.4375,362.8125)"/>
<path d="M0 0 C3.5 0.125 3.5 0.125 4.5 1.125 C4.65582303 2.46515221 4.75044142 3.81258903 4.81640625 5.16015625 C4.87924805 6.37348633 4.87924805 6.37348633 4.94335938 7.61132812 C4.98267578 8.46146484 5.02199219 9.31160156 5.0625 10.1875 C5.10568359 11.04150391 5.14886719 11.89550781 5.19335938 12.77539062 C5.29976702 14.89172037 5.40041731 17.00833813 5.5 19.125 C3.19 19.125 0.88 19.125 -1.5 19.125 C-1.5 13.515 -1.5 7.905 -1.5 2.125 C-2.49 1.795 -3.48 1.465 -4.5 1.125 C-3.5 0.125 -3.5 0.125 0 0 Z " fill="#0E0E0E" transform="translate(124.5,362.875)"/>
<path d="M0 0 C3.37234971 0.28102914 4.78639739 0.80371652 7.3125 3.125 C9.44455077 6.7573828 9.51947757 8.84417945 9 13 C7.8125 15.875 7.8125 15.875 6 18 C3.38671875 18.6328125 3.38671875 18.6328125 1 19 C1.01740234 17.57107422 1.01740234 17.57107422 1.03515625 16.11328125 C1.04417969 14.85902344 1.05320312 13.60476563 1.0625 12.3125 C1.07410156 11.07113281 1.08570313 9.82976562 1.09765625 8.55078125 C1.01478673 5.53764546 0.70839449 2.91724661 0 0 Z " fill="#0C0C0C" transform="translate(370,363)"/>
<path d="M0 0 C1.32 0 2.64 0 4 0 C4 5.28 4 10.56 4 16 C6.64 16 9.28 16 12 16 C12.33 16.66 12.66 17.32 13 18 C5.41 18 -2.18 18 -10 18 C-8 16 -8 16 -4.375 15.875 C-2.704375 15.936875 -2.704375 15.936875 -1 16 C-1.01160156 14.92878906 -1.02320313 13.85757812 -1.03515625 12.75390625 C-1.04453299 11.35677257 -1.05363331 9.95963701 -1.0625 8.5625 C-1.07506836 7.50192383 -1.07506836 7.50192383 -1.08789062 6.41992188 C-1.09653588 4.61306441 -1.05220011 2.80612397 -1 1 C-0.67 0.67 -0.34 0.34 0 0 Z " fill="#D1D1D1" transform="translate(264,365)"/>
<path d="M0 0 C1.98 0.99 1.98 0.99 4 2 C4.33 7.61 4.66 13.22 5 19 C8.96 18.505 8.96 18.505 13 18 C13 18.66 13 19.32 13 20 C10.03 20 7.06 20 4 20 C4 19.34 4 18.68 4 18 C2.68 18 1.36 18 0 18 C0 12.06 0 6.12 0 0 Z " fill="#E3E3E3" transform="translate(158,363)"/>
<path d="M0 0 C0.99 0 1.98 0 3 0 C3.95530645 3.23275701 4.16460378 6.19675639 4.1875 9.5625 C4.20167969 10.51253906 4.21585937 11.46257812 4.23046875 12.44140625 C4 15 4 15 2 18 C1.01 17.67 0.02 17.34 -1 17 C-1.02684679 14.35409986 -1.04676357 11.70846904 -1.0625 9.0625 C-1.07087891 8.30775391 -1.07925781 7.55300781 -1.08789062 6.77539062 C-1.09652441 4.85005687 -1.05224333 2.92464419 -1 1 C-0.67 0.67 -0.34 0.34 0 0 Z " fill="#E5E5E5" transform="translate(368,364)"/>
<path d="M0 0 C0.99 0 1.98 0 3 0 C3.02690844 2.62506802 3.04679404 5.24986173 3.0625 7.875 C3.07087891 8.62136719 3.07925781 9.36773437 3.08789062 10.13671875 C3.11328125 15.7734375 3.11328125 15.7734375 2 18 C-1.96 18 -5.92 18 -10 18 C-9.34 17.34 -8.68 16.68 -8 16 C-4.375 16.375 -4.375 16.375 -1 17 C-1.01160156 15.85660156 -1.02320312 14.71320313 -1.03515625 13.53515625 C-1.04453288 12.04427246 -1.05363321 10.55338691 -1.0625 9.0625 C-1.07087891 8.30775391 -1.07925781 7.55300781 -1.08789062 6.77539062 C-1.09652441 4.85005687 -1.05224333 2.92464419 -1 1 C-0.67 0.67 -0.34 0.34 0 0 Z " fill="#E1E1E1" transform="translate(120,365)"/>
<path d="M0 0 C3 1 3 1 4.38671875 3.50390625 C4.81597656 4.51324219 5.24523437 5.52257812 5.6875 6.5625 C6.34298828 8.08037109 6.34298828 8.08037109 7.01171875 9.62890625 C7.33785156 10.41136719 7.66398437 11.19382812 8 12 C5.36 12 2.72 12 0 12 C-3.05232558 6.62790698 -3.05232558 6.62790698 -2.8125 3.75 C-2 2 -2 2 0 0 Z " fill="#0B0B0B" transform="translate(422,370)"/>
<path d="M0 0 C0.66 0 1.32 0 2 0 C2.67305018 1.60149886 3.33822227 3.20631029 4 4.8125 C4.37125 5.70582031 4.7425 6.59914063 5.125 7.51953125 C6 10 6 10 6 13 C2.7 13 -0.6 13 -4 13 C-3.27991594 8.39146203 -1.68704061 4.32762591 0 0 Z " fill="#DBDBDB" transform="translate(179,314)"/>
<path d="M0 0 C1.258125 -0.04125 2.51625 -0.0825 3.8125 -0.125 C4.52019531 -0.14820313 5.22789062 -0.17140625 5.95703125 -0.1953125 C8 0 8 0 11 2 C11.1875 5.125 11.1875 5.125 11 8 C8.03 8 5.06 8 2 8 C2 5.69 2 3.38 2 1 C1.34 0.67 0.68 0.34 0 0 Z " fill="#242424" transform="translate(288,363)"/>
<path d="M0 0 C3.0916909 2.52956528 3.90931332 5.22454612 5 9 C9.455 8.505 9.455 8.505 14 8 C14 8.66 14 9.32 14 10 C6.74 10 -0.52 10 -8 10 C-7.67 9.34 -7.34 8.68 -7 8 C-4.69 8 -2.38 8 0 8 C0 5.36 0 2.72 0 0 Z " fill="#B3B3B3" transform="translate(417,373)"/>
<path d="M0 0 C0.33 0 0.66 0 1 0 C1.02578125 0.62648438 1.0515625 1.25296875 1.078125 1.8984375 C1.13484375 2.71570313 1.1915625 3.53296875 1.25 4.375 C1.29640625 5.18710937 1.3428125 5.99921875 1.390625 6.8359375 C1.7922092 9.18838927 1.7922092 9.18838927 4.046875 10.2890625 C4.69140625 10.52367187 5.3359375 10.75828125 6 11 C5.4409112 14.24271506 4.5867822 15.93057424 2 18 C1.34 18 0.68 18 0 18 C0 12.06 0 6.12 0 0 Z " fill="#D8D8D8" transform="translate(417,354)"/>
<path d="M0 0 C2.5 0.125 2.5 0.125 3.5 1.125 C3.54063832 2.79117115 3.542721 4.45888095 3.5 6.125 C0.625 6.75 0.625 6.75 -2.5 7.125 C-3.16 6.465 -3.82 5.805 -4.5 5.125 C-3.7519084 0.18759542 -3.7519084 0.18759542 0 0 Z " fill="#252525" transform="translate(205.5,352.875)"/>
<path d="M0 0 C3.3 0 6.6 0 10 0 C7 3 7 3 5 4 C4.67 4.99 4.34 5.98 4 7 C2.04402816 8.39712274 0.04563599 9.73779907 -2 11 C-2.33 10.34 -2.66 9.68 -3 9 C-2.195625 8.401875 -1.39125 7.80375 -0.5625 7.1875 C2.22327984 5.19052724 2.22327984 5.19052724 3 2 C2.01 1.67 1.02 1.34 0 1 C0 0.67 0 0.34 0 0 Z " fill="#3A3A3A" transform="translate(420,363)"/>
<path d="M0 0 C0.33 0 0.66 0 1 0 C1 8.91 1 17.82 1 27 C0.67 27 0.34 27 0 27 C0 18.09 0 9.18 0 0 Z " fill="#FF609F" transform="translate(10,258)"/>
<path d="M0 0 C0.99 0.495 0.99 0.495 2 1 C2.33 2.32 2.66 3.64 3 5 C5.64 5.66 8.28 6.32 11 7 C11 7.33 11 7.66 11 8 C7.37 8 3.74 8 0 8 C0 5.36 0 2.72 0 0 Z " fill="#626262" transform="translate(178,375)"/>
<path d="M0 0 C8.58 0 17.16 0 26 0 C26 0.33 26 0.66 26 1 C17.42 1 8.84 1 0 1 C0 0.67 0 0.34 0 0 Z " fill="#FF9F60" transform="translate(259,10)"/>
<path d="M0 0 C1.65 0 3.3 0 5 0 C3.68 3.96 2.36 7.92 1 12 C0.34 11.67 -0.32 11.34 -1 11 C-0.67 10.01 -0.34 9.02 0 8 C0.06665376 6.60560336 0.08538199 5.20830125 0.0625 3.8125 C0.041875 2.554375 0.02125 1.29625 0 0 Z " fill="#4A4A4A" transform="translate(348,364)"/>
<path d="M0 0 C0.99 0.33 1.98 0.66 3 1 C3 2.65 3 4.3 3 6 C1.68 6 0.36 6 -1 6 C-0.67 4.02 -0.34 2.04 0 0 Z " fill="#ECECEC" transform="translate(291,364)"/>
<path d="" fill="#FF738C" transform="translate(0,0)"/>
<path d="M0 0 C2 1 2 1 2 1 Z " fill="#FFA45B" transform="translate(336,523)"/>
<path d="M0 0 C2 1 2 1 2 1 Z " fill="#FFBC43" transform="translate(204,523)"/>
<path d="" fill="#FF3AC4" transform="translate(0,0)"/>
<path d="" fill="#FFA400" transform="translate(0,0)"/>
<path d="M0 0 C2 1 2 1 2 1 Z " fill="#FF9934" transform="translate(357,25)"/>
<path d="M0 0 C2 1 2 1 2 1 Z " fill="#FFAF50" transform="translate(215,16)"/>
<path d="" fill="#FFBF40" transform="translate(0,0)"/>
<path d="" fill="#FFAF50" transform="translate(0,0)"/>
<path d="" fill="#FFAA00" transform="translate(0,0)"/>
<path d="" fill="#FF55AA" transform="translate(0,0)"/>
<path d="" fill="#FF9900" transform="translate(0,0)"/>
<path d="" fill="#FF9900" transform="translate(0,0)"/>
<path d="" fill="#FF6699" transform="translate(0,0)"/>
<path d="" fill="#FFAA00" transform="translate(0,0)"/>
<path d="" fill="#FFAA55" transform="translate(0,0)"/>
<path d="" fill="#FF9966" transform="translate(0,0)"/>
<path d="" fill="#FF8080" transform="translate(0,0)"/>
</svg>